<?xml version="1.0" encoding="utf-8"?>
<!-- Generator: Adobe Illustrator 19.2.1, SVG Export Plug-In . SVG Version: 6.00 Build 0)  -->
<svg version="1.1" xmlns="http://www.w3.org/2000/svg" xmlns:xlink="http://www.w3.org/1999/xlink" x="0px" y="0px"
	 viewBox="0 0 1170 480" style="enable-background:new 0 0 1170 480;" xml:space="preserve">
<style type="text/css">
	.st0{fill:#22313F;stroke:#000000;stroke-miterlimit:10;}
	.st1{display:none;fill:#EF4C35;}
	.st2{display:none;fill:#E67E24;}
	.st3{display:none;fill:#F62459;}
	.st4{display:none;}
	.st5{fill:#565F96;}
	.st6{fill:#FFFFFF;}
	.st7{fill:#67809F;}
	.st8{fill:#FFFFFF;stroke:#666666;stroke-width:4;stroke-miterlimit:10;}
	.st9{fill:#13B28B;}
	.st10{fill:none;stroke:#13B28B;stroke-miterlimit:10;}
	.st11{opacity:0.4;fill:#13B38B;enable-background:new    ;}
	.st12{fill:#13B38B;}
	.st13{fill:none;stroke:#13B28B;stroke-miterlimit:10;stroke-dasharray:2.0042,2.0042;}
	.st14{fill:#22313F;stroke:#13B28B;stroke-width:3;stroke-miterlimit:10;}
	.st15{fill:#13B28B;stroke:#13B28B;stroke-width:3;stroke-miterlimit:10;}
	.st16{fill:#F9DAC5;}
	.st17{fill:url(#SVGID_1_);}
	.st18{fill:#1DACBC;}
	.st19{fill:#F2BC9E;}
	.st20{fill:#332113;}
	.st21{fill:url(#SVGID_2_);}
	.st22{fill:#FFFFFF;stroke:#D6925F;stroke-width:1.9275;stroke-miterlimit:10;}
	.st23{fill:#EFAB84;}
	.st24{fill:url(#SVGID_3_);}
	.st25{fill:#F9D5B4;}
	.st26{fill:#7796F7;}
	.st27{fill:#F2B78B;}
	.st28{fill:#D19452;}
	.st29{fill:none;stroke:#D6925F;stroke-width:1.7777;stroke-linecap:round;stroke-linejoin:round;stroke-miterlimit:10;}
	.st30{fill:url(#SVGID_4_);}
	.st31{fill:url(#SVGID_5_);}
	.st32{fill:url(#SVGID_6_);}
	.st33{fill:url(#SVGID_7_);}
	.st34{fill:url(#SVGID_8_);}
	.st35{fill:#2E475B;}
	.st36{display:none;fill:#FFFFFF;}
	.st37{font-family:'Montserrat-SemiBold';}
	.st38{font-size:12px;}
	.st39{fill:#3B5997;}
	.st40{fill:url(#SVGID_9_);}
	.st41{fill:url(#SVGID_10_);}
	.st42{fill:url(#SVGID_11_);}
	.st43{fill:url(#SVGID_12_);}
</style>
<g id="background">
	<rect x="0" class="st0" width="1170" height="480"/>
	<rect y="558" class="st1" width="171" height="126"/>
	<rect x="189" y="558" class="st2" width="171" height="126"/>
	<rect x="387" y="558" class="st3" width="171" height="126"/>
</g>
<g id="Layer_6" class="st4">
</g>
<g id="Layer_2" class="st4">
</g>
<g id="Layer_3" class="st4">
</g>
<g id="Layer_4_1_" class="st4">
</g>
<g id="Layer_5">
	<g>
		<path id="stripe_1_" class="st5" d="M217.2,284H146v33.2c0,0,3.2,26.9,71,26.9s71-26.9,71-26.9V284H217.2z"/>
		<path class="st6" d="M217.2,254H146v33.5c0,0,3.2,26.9,71,26.9s71-26.9,71-26.9V254H217.2z"/>
		<path id="stripe_2_" class="st5" d="M217.2,245H146v32.6c0,0,3.2,26.9,71,26.9s71-26.9,71-26.9V245H217.2z"/>
		<path class="st6" d="M217.2,215H146v32.9c0,0,3.2,26.9,71,26.9s71-26.9,71-26.9V215H217.2z"/>
		<path id="stripe" class="st5" d="M217.2,205H146v32.9c0,0,3.2,26.9,71,26.9s71-26.9,71-26.9V205H217.2z"/>
		<ellipse class="st6" cx="217" cy="205.3" rx="71" ry="29"/>
		<g>
			<circle class="st6" cx="156.1" cy="234.2" r="3.4"/>
			<circle class="st6" cx="166.5" cy="239.7" r="3.4"/>
			<circle class="st6" cx="177.5" cy="243.8" r="3.4"/>
		</g>
		<g>
			<circle class="st6" cx="156.1" cy="273.8" r="3.4"/>
			<circle class="st6" cx="166.5" cy="279.3" r="3.4"/>
			<circle class="st6" cx="177.5" cy="283.4" r="3.4"/>
		</g>
		<g>
			<circle class="st6" cx="159.4" cy="316.8" r="3.4"/>
			<circle class="st6" cx="169.8" cy="322.3" r="3.4"/>
			<circle class="st6" cx="180.8" cy="326.4" r="3.4"/>
		</g>
		<g>
			<path class="st6" d="M131.4,137.8h-6.5v-6l-7.2-13.7h6.5l3.9,7.6l3.8-7.6h6.5l-7,13.5V137.8z"/>
			<path class="st6" d="M153.9,130.1c0,4.8-3.4,7.9-8.7,7.9c-5.3,0-8.7-3.1-8.7-7.9s3.4-7.9,8.7-7.9
				C150.5,122.2,153.9,125.3,153.9,130.1z M142.9,130.2c0,1.8,0.9,3,2.3,3c1.4,0,2.3-1.2,2.3-3s-0.9-3-2.3-3
				C143.8,127.2,142.9,128.4,142.9,130.2z"/>
			<path class="st6" d="M171.6,137.8h-6.3v-2.1c-1,1.5-2.5,2.4-4.5,2.4c-3.1,0-5.3-2.3-5.3-5.8v-9.8h6.3v8c0,1.3,0.7,2.1,1.7,2.1
				c1.1,0,1.9-1,1.9-2.5v-7.6h6.3V137.8z"/>
			<path class="st6" d="M181,124.7c1.1-1.6,2.7-2.5,4.7-2.5v5.7c-2.8-0.4-4.7,0.6-4.7,2.6v7.3h-6.3v-15.3h6.3V124.7z"/>
			<path class="st6" d="M201.9,118.1c6.5,0,10.7,3.8,10.7,9.8c0,6-4.3,9.8-10.9,9.8h-8.5v-19.6H201.9z M199.7,132.7h2.4
				c2.4,0,3.9-1.8,3.9-4.7c0-2.9-1.7-4.8-4.2-4.8h-2.1V132.7z"/>
			<path class="st6" d="M229.1,127.9v9.9h-6.2v-1.7c-0.9,1.2-2.4,1.9-4.3,1.9c-3.2,0-5.1-1.9-5.1-4.8c0-3,2-4.6,5.9-4.7h3.5
				c0-1.1-0.8-1.7-2.4-1.7c-1.1,0-2.9,0.3-4.6,1l-1.4-4.2c2.6-1,5.3-1.5,7.6-1.5C226.4,122.2,229.1,124.3,229.1,127.9z M222.9,132.9
				v-1.4h-2.2c-0.9,0-1.3,0.4-1.3,1.2c0,0.8,0.5,1.3,1.4,1.3C221.6,134.1,222.4,133.6,222.9,132.9z"/>
			<path class="st6" d="M242.7,137.1c-1,0.6-2.7,1-4.4,1c-3.5,0-5.8-2-5.8-5.2v-5.6h-2.1v-4h2.1V119h6.3v4.3h3.6v4h-3.6v4.6
				c0,0.8,0.5,1.3,1.2,1.3c0.4,0,1-0.2,1.6-0.4L242.7,137.1z"/>
			<path class="st6" d="M259.1,127.9v9.9h-6.2v-1.7c-0.9,1.2-2.4,1.9-4.3,1.9c-3.2,0-5.1-1.9-5.1-4.8c0-3,2-4.6,5.9-4.7h3.5
				c0-1.1-0.8-1.7-2.4-1.7c-1.1,0-2.9,0.3-4.6,1l-1.4-4.2c2.6-1,5.3-1.5,7.6-1.5C256.5,122.2,259.1,124.3,259.1,127.9z M252.9,132.9
				v-1.4h-2.2c-0.9,0-1.3,0.4-1.3,1.2c0,0.8,0.5,1.3,1.4,1.3C251.6,134.1,252.4,133.6,252.9,132.9z"/>
			<path class="st6" d="M279.1,130.2c0,4.7-2.7,7.8-6.9,7.8c-1.7,0-3.1-0.6-4.1-1.8v1.6h-6.3V117h6.3v7c1-1.1,2.3-1.8,3.9-1.8
				C276.4,122.2,279.1,125.4,279.1,130.2z M272.8,130c0-1.8-0.9-3-2.3-3c-1.4,0-2.3,1.2-2.3,3s0.9,3,2.3,3
				C271.9,133,272.8,131.8,272.8,130z"/>
			<path class="st6" d="M295.6,127.9v9.9h-6.2v-1.7c-0.9,1.2-2.4,1.9-4.3,1.9c-3.2,0-5.1-1.9-5.1-4.8c0-3,2-4.6,5.9-4.7h3.5
				c0-1.1-0.8-1.7-2.4-1.7c-1.1,0-2.9,0.3-4.6,1l-1.4-4.2c2.6-1,5.3-1.5,7.6-1.5C293,122.2,295.6,124.3,295.6,127.9z M289.4,132.9
				v-1.4h-2.2c-0.9,0-1.3,0.4-1.3,1.2c0,0.8,0.5,1.3,1.4,1.3C288.1,134.1,288.9,133.6,289.4,132.9z"/>
			<path class="st6" d="M311.6,124.1l-2.1,3.9c-2.3-1.1-4-1.7-5.2-1.7c-0.5,0-0.9,0.2-0.9,0.5c0,1.4,8,0.9,8,6
				c0,3.2-2.7,5.2-6.9,5.2c-2.8,0-5.3-0.7-7.5-2.2l1.9-3.9c2,1.3,3.9,1.9,5.7,1.9c0.6,0,1-0.2,1-0.4c0-1.3-7.8-0.8-7.8-5.9
				c0-3.2,2.7-5.3,6.7-5.3C307,122.2,309.3,122.8,311.6,124.1z"/>
			<path class="st6" d="M328.9,131.5h-10c0.4,1.2,1.3,1.8,2.5,1.8c1.1,0,2.2-0.5,3.1-1.4l3.3,3.2c-1.6,1.8-4,2.8-6.9,2.8
				c-5.2,0-8.3-3.1-8.3-7.8c0-4.8,3.2-8,8.2-8C326.1,122.2,329.3,125.9,328.9,131.5z M322.6,128.6c0.1-1.3-0.7-2.2-1.8-2.2
				c-1.1,0-1.8,0.9-2,2.2H322.6z"/>
		</g>
		<path class="st7" d="M536.3,254.1h-9.7c-1-4.2-2.7-8.1-4.8-11.7l6.9-6.9c1.3-1.3,1.3-3.4,0-4.8l-10.5-10.5c-1.3-1.3-3.4-1.3-4.8,0
			l-6.8,6.8c-3.7-2.3-7.8-4-12.2-5.1v-9.9c0-1.8-1.5-3.4-3.4-3.4h-14.8c-1.8,0-3.4,1.5-3.4,3.4v9.9c-4.3,1.1-8.3,2.8-11.9,5
			l-6.7-6.7l0,0l-0.2-0.2c-1.3-1.3-3.4-1.3-4.8,0l-10.5,10.5c-1.3,1.3-1.3,3.4,0,4.8l0.2,0.2l0,0l6.7,6.7c-2.2,3.7-3.9,7.7-5,11.9
			h-9.7c-1.8,0-3.4,1.5-3.4,3.4v14.8c0,1.8,1.5,3.4,3.4,3.4h9.7c1.1,4.3,2.8,8.4,5.1,12.2l-6.8,6.8c-1.3,1.3-1.3,3.4,0,4.8
			l10.5,10.5c1.3,1.3,3.4,1.3,4.8,0l6.9-6.9c3.6,2.1,7.6,3.8,11.7,4.8v9.5c0,1.8,1.5,3.4,3.4,3.4h14.8c1.8,0,3.4-1.5,3.4-3.4v-9.5
			c4.3-1.1,8.3-2.7,11.9-5l7,7c1.3,1.3,3.4,1.3,4.8,0l10.5-10.5c1.3-1.3,1.3-3.4,0-4.8l-0.2-0.2l-6.9-6.9c2.2-3.7,3.9-7.7,5-11.9
			h9.7c1.8,0,3.4-1.5,3.4-3.4v-14.8C539.7,255.6,538.2,254.1,536.3,254.1z"/>
		<circle class="st8" cx="483.9" cy="264.8" r="22.7"/>
		<g id="Layer_3_2_">
			<g>
				<path class="st6" d="M411.1,139.9l8-21.3h4.7l7.9,21.3h-6.2l-1.3-4.2h-5.7l-1.3,4.2L411.1,139.9z M421.4,124.7l-2,7.1h3.9
					L421.4,124.7z"/>
				<path class="st6" d="M433.3,139.9v-21.3h5.9v16.2h9.7v5.1H433.3z"/>
				<path class="st6" d="M451,139.9v-21.3h9.2c1,0,2,0.2,2.9,0.6c0.9,0.4,1.6,1,2.3,1.7c0.6,0.7,1.1,1.5,1.5,2.4
					c0.4,0.9,0.5,1.8,0.5,2.7s-0.2,1.9-0.5,2.7c-0.3,0.9-0.8,1.7-1.4,2.4c-0.6,0.7-1.4,1.2-2.2,1.7c-0.9,0.4-1.8,0.6-2.9,0.6h-3.5
					v6.5H451z M456.8,128.2h3.1c0.4,0,0.7-0.2,1-0.5c0.3-0.3,0.5-0.9,0.5-1.8s-0.2-1.5-0.5-1.8c-0.4-0.3-0.7-0.5-1.1-0.5h-2.9
					L456.8,128.2L456.8,128.2z"/>
				<path class="st6" d="M488.4,118.6v21.3h-5.9v-8.3h-7.1v8.3h-5.9v-21.3h5.9v7.9h7.1v-7.9H488.4z"/>
				<path class="st6" d="M490,139.9l8-21.3h4.7l7.9,21.3h-6.2l-1.3-4.2h-5.7l-1.3,4.2L490,139.9z M500.3,124.7l-2,7.1h3.9
					L500.3,124.7z"/>
				<path class="st9" d="M512.2,139.9v-21.3h9.8c1,0,2,0.2,2.9,0.6c0.9,0.4,1.6,1,2.3,1.7c0.7,0.7,1.1,1.5,1.5,2.4
					c0.4,0.9,0.5,1.8,0.5,2.7c0,1.2-0.3,2.4-0.8,3.5s-1.3,1.9-2.3,2.6l4.8,7.8h-6.6l-4-6.5h-2.2v6.5L512.2,139.9z M518,128.2h3.7
					c0.4,0,0.7-0.2,1-0.6c0.3-0.4,0.5-1,0.5-1.7c0-0.7-0.2-1.3-0.5-1.7c-0.4-0.4-0.7-0.6-1.1-0.6h-3.5L518,128.2L518,128.2z"/>
				<path class="st9" d="M530.7,139.9l8-21.3h4.7l7.9,21.3h-6.2l-1.3-4.2h-5.7l-1.3,4.2L530.7,139.9z M541,124.7l-2,7.1h3.9
					L541,124.7z"/>
				<path class="st9" d="M558.8,129.4v10.5H553v-21.3h4.6l8.6,10.8v-10.8h5.8v21.3h-4.7L558.8,129.4z"/>
				<path class="st9" d="M575.5,139.9v-21.3h5.8v8.7l7.1-8.7h6l-7.7,9.5l8.3,11.8h-6.1l-5.6-8.5l-1.9,2.2v6.3L575.5,139.9z"/>
			</g>
		</g>
		<g id="Layer_4_2_">
			<circle class="st10" cx="382.8" cy="133.6" r="3.8"/>
			<line class="st10" x1="386.6" y1="132.6" x2="392.3" y2="131.1"/>
			<circle class="st11" cx="396.8" cy="130.5" r="4.6"/>
			<circle class="st12" cx="396.8" cy="130.5" r="2.3"/>
			<line class="st10" x1="395.7" y1="126.1" x2="394.1" y2="121.8"/>
			<circle class="st12" cx="393.2" cy="119.6" r="2.6"/>
			<line class="st10" x1="400.2" y1="133.6" x2="402.4" y2="135.8"/>
			<circle class="st12" cx="404.8" cy="138.1" r="3.6"/>
		</g>
		<g>
			<path class="st12" d="M299.4,208.5l1.2-6.7l-1.6-0.3l0.3-1.6l3.4,0.6l-1.5,8.3L299.4,208.5z"/>
			<path class="st12" d="M311,206.5c-0.6,2.7-2.1,3.9-4.4,3.4c-2.3-0.5-3.3-2.2-2.7-4.9c0.6-2.7,2.1-3.9,4.5-3.4
				C310.6,202.1,311.6,203.8,311,206.5z M305.8,205.4c-0.4,1.9,0,2.9,1.1,3.1c1.2,0.2,1.9-0.5,2.3-2.4c0.4-1.9,0-2.8-1.1-3.1
				C306.8,202.8,306.1,203.5,305.8,205.4z"/>
			<path class="st12" d="M312.3,211.1l1.6-6.6l-1.5-0.4l0.4-1.6l3.4,0.8l-1.9,8.2L312.3,211.1z"/>
			<path class="st12" d="M316.9,212.3l1.7-6.6l-1.5-0.4l0.4-1.5l3.4,0.9l-2.1,8.1L316.9,212.3z"/>
			<path class="st12" d="M328.7,211.3c-0.8,2.6-2.5,3.7-4.7,3c-2.3-0.7-3.1-2.5-2.3-5.2c0.8-2.6,2.5-3.7,4.7-3
				C328.6,206.8,329.5,208.7,328.7,211.3z M323.5,209.7c-0.6,1.9-0.3,2.9,0.8,3.2c1.1,0.3,1.9-0.3,2.5-2.2c0.6-1.9,0.3-2.8-0.8-3.2
				C324.8,207.2,324.1,207.8,323.5,209.7z"/>
			<path class="st12" d="M329.5,216l2.2-6.4l-1.5-0.5l0.5-1.5l3.3,1.1l-2.8,7.9L329.5,216z"/>
			<path class="st12" d="M341.3,216c-1,2.6-2.8,3.5-5,2.6c-2.2-0.9-2.8-2.8-1.8-5.3c1-2.5,2.8-3.5,5-2.6
				C341.6,211.6,342.3,213.5,341.3,216z M336.3,214c-0.7,1.8-0.6,2.8,0.5,3.3c1.1,0.4,1.9-0.1,2.6-2c0.7-1.8,0.5-2.8-0.5-3.2
				C337.8,211.6,337,212.2,336.3,214z"/>
			<path class="st12" d="M349,219.8c-1.2,2.5-3.1,3.2-5.2,2.2c-2.1-1.1-2.6-3-1.4-5.5c1.2-2.5,3-3.2,5.2-2.2
				C349.7,215.4,350.2,217.3,349,219.8z M344.1,217.4c-0.9,1.8-0.8,2.8,0.3,3.3c1.1,0.5,1.9,0,2.8-1.8c0.9-1.8,0.8-2.7-0.3-3.3
				C345.9,215.1,345,215.6,344.1,217.4z"/>
			<path class="st12" d="M348.8,224.6l3.5-5.8L351,218l0.8-1.4l3,1.8l-4.3,7.2L348.8,224.6z"/>
			<path class="st12" d="M352.8,227.1l3.9-5.6l-1.3-0.9l0.9-1.3l2.9,2l-4.8,6.9L352.8,227.1z"/>
			<path class="st12" d="M356.6,229.9l4.4-5.2l-1.2-1l1-1.2l2.7,2.2l-5.4,6.4L356.6,229.9z"/>
			<path class="st12" d="M367.3,234.5c-2,1.9-4,2-5.6,0.3c-1.7-1.7-1.5-3.7,0.5-5.6c2-1.9,4-2,5.6-0.3
				C369.5,230.6,369.3,232.6,367.3,234.5z M363.6,230.6c-1.4,1.4-1.7,2.3-0.8,3.2c0.8,0.8,1.8,0.6,3.2-0.7c1.4-1.4,1.6-2.3,0.8-3.2
				C366,229.1,365,229.3,363.6,230.6z"/>
			<path class="st12" d="M366.6,239.3l4.2-5.4l-1.3-1l1-1.3l2.8,2.1l-5.1,6.7L366.6,239.3z"/>
			<path class="st12" d="M378.7,241.8c-1.3,2.4-3.2,3.1-5.3,2c-2.1-1.1-2.5-3.1-1.2-5.5c1.3-2.4,3.2-3.1,5.3-2
				C379.6,237.4,380,239.4,378.7,241.8z M374,239.2c-0.9,1.7-0.9,2.7,0.2,3.3c1,0.6,1.9,0.1,2.9-1.7c0.9-1.7,0.9-2.7-0.2-3.3
				C375.8,237,374.9,237.5,374,239.2z"/>
			<path class="st12" d="M379.6,246.5l2.2-6.4l-1.5-0.5l0.5-1.5l3.3,1.1l-2.8,7.9L379.6,246.5z"/>
			<path class="st12" d="M391.7,245.2c-0.5,2.7-2.1,3.9-4.4,3.5c-2.3-0.5-3.3-2.2-2.8-4.9c0.5-2.7,2.1-3.9,4.4-3.5
				C391.3,240.8,392.3,242.6,391.7,245.2z M386.5,244.2c-0.4,1.9,0,2.9,1.1,3.1c1.2,0.2,1.8-0.5,2.2-2.4c0.4-1.9,0-2.8-1.1-3.1
				C387.5,241.6,386.8,242.3,386.5,244.2z"/>
			<path class="st12" d="M393.6,249.6l0.6-6.8l-1.6-0.2l0.2-1.6l3.5,0.3l-0.8,8.4L393.6,249.6z"/>
			<path class="st12" d="M398.7,250l0.4-6.8l-1.6-0.1l0.1-1.6l3.5,0.2l-0.4,8.4L398.7,250z"/>
			<path class="st12" d="M409.9,246.4c-0.2,2.7-1.6,4.2-3.9,4c-2.4-0.1-3.6-1.7-3.4-4.5c0.2-2.7,1.6-4.2,3.9-4
				C408.9,242.1,410.1,243.6,409.9,246.4z M404.5,246c-0.1,2,0.4,2.8,1.6,2.9c1.2,0.1,1.8-0.7,1.9-2.7c0.1-2-0.4-2.8-1.5-2.9
				C405.2,243.3,404.6,244.1,404.5,246z"/>
			<path class="st12" d="M411.5,251l1.5-6.6l-1.5-0.3l0.3-1.6l3.4,0.8l-1.8,8.2L411.5,251z"/>
		</g>
		<g>
			<path class="st12" d="M296.6,313.9l-1.1-6.7l-1.6,0.3l-0.3-1.6l3.4-0.6l1.4,8.3L296.6,313.9z"/>
			<path class="st12" d="M306.6,307.8c0.5,2.7-0.5,4.4-2.8,4.9c-2.3,0.5-3.9-0.8-4.4-3.5c-0.5-2.7,0.5-4.4,2.8-4.9
				C304.5,303.9,306.1,305.2,306.6,307.8z M301.3,308.9c0.4,1.9,1.1,2.7,2.2,2.4c1.2-0.2,1.5-1.1,1.1-3.1c-0.4-1.9-1.1-2.6-2.2-2.4
				C301.3,306,300.9,306.9,301.3,308.9z"/>
			<path class="st12" d="M309.5,311.5l-1.5-6.6l-1.5,0.3l-0.3-1.6l3.4-0.8l1.8,8.2L309.5,311.5z"/>
			<path class="st12" d="M319.1,304.8c0.7,2.7-0.2,4.5-2.5,5.1c-2.3,0.6-3.9-0.6-4.6-3.2c-0.7-2.7,0.2-4.4,2.5-5
				C316.8,301,318.4,302.1,319.1,304.8z M313.9,306.1c0.5,1.9,1.2,2.6,2.4,2.3c1.1-0.3,1.5-1.2,1-3.2c-0.5-1.9-1.2-2.6-2.4-2.3
				C313.7,303.3,313.4,304.2,313.9,306.1z"/>
			<path class="st12" d="M327.2,302.4c0.8,2.6,0,4.5-2.2,5.2c-2.3,0.7-4-0.4-4.8-3c-0.8-2.6,0-4.4,2.3-5.1
				C324.7,298.7,326.4,299.7,327.2,302.4z M322,303.9c0.6,1.9,1.3,2.5,2.5,2.2c1.1-0.3,1.4-1.3,0.8-3.2c-0.6-1.9-1.3-2.5-2.5-2.2
				C321.7,301.1,321.4,302.1,322,303.9z"/>
			<path class="st12" d="M330.7,305.6l-2.3-6.4l-1.5,0.5l-0.5-1.5l3.3-1.2l2.8,7.9L330.7,305.6z"/>
			<path class="st12" d="M339.6,297.5c1.1,2.5,0.4,4.4-1.7,5.4c-2.2,0.9-4,0-5-2.5c-1.1-2.5-0.4-4.4,1.7-5.3
				C336.7,294.1,338.5,295,339.6,297.5z M334.6,299.6c0.8,1.8,1.6,2.4,2.7,1.9c1.1-0.5,1.3-1.4,0.5-3.3c-0.8-1.8-1.6-2.4-2.7-1.9
				C334,296.8,333.8,297.8,334.6,299.6z"/>
			<path class="st12" d="M347.1,293.6c1.3,2.4,0.8,4.4-1.2,5.5c-2.1,1.1-4,0.4-5.2-2.1c-1.3-2.4-0.8-4.4,1.3-5.5
				C344,290.5,345.8,291.2,347.1,293.6z M342.3,296.1c0.9,1.8,1.8,2.2,2.8,1.7c1-0.5,1.1-1.5,0.2-3.3c-0.9-1.7-1.8-2.2-2.8-1.7
				C341.5,293.4,341.4,294.4,342.3,296.1z"/>
			<path class="st12" d="M351.3,295.9l-3.7-5.7l-1.3,0.9l-0.9-1.3l2.9-1.9l4.6,7L351.3,295.9z"/>
			<path class="st12" d="M357.8,285.5c1.8,2.1,1.8,4.1,0,5.6c-1.8,1.6-3.8,1.3-5.6-0.8c-1.8-2.1-1.8-4.1,0-5.6
				C354,283.2,356,283.5,357.8,285.5z M353.7,289.1c1.3,1.5,2.3,1.8,3.2,1c0.9-0.8,0.7-1.8-0.6-3.3c-1.3-1.5-2.2-1.8-3.1-1
				C352.3,286.6,352.4,287.6,353.7,289.1z"/>
			<path class="st12" d="M362.2,286.7l-4.8-4.9l-1.1,1.1l-1.1-1.1l2.5-2.4l5.9,6L362.2,286.7z"/>
			<path class="st12" d="M365.7,283.5l-4.3-5.3l-1.2,1l-1-1.2l2.7-2.2l5.3,6.5L365.7,283.5z"/>
			<path class="st12" d="M372.4,273.9c1.4,2.3,1.1,4.3-0.9,5.6c-2,1.2-3.9,0.6-5.4-1.7c-1.4-2.3-1.1-4.3,0.9-5.5
				C369,271,370.9,271.6,372.4,273.9z M367.8,276.7c1,1.7,1.9,2.1,2.9,1.5c1-0.6,1-1.6,0-3.3c-1-1.7-1.9-2.1-2.9-1.5
				C366.8,274,366.7,275,367.8,276.7z"/>
			<path class="st12" d="M380.5,270.6c1,2.6,0.3,4.5-1.9,5.3c-2.2,0.9-4-0.1-5-2.6c-1-2.5-0.3-4.4,1.9-5.3
				C377.7,267.1,379.5,268,380.5,270.6z M375.5,272.6c0.7,1.8,1.5,2.4,2.6,2c1.1-0.4,1.3-1.4,0.6-3.3c-0.7-1.8-1.5-2.4-2.6-2
				C375,269.8,374.8,270.7,375.5,272.6z"/>
			<path class="st12" d="M384,274.1l-1.6-6.6l-1.5,0.4l-0.4-1.5l3.4-0.8l2,8.1L384,274.1z"/>
			<path class="st12" d="M388.5,273.1l-1.1-6.7l-1.6,0.3l-0.3-1.6l3.4-0.6l1.4,8.3L388.5,273.1z"/>
			<path class="st12" d="M399,267.7c0.2,2.7-1,4.4-3.3,4.6c-2.4,0.2-3.8-1.2-4-4c-0.2-2.7,0.9-4.3,3.3-4.5
				C397.3,263.6,398.8,265,399,267.7z M393.6,268.2c0.2,2,0.8,2.8,2,2.7c1.2-0.1,1.6-1,1.5-3c-0.2-2-0.8-2.7-1.9-2.6
				C393.9,265.3,393.5,266.2,393.6,268.2z"/>
			<path class="st12" d="M401.5,271.9l-0.3-6.8l-1.6,0.1l-0.1-1.6l3.5-0.2l0.4,8.4L401.5,271.9z"/>
		</g>
		<g>
			<line class="st9" x1="550" y1="261" x2="1027" y2="261"/>
			<g>
				<line class="st10" x1="550" y1="261" x2="551" y2="261"/>
				<line class="st13" x1="553" y1="261" x2="1025" y2="261"/>
				<line class="st10" x1="1026" y1="261" x2="1027" y2="261"/>
			</g>
		</g>
		<polygon class="st14" points="784.8,360 640.8,360 730,162 874,162 		"/>
		<polygon class="st15" points="810.1,276 690.2,276 706.5,240 826.4,240 		"/>
		<g>
			<path class="st16" d="M811.7,227.4c-0.7-0.6-1.5-1-2.3-1.2l-7.9-2.5l0,0c-0.6-0.2-0.9-0.7-1-1.3c-0.3-1.6-0.3-6-0.2-6.7
				c0-0.1,0-0.1-0.1-0.1h-7c-0.1,0-0.1,0-0.1,0.1c0,0.7,0,5-0.2,6.7c-0.1,0.6-0.4,1.1-1,1.3l0,0l-7.9,2.5c-0.7,0.2-1.4,0.6-2,1
				c-3.2,2.4-3.3,6.2-3.4,6.9c0,0.1,0,0.1,0.1,0.1h18.1h18.1c0.1,0,0.1-0.1,0.1-0.1C814.8,233.5,814.7,229.8,811.7,227.4z"/>
			<linearGradient id="SVGID_1_" gradientUnits="userSpaceOnUse" x1="797.0695" y1="222.8797" x2="797.0695" y2="209.2628">
				<stop  offset="0.1608" style="stop-color:#D86D25"/>
				<stop  offset="0.6432" style="stop-color:#E57F39"/>
			</linearGradient>
			<path class="st17" d="M806.5,227.8c2.4,0.4,5-0.2,6.9-1.8c1.9-1.6,2.1-4.2,2.2-6.7c-1.6,1.3-4.2,0.4-5.3-1.5
				c-1.1-1.8-1.3-4.1-1-6.2c0.3-2.9,0.6-5.9,0.4-8.9c-0.2-3-0.9-5.9-2.5-8.4c-2.3-3.6-6.6-5.4-10.7-5.4s-8.4,1.8-10.7,5.4
				c-1.6,2.4-2.3,5.4-2.5,8.4c-0.2,3,0.1,5.9,0.4,8.9c0.2,2.1,0,4.3-1,6.2c-1.1,1.8-2.5,2.8-4.2,1.5c0.1,2.5,0.3,5.1,2.2,6.7
				c1.9,1.6,3.4,2.3,5.8,1.8H806.5z"/>
			<path class="st16" d="M811.7,227.4c-0.7-0.6-1.5-1-2.3-1.2l-7.9-2.5l0,0c-0.6-0.2-0.9-0.7-1-1.3c-0.3-1.6-0.3-6-0.2-6.7
				c0-0.1,0-0.1-0.1-0.1h-7c-0.1,0-0.1,0-0.1,0.1c0,0.7,0,5-0.2,6.7c-0.1,0.6-0.4,1.1-1,1.3l0,0l-7.9,2.5c-0.7,0.2-1.4,0.6-2,1
				c-3.2,2.4-3.3,6.2-3.4,6.9c0,0.1,0,0.1,0.1,0.1h18.1h18.1c0.1,0,0.1-0.1,0.1-0.1C814.8,233.5,814.7,229.8,811.7,227.4z"/>
			<g>
				<path class="st18" d="M784.9,225.9l-0.9,0.3c-0.7,0.2-1.4,0.6-2,1c-3.2,2.4-3.3,6.2-3.4,6.9c0,0.1,0,0.1,0.1,0.1h18.1h18.1
					c0.1,0,0.1-0.1,0.1-0.1c-0.1-0.7-0.2-4.4-3.2-6.7c-0.7-0.6-1.5-1-2.3-1.2l-0.9-0.3c-3.6,1.3-7.6,2-11.8,2
					S788.5,227.2,784.9,225.9z"/>
				<path class="st16" d="M800.5,222.5c-0.3-1.6-0.3-6-0.2-6.7c0-0.1,0-0.1-0.1-0.1h-7c-0.1,0-0.1,0-0.1,0.1c0,0.7,0,5-0.2,6.7
					c-0.1,0.6-0.4,1.1-1,1.3l-7,2.2c3.6,1.3,7.6,2,11.8,2s8.2-0.7,11.8-2l-7-2.2C800.9,223.6,800.6,223.1,800.5,222.5z"/>
			</g>
			<g>
				<path class="st19" d="M800.3,219.4c0-1.5,0-2.9,0-3.3c0-0.1,0-0.1-0.1-0.1h-7c-0.1,0-0.1,0-0.1,0.1c0,0.4,0,1.8,0,3.3
					C795.4,220.2,798,220.2,800.3,219.4z"/>
			</g>
			<g>
				<path class="st16" d="M788.3,206.8c0.6,1.5,0.3,3.8-0.8,4.3c-1.1,0.4-2.4-1.1-3.1-2.6s-0.3-3.1,0.8-3.5
					C786.3,204.5,787.7,205.3,788.3,206.8z"/>
				<path class="st16" d="M805.1,206.8c-0.6,1.5-0.3,3.8,0.8,4.3c1.1,0.4,2.4-1.1,3.1-2.6s0.3-3.1-0.8-3.5
					C807.1,204.5,805.7,205.3,805.1,206.8z"/>
			</g>
			<path class="st16" d="M796.7,192.1c-10.7-0.4-10.8,9.8-10.7,13.1c0.1,2.4,1.1,6,1.6,7.7c0.3,1,0.8,1.9,1.6,2.7
				c2.8,2.7,7.5,3.6,7.5,3.6s4.7-0.9,7.5-3.6c0.8-0.7,1.3-1.7,1.6-2.7c0.5-1.8,1.5-5.3,1.6-7.7C807.5,201.9,807.4,191.7,796.7,192.1
				z"/>
			<g>
				<ellipse class="st20" cx="791.1" cy="206.1" rx="1.4" ry="1.6"/>
				<ellipse class="st20" cx="801.9" cy="206.1" rx="1.4" ry="1.6"/>
			</g>
			<linearGradient id="SVGID_2_" gradientUnits="userSpaceOnUse" x1="801.0536" y1="194.1804" x2="808.2097" y2="205.4916">
				<stop  offset="0.3719" style="stop-color:#E57F39"/>
				<stop  offset="1" style="stop-color:#FFBA83"/>
			</linearGradient>
			<path class="st21" d="M802.5,193c2.2,0.2,4.2,1.8,5.2,3.7c1,2,1.3,4.3,1.1,6.5c-0.2,2.7-1,5.3-2.2,7.7c1.5-5.3-1.1-11-5.4-14.5
				c-0.8-0.6-0.9-2-0.3-2.8S801.5,192.9,802.5,193z"/>
			<g>
				<g>
					<path class="st22" d="M792.9,212.8c0.7,1.4,2.1,2.5,3.8,2.5s3.1-1,3.8-2.5H792.9z"/>
				</g>
			</g>
			<circle class="st23" cx="789.6" cy="210" r="1.5"/>
			<circle class="st23" cx="803.2" cy="210" r="1.5"/>
		</g>
		<linearGradient id="SVGID_3_" gradientUnits="userSpaceOnUse" x1="796.7826" y1="194.8296" x2="786.7667" y2="212.7612">
			<stop  offset="0.5025" style="stop-color:#E57F39"/>
			<stop  offset="1" style="stop-color:#FFBA83"/>
		</linearGradient>
		<path class="st24" d="M804.9,194.8c-0.1,2-1.9,3.5-3.8,4.2c-1.8,0.6-3.8,0.7-5.7,1.2c-3,0.9-5.7,3.2-7.1,6.1
			c-1.4,3-1.5,6.5-0.3,9.6c-1.2-3.8-3.1-8.5-2.8-12.4c0.3-4,2.2-7.9,5-10.6c2.8-2.7,7.4-3,10.9-1.6
			C802.8,192.1,805,192.8,804.9,194.8z"/>
		<g>
			<g>
				<path class="st25" d="M769.5,227.2c-0.8-0.6-1.7-1-2.7-1.3l-1-0.3c0,0,0,0,0,0l-8.2-2.7c-0.7-0.2-1-0.7-1.1-1.3
					c-0.3-1.7-0.3-5.8-0.3-6.5c0-0.1-0.1-0.1-0.1-0.1h-0.4h-8.1h-0.4c-0.1,0-0.1,0-0.1,0.1c0,0.7,0,4.7-0.3,6.5
					c-0.1,0.6-0.5,1.1-1.1,1.3l-8.2,2.7c0,0,0,0,0,0l-1.1,0.3c-0.8,0.2-1.7,0.6-2.4,1c-3.7,2.4-3.8,6.4-4,7.2c0,0.1,0,0.1,0.1,0.1
					h21.5H773c0.1,0,0.1-0.1,0.1-0.1C773,233.4,772.9,229.7,769.5,227.2z"/>
				<g>
					<path class="st26" d="M769.5,227.2c-0.8-0.6-1.7-1-2.7-1.3l-1-0.3c0,0,0,0,0,0l-7-2.3c-2.2,0.8-4.6,1.3-7.1,1.3
						s-4.9-0.5-7.1-1.3l-7,2.3c0,0,0,0,0,0l-1.1,0.3c-0.8,0.2-1.7,0.6-2.4,1c-3.7,2.4-3.8,6.4-4,7.2c0,0.1,0,0.1,0.1,0.1h21.5H773
						c0.1,0,0.1-0.1,0.1-0.1C773,233.4,772.9,229.7,769.5,227.2z"/>
				</g>
				<g>
					<path class="st27" d="M756.2,220.1c0-1.9-0.1-3.7-0.1-4.2c0-0.1-0.1-0.1-0.1-0.1h-8.9c-0.1,0-0.1,0.1-0.1,0.1
						c0,0.5-0.1,2.3-0.1,4.2c0.6,0.7,3,1.6,4.6,1.6C753.1,221.8,755.6,220.7,756.2,220.1z"/>
				</g>
				<g>
					<path class="st25" d="M743.2,206.4c0.6,1.7,0.3,4.3-0.8,4.8c-1.1,0.5-2.4-1.3-3.1-3c-0.6-1.7-0.3-3.5,0.8-4
						C741.2,203.7,742.6,204.7,743.2,206.4z"/>
					<path class="st25" d="M760,206.4c-0.6,1.7-0.3,4.3,0.8,4.8c1.1,0.5,2.4-1.3,3.1-3c0.6-1.7,0.3-3.5-0.8-4
						C762,203.7,760.6,204.7,760,206.4z"/>
				</g>
				<path class="st25" d="M751.5,191.4c-10.6-0.4-10.7,9.8-10.6,13.1c0.1,2.4,0.7,6,1.2,7.7c0.3,1,0.8,2.7,1.6,3.4
					c2.1,2,4.6,3.7,6.2,4.3c0.3,0.1,0.9,0.2,1.6,0.2c0.6,0,1.3,0,1.6-0.2c1.6-0.6,4.1-2.3,6.2-4.3c0.8-0.7,1.3-2.4,1.6-3.4
					c0.5-1.8,1.1-5.3,1.2-7.7C762.2,201.2,762,191.1,751.5,191.4z"/>
				<g>
					<ellipse class="st20" cx="746" cy="205.4" rx="1.3" ry="1.6"/>
					<ellipse class="st20" cx="756.7" cy="205.4" rx="1.3" ry="1.6"/>
				</g>
				<g>
					<path class="st28" d="M753.5,217.6c-1-0.2-1.9-1.3-2-1.9c-0.1,0.6-1,1.7-2,1.9c-2.5,0.5-5.1-1.7-6.9-4c0.3,0.8,0.7,1.6,1.2,2.1
						c2.1,2,4.6,3.7,6.2,4.3c0.3,0.1,0.9,0.2,1.6,0.2c0.6,0,1.3,0,1.6-0.2c1.6-0.6,4.1-2.3,6.2-4.3c0.5-0.5,0.9-1.3,1.2-2.1
						C758.6,215.8,756,218,753.5,217.6z"/>
				</g>
				<path class="st29" d="M748.8,212.2c0.5,0.7,1.5,1.1,2.7,1.1c1.2,0,2.3-0.5,2.7-1.1"/>
			</g>
			<g>
				<g>
					<g>
						<path class="st28" d="M742.2,201.4c0.4-2,1.2-3.9,2.2-5.6c-0.3-0.5-0.9-0.6-1.4-0.4c-1.6,2.4-2,5.5-2,7.7
							c0.1,1.3,0.3,2.5,0.7,3.6C741.9,204.9,741.8,203.1,742.2,201.4z"/>
					</g>
				</g>
				<g>
					<g>
						<path class="st28" d="M761,201.4c-0.4-2-1.2-3.9-2.2-5.6c0.3-0.5,0.9-0.6,1.4-0.4c1.6,2.4,2,5.5,2,7.7
							c-0.1,1.3-0.3,2.5-0.7,3.6C761.3,204.9,761.4,203.1,761,201.4z"/>
					</g>
				</g>
			</g>
			<linearGradient id="SVGID_4_" gradientUnits="userSpaceOnUse" x1="742.3975" y1="193.8717" x2="762.7106" y2="193.8717">
				<stop  offset="0" style="stop-color:#B17338"/>
				<stop  offset="0.8643" style="stop-color:#E8AE5C"/>
			</linearGradient>
			<path class="st30" d="M752.6,197.2c2,0.5,4.1,0.9,6,0.1c1.9-0.7,3.5-2.6,4-4.7c-1.8,0.9-3.7-0.5-5.5-1.4
				c-4.3-2.2-9.8-1.1-13.2,2.6c-1.8,1.9-2.6,3.7,0.3,3.2C747.4,196.4,749.5,196.4,752.6,197.2z"/>
		</g>
		<g>
			<path class="st16" d="M736.2,326.2c-0.7-0.6-1.5-1-2.3-1.2l-7.9-2.5l0,0c-0.6-0.2-0.9-0.7-1-1.3c-0.3-1.6-0.3-6-0.2-6.7
				c0-0.1,0-0.1-0.1-0.1h-7c-0.1,0-0.1,0-0.1,0.1c0,0.7,0,5-0.2,6.7c-0.1,0.6-0.4,1.1-1,1.3l0,0l-7.9,2.5c-0.7,0.2-1.4,0.6-2,1
				c-3.2,2.4-3.3,6.2-3.4,6.9c0,0.1,0,0.1,0.1,0.1h18.1h18.1c0.1,0,0.1-0.1,0.1-0.1C739.2,332.2,739.2,328.5,736.2,326.2z"/>
			<linearGradient id="SVGID_5_" gradientUnits="userSpaceOnUse" x1="721.5528" y1="321.5901" x2="721.5528" y2="307.9732">
				<stop  offset="0.1608" style="stop-color:#D86D25"/>
				<stop  offset="0.6432" style="stop-color:#E57F39"/>
			</linearGradient>
			<path class="st31" d="M731,326.5c2.4,0.4,5-0.2,6.9-1.8s2.1-4.2,2.2-6.7c-1.6,1.3-4.2,0.4-5.3-1.5c-1.1-1.8-1.3-4.1-1-6.2
				c0.3-2.9,0.6-5.9,0.4-8.9c-0.2-3-0.9-5.9-2.5-8.4c-2.3-3.6-6.6-5.4-10.7-5.4c-4.1,0-8.4,1.8-10.7,5.4c-1.6,2.4-2.3,5.4-2.5,8.4
				c-0.2,3,0.1,5.9,0.4,8.9c0.2,2.1,0,4.3-1,6.2c-1.1,1.8-2.5,2.8-4.2,1.5c0.1,2.5,0.3,5.1,2.2,6.7s3.4,2.3,5.8,1.8H731z"/>
			<path class="st16" d="M736.2,326.2c-0.7-0.6-1.5-1-2.3-1.2l-7.9-2.5l0,0c-0.6-0.2-0.9-0.7-1-1.3c-0.3-1.6-0.3-6-0.2-6.7
				c0-0.1,0-0.1-0.1-0.1h-7c-0.1,0-0.1,0-0.1,0.1c0,0.7,0,5-0.2,6.7c-0.1,0.6-0.4,1.1-1,1.3l0,0l-7.9,2.5c-0.7,0.2-1.4,0.6-2,1
				c-3.2,2.4-3.3,6.2-3.4,6.9c0,0.1,0,0.1,0.1,0.1h18.1h18.1c0.1,0,0.1-0.1,0.1-0.1C739.2,332.2,739.2,328.5,736.2,326.2z"/>
			<g>
				<path class="st18" d="M709.4,324.7l-0.9,0.3c-0.7,0.2-1.4,0.6-2,1c-3.2,2.4-3.3,6.2-3.4,6.9c0,0.1,0,0.1,0.1,0.1h18.1h18.1
					c0.1,0,0.1-0.1,0.1-0.1c-0.1-0.7-0.2-4.4-3.2-6.7c-0.7-0.6-1.5-1-2.3-1.2l-0.9-0.3c-3.6,1.3-7.6,2-11.8,2
					C717,326.6,713,325.9,709.4,324.7z"/>
				<path class="st16" d="M725,321.2c-0.3-1.6-0.3-6-0.2-6.7c0-0.1,0-0.1-0.1-0.1h-7c-0.1,0-0.1,0-0.1,0.1c0,0.7,0,5-0.2,6.7
					c-0.1,0.6-0.4,1.1-1,1.3l-7,2.2c3.6,1.3,7.6,2,11.8,2c4.2,0,8.2-0.7,11.8-2l-7-2.2C725.4,322.3,725.1,321.8,725,321.2z"/>
			</g>
			<g>
				<path class="st19" d="M724.8,318.2c0-1.5,0-2.9,0-3.3c0-0.1,0-0.1-0.1-0.1h-7c-0.1,0-0.1,0-0.1,0.1c0,0.4,0,1.8,0,3.3
					C719.9,319,722.5,319,724.8,318.2z"/>
			</g>
			<g>
				<path class="st16" d="M712.8,305.5c0.6,1.5,0.3,3.8-0.8,4.3c-1.1,0.4-2.4-1.1-3.1-2.6c-0.6-1.5-0.3-3.1,0.8-3.5
					C710.8,303.2,712.2,304,712.8,305.5z"/>
				<path class="st16" d="M729.6,305.5c-0.6,1.5-0.3,3.8,0.8,4.3c1.1,0.4,2.4-1.1,3.1-2.6c0.6-1.5,0.3-3.1-0.8-3.5
					C731.6,303.2,730.2,304,729.6,305.5z"/>
			</g>
			<path class="st16" d="M721.2,290.8c-10.7-0.4-10.8,9.8-10.7,13.1c0.1,2.4,1.1,6,1.6,7.7c0.3,1,0.8,1.9,1.6,2.7
				c2.8,2.7,7.5,3.6,7.5,3.6s4.7-0.9,7.5-3.6c0.8-0.7,1.3-1.7,1.6-2.7c0.5-1.8,1.5-5.3,1.6-7.7C732,300.6,731.9,290.4,721.2,290.8z"
				/>
			<g>
				<ellipse class="st20" cx="715.6" cy="304.8" rx="1.4" ry="1.6"/>
				<ellipse class="st20" cx="726.3" cy="304.8" rx="1.4" ry="1.6"/>
			</g>
			<linearGradient id="SVGID_6_" gradientUnits="userSpaceOnUse" x1="725.537" y1="292.8907" x2="732.6931" y2="304.2019">
				<stop  offset="0.3719" style="stop-color:#E57F39"/>
				<stop  offset="1" style="stop-color:#FFBA83"/>
			</linearGradient>
			<path class="st32" d="M726.9,291.7c2.2,0.2,4.2,1.8,5.2,3.7c1,2,1.3,4.3,1.1,6.5c-0.2,2.7-1,5.3-2.2,7.7c1.5-5.3-1.1-11-5.4-14.5
				c-0.8-0.6-0.9-2-0.3-2.8C725.9,291.6,726,291.6,726.9,291.7z"/>
			<g>
				<g>
					<path class="st22" d="M717.4,311.5c0.7,1.4,2.1,2.5,3.8,2.5c1.7,0,3.1-1,3.8-2.5H717.4z"/>
				</g>
			</g>
			<circle class="st23" cx="714.1" cy="308.7" r="1.5"/>
			<circle class="st23" cx="727.7" cy="308.7" r="1.5"/>
		</g>
		<linearGradient id="SVGID_7_" gradientUnits="userSpaceOnUse" x1="721.2659" y1="293.5399" x2="711.25" y2="311.4716">
			<stop  offset="0.5025" style="stop-color:#E57F39"/>
			<stop  offset="1" style="stop-color:#FFBA83"/>
		</linearGradient>
		<path class="st33" d="M729.3,293.5c-0.1,2-1.9,3.5-3.8,4.2s-3.8,0.7-5.7,1.2c-3,0.9-5.7,3.2-7.1,6.1c-1.4,3-1.5,6.5-0.3,9.6
			c-1.2-3.8-3.1-8.5-2.8-12.4s2.2-7.9,5-10.6s7.4-3,10.9-1.6C727.3,290.8,729.5,291.5,729.3,293.5z"/>
		<g>
			<g>
				<path class="st25" d="M780.3,325.9c-0.8-0.6-1.7-1-2.7-1.3l-1-0.3c0,0,0,0,0,0l-8.2-2.7c-0.7-0.2-1-0.7-1.1-1.3
					c-0.3-1.7-0.3-5.8-0.3-6.5c0-0.1-0.1-0.1-0.1-0.1h-0.4h-8.1H758c-0.1,0-0.1,0-0.1,0.1c0,0.7,0,4.7-0.3,6.5
					c-0.1,0.6-0.5,1.1-1.1,1.3l-8.2,2.7c0,0,0,0,0,0l-1.1,0.3c-0.8,0.2-1.7,0.6-2.4,1c-3.7,2.4-3.8,6.4-4,7.2c0,0.1,0,0.1,0.1,0.1
					h21.5h21.5c0.1,0,0.1-0.1,0.1-0.1C783.8,332.2,783.8,328.4,780.3,325.9z"/>
				<g>
					<path class="st26" d="M780.3,325.9c-0.8-0.6-1.7-1-2.7-1.3l-1-0.3c0,0,0,0,0,0l-7-2.3c-2.2,0.8-4.6,1.3-7.1,1.3
						s-4.9-0.5-7.1-1.3l-7,2.3c0,0,0,0,0,0l-1.1,0.3c-0.8,0.2-1.7,0.6-2.4,1c-3.7,2.4-3.8,6.4-4,7.2c0,0.1,0,0.1,0.1,0.1h21.5h21.5
						c0.1,0,0.1-0.1,0.1-0.1C783.8,332.2,783.8,328.4,780.3,325.9z"/>
				</g>
				<g>
					<path class="st27" d="M767.1,318.9c0-1.9-0.1-3.7-0.1-4.2c0-0.1-0.1-0.1-0.1-0.1H758c-0.1,0-0.1,0.1-0.1,0.1
						c0,0.5-0.1,2.3-0.1,4.2c0.6,0.7,3,1.6,4.6,1.6C764,320.5,766.4,319.4,767.1,318.9z"/>
				</g>
				<g>
					<path class="st25" d="M754,305.1c0.6,1.7,0.3,4.3-0.8,4.8c-1.1,0.5-2.4-1.3-3.1-3c-0.6-1.7-0.3-3.5,0.8-4
						C752,302.4,753.4,303.4,754,305.1z"/>
					<path class="st25" d="M770.8,305.1c-0.6,1.7-0.3,4.3,0.8,4.8c1.1,0.5,2.4-1.3,3.1-3s0.3-3.5-0.8-4
						C772.8,302.4,771.4,303.4,770.8,305.1z"/>
				</g>
				<path class="st25" d="M762.3,290.1c-10.6-0.4-10.7,9.8-10.6,13.1c0.1,2.4,0.7,6,1.2,7.7c0.3,1,0.8,2.7,1.6,3.4
					c2.1,2,4.6,3.7,6.2,4.3c0.3,0.1,0.9,0.2,1.6,0.2c0.6,0,1.3,0,1.6-0.2c1.6-0.6,4.1-2.3,6.2-4.3c0.8-0.7,1.3-2.4,1.6-3.4
					c0.5-1.8,1.1-5.3,1.2-7.7C773.1,299.9,772.9,289.8,762.3,290.1z"/>
				<g>
					<ellipse class="st20" cx="756.9" cy="304.1" rx="1.3" ry="1.6"/>
					<ellipse class="st20" cx="767.6" cy="304.1" rx="1.3" ry="1.6"/>
				</g>
				<g>
					<path class="st28" d="M764.3,316.3c-1-0.2-1.9-1.3-2-1.9c-0.1,0.6-1,1.7-2,1.9c-2.5,0.5-5.1-1.7-6.9-4c0.3,0.8,0.7,1.6,1.2,2.1
						c2.1,2,4.6,3.7,6.2,4.3c0.3,0.1,0.9,0.2,1.6,0.2c0.6,0,1.3,0,1.6-0.2c1.6-0.6,4.1-2.3,6.2-4.3c0.5-0.5,0.9-1.3,1.2-2.1
						C769.4,314.5,766.9,316.7,764.3,316.3z"/>
				</g>
				<path class="st29" d="M759.6,311c0.5,0.7,1.5,1.1,2.7,1.1s2.3-0.5,2.7-1.1"/>
			</g>
			<g>
				<g>
					<g>
						<path class="st28" d="M753,300.1c0.4-2,1.2-3.9,2.2-5.6c-0.3-0.5-0.9-0.6-1.4-0.4c-1.6,2.4-2,5.5-2,7.7
							c0.1,1.3,0.3,2.5,0.7,3.6C752.7,303.6,752.6,301.8,753,300.1z"/>
					</g>
				</g>
				<g>
					<g>
						<path class="st28" d="M771.8,300.1c-0.4-2-1.2-3.9-2.2-5.6c0.3-0.5,0.9-0.6,1.4-0.4c1.6,2.4,2,5.5,2,7.7
							c-0.1,1.3-0.3,2.5-0.7,3.6C772.1,303.6,772.2,301.8,771.8,300.1z"/>
					</g>
				</g>
			</g>
			<linearGradient id="SVGID_8_" gradientUnits="userSpaceOnUse" x1="753.2521" y1="292.5821" x2="773.5653" y2="292.5821">
				<stop  offset="0" style="stop-color:#B17338"/>
				<stop  offset="0.8643" style="stop-color:#E8AE5C"/>
			</linearGradient>
			<path class="st34" d="M763.5,295.9c2,0.5,4.1,0.9,6,0.1c1.9-0.7,3.5-2.6,4-4.7c-1.8,0.9-3.7-0.5-5.5-1.4
				c-4.3-2.2-9.8-1.1-13.2,2.6c-1.8,1.9-2.6,3.7,0.3,3.2C758.3,295.1,760.4,295.1,763.5,295.9z"/>
		</g>
		<g>
			<path class="st35" d="M663.1,236.4c-0.7-0.6-1.5-1-2.3-1.2l-7.9-2.5l0,0c-0.6-0.2-0.9-0.7-1-1.3c-0.3-1.6-0.3-6-0.2-6.7
				c0-0.1,0-0.1-0.1-0.1h-7c-0.1,0-0.1,0-0.1,0.1c0,0.7,0,5-0.2,6.7c-0.1,0.6-0.4,1.1-1,1.3l0,0l-7.9,2.5c-0.7,0.2-1.4,0.6-2,1
				c-3.2,2.4-3.3,6.2-3.4,6.9c0,0.1,0,0.1,0.1,0.1h18.1h18.1c0.1,0,0.1-0.1,0.1-0.1C666.2,242.5,666.1,238.8,663.1,236.4z"/>
			<path class="st35" d="M657.9,236.8c2.4,0.4,5-0.2,6.9-1.8c1.9-1.6,2.1-4.2,2.2-6.7c-1.6,1.3-4.2,0.4-5.3-1.5
				c-1.1-1.8-1.3-4.1-1-6.2c0.3-2.9,0.6-5.9,0.4-8.9c-0.2-3-0.9-5.9-2.5-8.4c-2.3-3.6-6.6-5.4-10.7-5.4s-8.4,1.8-10.7,5.4
				c-1.6,2.4-2.3,5.4-2.5,8.4c-0.2,3,0.1,5.9,0.4,8.9c0.2,2.1,0,4.3-1,6.2c-1.1,1.8-2.5,2.8-4.2,1.5c0.1,2.5,0.3,5.1,2.2,6.7
				c1.9,1.6,3.4,2.3,5.8,1.8H657.9z"/>
			<path class="st35" d="M663.1,236.4c-0.7-0.6-1.5-1-2.3-1.2l-7.9-2.5l0,0c-0.6-0.2-0.9-0.7-1-1.3c-0.3-1.6-0.3-6-0.2-6.7
				c0-0.1,0-0.1-0.1-0.1h-7c-0.1,0-0.1,0-0.1,0.1c0,0.7,0,5-0.2,6.7c-0.1,0.6-0.4,1.1-1,1.3l0,0l-7.9,2.5c-0.7,0.2-1.4,0.6-2,1
				c-3.2,2.4-3.3,6.2-3.4,6.9c0,0.1,0,0.1,0.1,0.1h18.1h18.1c0.1,0,0.1-0.1,0.1-0.1C666.2,242.5,666.1,238.8,663.1,236.4z"/>
			<g>
				<path class="st35" d="M636.3,234.9l-0.9,0.3c-0.7,0.2-1.4,0.6-2,1c-3.2,2.4-3.3,6.2-3.4,6.9c0,0.1,0,0.1,0.1,0.1h18.1h18.1
					c0.1,0,0.1-0.1,0.1-0.1c-0.1-0.7-0.2-4.4-3.2-6.7c-0.7-0.6-1.5-1-2.3-1.2l-0.9-0.3c-3.6,1.3-7.6,2-11.8,2
					C643.9,236.9,639.9,236.2,636.3,234.9z"/>
				<path class="st35" d="M651.9,231.5c-0.3-1.6-0.3-6-0.2-6.7c0-0.1,0-0.1-0.1-0.1h-7c-0.1,0-0.1,0-0.1,0.1c0,0.7,0,5-0.2,6.7
					c-0.1,0.6-0.4,1.1-1,1.3l-7,2.2c3.6,1.3,7.6,2,11.8,2c4.2,0,8.2-0.7,11.8-2l-7-2.2C652.3,232.6,652,232.1,651.9,231.5z"/>
			</g>
			<g>
				<path class="st35" d="M651.7,228.4c0-1.5,0-2.9,0-3.3c0-0.1,0-0.1-0.1-0.1h-7c-0.1,0-0.1,0-0.1,0.1c0,0.4,0,1.8,0,3.3
					C646.8,229.2,649.4,229.2,651.7,228.4z"/>
			</g>
			<g>
				<path class="st35" d="M639.7,215.8c0.6,1.5,0.3,3.8-0.8,4.3c-1.1,0.4-2.4-1.1-3.1-2.6c-0.6-1.5-0.3-3.1,0.8-3.5
					C637.7,213.5,639.1,214.3,639.7,215.8z"/>
				<path class="st35" d="M656.5,215.8c-0.6,1.5-0.3,3.8,0.8,4.3c1.1,0.4,2.4-1.1,3.1-2.6s0.3-3.1-0.8-3.5
					C658.5,213.5,657.1,214.3,656.5,215.8z"/>
			</g>
			<path class="st35" d="M648.1,201.1c-10.7-0.4-10.8,9.8-10.7,13.1c0.1,2.4,1.1,6,1.6,7.7c0.3,1,0.8,1.9,1.6,2.7
				c2.8,2.7,7.5,3.6,7.5,3.6s4.7-0.9,7.5-3.6c0.8-0.7,1.3-1.7,1.6-2.7c0.5-1.8,1.5-5.3,1.6-7.7C658.9,210.9,658.8,200.7,648.1,201.1
				z"/>
			<g>
				<ellipse class="st35" cx="642.5" cy="215.1" rx="1.4" ry="1.6"/>
				<ellipse class="st35" cx="653.3" cy="215.1" rx="1.4" ry="1.6"/>
			</g>
			<path class="st35" d="M653.9,202c2.2,0.2,4.2,1.8,5.2,3.7c1,2,1.3,4.3,1.1,6.5c-0.2,2.7-1,5.3-2.2,7.7c1.5-5.3-1.1-11-5.4-14.5
				c-0.8-0.6-0.9-2-0.3-2.8S652.9,201.9,653.9,202z"/>
			<g>
				<g>
					<path class="st35" d="M644.3,221.8c0.7,1.4,2.1,2.5,3.8,2.5s3.1-1,3.8-2.5H644.3z"/>
				</g>
			</g>
			<circle class="st35" cx="641" cy="219" r="1.5"/>
			<circle class="st35" cx="654.6" cy="219" r="1.5"/>
		</g>
		<path class="st35" d="M656.3,203.8c-0.1,2-1.9,3.5-3.8,4.2c-1.8,0.6-3.8,0.7-5.7,1.2c-3,0.9-5.7,3.2-7.1,6.1
			c-1.4,3-1.5,6.5-0.3,9.6c-1.2-3.8-3.1-8.5-2.8-12.4c0.3-4,2.2-7.9,5-10.6c2.8-2.7,7.4-3,10.9-1.6
			C654.2,201.1,656.4,201.8,656.3,203.8z"/>
		<g>
			<g>
				<path class="st35" d="M620.9,236.2c-0.8-0.6-1.7-1-2.7-1.3l-1-0.3c0,0,0,0,0,0L609,232c-0.7-0.2-1-0.7-1.1-1.3
					c-0.3-1.7-0.3-5.8-0.3-6.5c0-0.1-0.1-0.1-0.1-0.1H607h-8.1h-0.4c-0.1,0-0.1,0-0.1,0.1c0,0.7,0,4.7-0.3,6.5
					c-0.1,0.6-0.5,1.1-1.1,1.3l-8.2,2.7c0,0,0,0,0,0l-1.1,0.3c-0.8,0.2-1.7,0.6-2.4,1c-3.7,2.4-3.8,6.4-4,7.2c0,0.1,0,0.1,0.1,0.1
					H603h21.5c0.1,0,0.1-0.1,0.1-0.1C624.4,242.4,624.3,238.7,620.9,236.2z"/>
				<g>
					<path class="st35" d="M620.9,236.2c-0.8-0.6-1.7-1-2.7-1.3l-1-0.3c0,0,0,0,0,0l-7-2.3c-2.2,0.8-4.6,1.3-7.1,1.3
						s-4.9-0.5-7.1-1.3l-7,2.3c0,0,0,0,0,0l-1.1,0.3c-0.8,0.2-1.7,0.6-2.4,1c-3.7,2.4-3.8,6.4-4,7.2c0,0.1,0,0.1,0.1,0.1H603h21.5
						c0.1,0,0.1-0.1,0.1-0.1C624.4,242.4,624.3,238.7,620.9,236.2z"/>
				</g>
				<g>
					<path class="st35" d="M607.6,229.1c0-1.9-0.1-3.7-0.1-4.2c0-0.1-0.1-0.1-0.1-0.1h-8.9c-0.1,0-0.1,0.1-0.1,0.1
						c0,0.5-0.1,2.3-0.1,4.2c0.6,0.7,3,1.6,4.6,1.6C604.5,230.8,607,229.7,607.6,229.1z"/>
				</g>
				<g>
					<path class="st35" d="M594.6,215.4c0.6,1.7,0.3,4.3-0.8,4.8c-1.1,0.5-2.4-1.3-3.1-3c-0.6-1.7-0.3-3.5,0.8-4
						C592.6,212.7,594,213.7,594.6,215.4z"/>
					<path class="st35" d="M611.4,215.4c-0.6,1.7-0.3,4.3,0.8,4.8c1.1,0.5,2.4-1.3,3.1-3s0.3-3.5-0.8-4
						C613.4,212.7,612,213.7,611.4,215.4z"/>
				</g>
				<path class="st35" d="M602.9,200.4c-10.6-0.4-10.7,9.8-10.6,13.1c0.1,2.4,0.7,6,1.2,7.7c0.3,1,0.8,2.7,1.6,3.4
					c2.1,2,4.6,3.7,6.2,4.3c0.3,0.1,0.9,0.2,1.6,0.2c0.6,0,1.3,0,1.6-0.2c1.6-0.6,4.1-2.3,6.2-4.3c0.8-0.7,1.3-2.4,1.6-3.4
					c0.5-1.8,1.1-5.3,1.2-7.7C613.6,210.2,613.5,200.1,602.9,200.4z"/>
				<g>
					<ellipse class="st35" cx="597.4" cy="214.4" rx="1.3" ry="1.6"/>
					<ellipse class="st35" cx="608.1" cy="214.4" rx="1.3" ry="1.6"/>
				</g>
				<g>
					<path class="st35" d="M604.9,226.6c-1-0.2-1.9-1.3-2-1.9c-0.1,0.6-1,1.7-2,1.9c-2.5,0.5-5.1-1.7-6.9-4c0.3,0.8,0.7,1.6,1.2,2.1
						c2.1,2,4.6,3.7,6.2,4.3c0.3,0.1,0.9,0.2,1.6,0.2c0.6,0,1.3,0,1.6-0.2c1.6-0.6,4.1-2.3,6.2-4.3c0.5-0.5,0.9-1.3,1.2-2.1
						C610,224.8,607.4,227,604.9,226.6z"/>
				</g>
				<path class="st35" d="M600.2,221.2c0.5,0.7,1.5,1.1,2.7,1.1s2.3-0.5,2.7-1.1"/>
			</g>
			<g>
				<g>
					<g>
						<path class="st35" d="M593.6,210.4c0.4-2,1.2-3.9,2.2-5.6c-0.3-0.5-0.9-0.6-1.4-0.4c-1.6,2.4-2,5.5-2,7.7
							c0.1,1.3,0.3,2.5,0.7,3.6C593.3,213.9,593.2,212.1,593.6,210.4z"/>
					</g>
				</g>
				<g>
					<g>
						<path class="st35" d="M612.4,210.4c-0.4-2-1.2-3.9-2.2-5.6c0.3-0.5,0.9-0.6,1.4-0.4c1.6,2.4,2,5.5,2,7.7
							c-0.1,1.3-0.3,2.5-0.7,3.6C612.7,213.9,612.8,212.1,612.4,210.4z"/>
					</g>
				</g>
			</g>
			<path class="st35" d="M604,206.2c2,0.5,4.1,0.9,6,0.1c1.9-0.7,3.5-2.6,4-4.7c-1.8,0.9-3.7-0.5-5.5-1.4c-4.3-2.2-9.8-1.1-13.2,2.6
				c-1.8,1.9-2.6,3.7,0.3,3.2C598.8,205.4,600.9,205.4,604,206.2z"/>
		</g>
		<g>
			<path class="st35" d="M915.1,317.2c-0.7-0.6-1.5-1-2.3-1.2l-7.9-2.5l0,0c-0.6-0.2-0.9-0.7-1-1.3c-0.3-1.6-0.3-6-0.2-6.7
				c0-0.1,0-0.1-0.1-0.1h-7c-0.1,0-0.1,0-0.1,0.1c0,0.7,0,5-0.2,6.7c-0.1,0.6-0.4,1.1-1,1.3l0,0l-7.9,2.5c-0.7,0.2-1.4,0.6-2,1
				c-3.2,2.4-3.3,6.2-3.4,6.9c0,0.1,0,0.1,0.1,0.1h18.1h18.1c0.1,0,0.1-0.1,0.1-0.1C918.2,323.2,918.1,319.5,915.1,317.2z"/>
			<path class="st35" d="M909.9,317.5c2.4,0.4,5-0.2,6.9-1.8c1.9-1.6,2.1-4.2,2.2-6.7c-1.6,1.3-4.2,0.4-5.3-1.5
				c-1.1-1.8-1.3-4.1-1-6.2c0.3-2.9,0.6-5.9,0.4-8.9c-0.2-3-0.9-5.9-2.5-8.4c-2.3-3.6-6.6-5.4-10.7-5.4s-8.4,1.8-10.7,5.4
				c-1.6,2.4-2.3,5.4-2.5,8.4c-0.2,3,0.1,5.9,0.4,8.9c0.2,2.1,0,4.3-1,6.2c-1.1,1.8-2.5,2.8-4.2,1.5c0.1,2.5,0.3,5.1,2.2,6.7
				s3.4,2.3,5.8,1.8H909.9z"/>
			<path class="st35" d="M915.1,317.2c-0.7-0.6-1.5-1-2.3-1.2l-7.9-2.5l0,0c-0.6-0.2-0.9-0.7-1-1.3c-0.3-1.6-0.3-6-0.2-6.7
				c0-0.1,0-0.1-0.1-0.1h-7c-0.1,0-0.1,0-0.1,0.1c0,0.7,0,5-0.2,6.7c-0.1,0.6-0.4,1.1-1,1.3l0,0l-7.9,2.5c-0.7,0.2-1.4,0.6-2,1
				c-3.2,2.4-3.3,6.2-3.4,6.9c0,0.1,0,0.1,0.1,0.1h18.1h18.1c0.1,0,0.1-0.1,0.1-0.1C918.2,323.2,918.1,319.5,915.1,317.2z"/>
			<g>
				<path class="st35" d="M888.3,315.7l-0.9,0.3c-0.7,0.2-1.4,0.6-2,1c-3.2,2.4-3.3,6.2-3.4,6.9c0,0.1,0,0.1,0.1,0.1h18.1h18.1
					c0.1,0,0.1-0.1,0.1-0.1c-0.1-0.7-0.2-4.4-3.2-6.7c-0.7-0.6-1.5-1-2.3-1.2l-0.9-0.3c-3.6,1.3-7.6,2-11.8,2
					C895.9,317.6,891.9,316.9,888.3,315.7z"/>
				<path class="st35" d="M903.9,312.2c-0.3-1.6-0.3-6-0.2-6.7c0-0.1,0-0.1-0.1-0.1h-7c-0.1,0-0.1,0-0.1,0.1c0,0.7,0,5-0.2,6.7
					c-0.1,0.6-0.4,1.1-1,1.3l-7,2.2c3.6,1.3,7.6,2,11.8,2c4.2,0,8.2-0.7,11.8-2l-7-2.2C904.3,313.3,904,312.8,903.9,312.2z"/>
			</g>
			<g>
				<path class="st35" d="M903.7,309.2c0-1.5,0-2.9,0-3.3c0-0.1,0-0.1-0.1-0.1h-7c-0.1,0-0.1,0-0.1,0.1c0,0.4,0,1.8,0,3.3
					C898.8,310,901.4,310,903.7,309.2z"/>
			</g>
			<g>
				<path class="st35" d="M891.7,296.5c0.6,1.5,0.3,3.8-0.8,4.3c-1.1,0.4-2.4-1.1-3.1-2.6c-0.6-1.5-0.3-3.1,0.8-3.5
					C889.7,294.2,891.1,295,891.7,296.5z"/>
				<path class="st35" d="M908.5,296.5c-0.6,1.5-0.3,3.8,0.8,4.3c1.1,0.4,2.4-1.1,3.1-2.6c0.6-1.5,0.3-3.1-0.8-3.5
					C910.5,294.2,909.1,295,908.5,296.5z"/>
			</g>
			<path class="st35" d="M900.1,281.8c-10.7-0.4-10.8,9.8-10.7,13.1c0.1,2.4,1.1,6,1.6,7.7c0.3,1,0.8,1.9,1.6,2.7
				c2.8,2.7,7.5,3.6,7.5,3.6s4.7-0.9,7.5-3.6c0.8-0.7,1.3-1.7,1.6-2.7c0.5-1.8,1.5-5.3,1.6-7.7C910.9,291.6,910.8,281.4,900.1,281.8
				z"/>
			<g>
				<ellipse class="st35" cx="894.5" cy="295.8" rx="1.4" ry="1.6"/>
				<ellipse class="st35" cx="905.3" cy="295.8" rx="1.4" ry="1.6"/>
			</g>
			<path class="st35" d="M905.9,282.7c2.2,0.2,4.2,1.8,5.2,3.7c1,2,1.3,4.3,1.1,6.5c-0.2,2.7-1,5.3-2.2,7.7c1.5-5.3-1.1-11-5.4-14.5
				c-0.8-0.6-0.9-2-0.3-2.8C904.8,282.6,904.9,282.6,905.9,282.7z"/>
			<g>
				<g>
					<path class="st35" d="M896.3,302.5c0.7,1.4,2.1,2.5,3.8,2.5s3.1-1,3.8-2.5H896.3z"/>
				</g>
			</g>
			<circle class="st35" cx="893" cy="299.7" r="1.5"/>
			<circle class="st35" cx="906.6" cy="299.7" r="1.5"/>
		</g>
		<path class="st35" d="M908.3,284.5c-0.1,2-1.9,3.5-3.8,4.2c-1.8,0.6-3.8,0.7-5.7,1.2c-3,0.9-5.7,3.2-7.1,6.1
			c-1.4,3-1.5,6.5-0.3,9.6c-1.2-3.8-3.1-8.5-2.8-12.4c0.3-4,2.2-7.9,5-10.6c2.8-2.7,7.4-3,10.9-1.6
			C906.2,281.8,908.4,282.5,908.3,284.5z"/>
		<g>
			<g>
				<path class="st35" d="M872.9,316.9c-0.8-0.6-1.7-1-2.7-1.3l-1-0.3c0,0,0,0,0,0l-8.2-2.7c-0.7-0.2-1-0.7-1.1-1.3
					c-0.3-1.7-0.3-5.8-0.3-6.5c0-0.1-0.1-0.1-0.1-0.1H859h-8.1h-0.4c-0.1,0-0.1,0-0.1,0.1c0,0.7,0,4.7-0.3,6.5
					c-0.1,0.6-0.5,1.1-1.1,1.3l-8.2,2.7c0,0,0,0,0,0l-1.1,0.3c-0.8,0.2-1.7,0.6-2.4,1c-3.7,2.4-3.8,6.4-4,7.2c0,0.1,0,0.1,0.1,0.1
					H855h21.5c0.1,0,0.1-0.1,0.1-0.1C876.4,323.2,876.3,319.4,872.9,316.9z"/>
				<g>
					<path class="st35" d="M872.9,316.9c-0.8-0.6-1.7-1-2.7-1.3l-1-0.3c0,0,0,0,0,0l-7-2.3c-2.2,0.8-4.6,1.3-7.1,1.3
						s-4.9-0.5-7.1-1.3l-7,2.3c0,0,0,0,0,0l-1.1,0.3c-0.8,0.2-1.7,0.6-2.4,1c-3.7,2.4-3.8,6.4-4,7.2c0,0.1,0,0.1,0.1,0.1H855h21.5
						c0.1,0,0.1-0.1,0.1-0.1C876.4,323.2,876.3,319.4,872.9,316.9z"/>
				</g>
				<g>
					<path class="st35" d="M859.6,309.9c0-1.9-0.1-3.7-0.1-4.2c0-0.1-0.1-0.1-0.1-0.1h-8.9c-0.1,0-0.1,0.1-0.1,0.1
						c0,0.5-0.1,2.3-0.1,4.2c0.6,0.7,3,1.6,4.6,1.6C856.5,311.5,859,310.4,859.6,309.9z"/>
				</g>
				<g>
					<path class="st35" d="M846.6,296.1c0.6,1.7,0.3,4.3-0.8,4.8c-1.1,0.5-2.4-1.3-3.1-3c-0.6-1.7-0.3-3.5,0.8-4
						C844.6,293.4,846,294.4,846.6,296.1z"/>
					<path class="st35" d="M863.4,296.1c-0.6,1.7-0.3,4.3,0.8,4.8c1.1,0.5,2.4-1.3,3.1-3s0.3-3.5-0.8-4
						C865.4,293.4,864,294.4,863.4,296.1z"/>
				</g>
				<path class="st35" d="M854.9,281.1c-10.6-0.4-10.7,9.8-10.6,13.1c0.1,2.4,0.7,6,1.2,7.7c0.3,1,0.8,2.7,1.6,3.4
					c2.1,2,4.6,3.7,6.2,4.3c0.3,0.1,0.9,0.2,1.6,0.2c0.6,0,1.3,0,1.6-0.2c1.6-0.6,4.1-2.3,6.2-4.3c0.8-0.7,1.3-2.4,1.6-3.4
					c0.5-1.8,1.1-5.3,1.2-7.7C865.6,290.9,865.5,280.8,854.9,281.1z"/>
				<g>
					<ellipse class="st35" cx="849.4" cy="295.1" rx="1.3" ry="1.6"/>
					<ellipse class="st35" cx="860.1" cy="295.1" rx="1.3" ry="1.6"/>
				</g>
				<g>
					<path class="st35" d="M856.9,307.3c-1-0.2-1.9-1.3-2-1.9c-0.1,0.6-1,1.7-2,1.9c-2.5,0.5-5.1-1.7-6.9-4c0.3,0.8,0.7,1.6,1.2,2.1
						c2.1,2,4.6,3.7,6.2,4.3c0.3,0.1,0.9,0.2,1.6,0.2c0.6,0,1.3,0,1.6-0.2c1.6-0.6,4.1-2.3,6.2-4.3c0.5-0.5,0.9-1.3,1.2-2.1
						C862,305.5,859.4,307.7,856.9,307.3z"/>
				</g>
				<path class="st35" d="M852.2,302c0.5,0.7,1.5,1.1,2.7,1.1s2.3-0.5,2.7-1.1"/>
			</g>
			<g>
				<g>
					<g>
						<path class="st35" d="M845.6,291.1c0.4-2,1.2-3.9,2.2-5.6c-0.3-0.5-0.9-0.6-1.4-0.4c-1.6,2.4-2,5.5-2,7.7
							c0.1,1.3,0.3,2.5,0.7,3.6C845.3,294.6,845.2,292.8,845.6,291.1z"/>
					</g>
				</g>
				<g>
					<g>
						<path class="st35" d="M864.4,291.1c-0.4-2-1.2-3.9-2.2-5.6c0.3-0.5,0.9-0.6,1.4-0.4c1.6,2.4,2,5.5,2,7.7
							c-0.1,1.3-0.3,2.5-0.7,3.6C864.7,294.6,864.8,292.8,864.4,291.1z"/>
					</g>
				</g>
			</g>
			<path class="st35" d="M856,286.9c2,0.5,4.1,0.9,6,0.1c1.9-0.7,3.5-2.6,4-4.7c-1.8,0.9-3.7-0.5-5.5-1.4c-4.3-2.2-9.8-1.1-13.2,2.6
				c-1.8,1.9-2.6,3.7,0.3,3.2C850.8,286.1,852.9,286.1,856,286.9z"/>
		</g>
		<g>
			<g>
				<path class="st35" d="M636.3,316.9c-0.8-0.6-1.7-1-2.7-1.3l-1-0.3c0,0,0,0,0,0l-8.2-2.7c-0.7-0.2-1-0.7-1.1-1.3
					c-0.3-1.7-0.3-5.8-0.3-6.5c0-0.1-0.1-0.1-0.1-0.1h-0.4h-8.1H614c-0.1,0-0.1,0-0.1,0.1c0,0.7,0,4.7-0.3,6.5
					c-0.1,0.6-0.5,1.1-1.1,1.3l-8.2,2.7c0,0,0,0,0,0l-1.1,0.3c-0.8,0.2-1.7,0.6-2.4,1c-3.7,2.4-3.8,6.4-4,7.2c0,0.1,0,0.1,0.1,0.1
					h21.5h21.5c0.1,0,0.1-0.1,0.1-0.1C639.8,323.2,639.8,319.4,636.3,316.9z"/>
				<g>
					<path class="st35" d="M636.3,316.9c-0.8-0.6-1.7-1-2.7-1.3l-1-0.3c0,0,0,0,0,0l-7-2.3c-2.2,0.8-4.6,1.3-7.1,1.3
						s-4.9-0.5-7.1-1.3l-7,2.3c0,0,0,0,0,0l-1.1,0.3c-0.8,0.2-1.7,0.6-2.4,1c-3.7,2.4-3.8,6.4-4,7.2c0,0.1,0,0.1,0.1,0.1h21.5h21.5
						c0.1,0,0.1-0.1,0.1-0.1C639.8,323.2,639.8,319.4,636.3,316.9z"/>
				</g>
				<g>
					<path class="st35" d="M623.1,309.9c0-1.9-0.1-3.7-0.1-4.2c0-0.1-0.1-0.1-0.1-0.1H614c-0.1,0-0.1,0.1-0.1,0.1
						c0,0.5-0.1,2.3-0.1,4.2c0.6,0.7,3,1.6,4.6,1.6C620,311.5,622.4,310.4,623.1,309.9z"/>
				</g>
				<g>
					<path class="st35" d="M610,296.1c0.6,1.7,0.3,4.3-0.8,4.8c-1.1,0.5-2.4-1.3-3.1-3c-0.6-1.7-0.3-3.5,0.8-4
						C608,293.4,609.4,294.4,610,296.1z"/>
					<path class="st35" d="M626.8,296.1c-0.6,1.7-0.3,4.3,0.8,4.8c1.1,0.5,2.4-1.3,3.1-3s0.3-3.5-0.8-4
						C628.8,293.4,627.4,294.4,626.8,296.1z"/>
				</g>
				<path class="st35" d="M618.3,281.1c-10.6-0.4-10.7,9.8-10.6,13.1c0.1,2.4,0.7,6,1.2,7.7c0.3,1,0.8,2.7,1.6,3.4
					c2.1,2,4.6,3.7,6.2,4.3c0.3,0.1,0.9,0.2,1.6,0.2c0.6,0,1.3,0,1.6-0.2c1.6-0.6,4.1-2.3,6.2-4.3c0.8-0.7,1.3-2.4,1.6-3.4
					c0.5-1.8,1.1-5.3,1.2-7.7C629.1,290.9,628.9,280.8,618.3,281.1z"/>
				<g>
					<ellipse class="st35" cx="612.9" cy="295.1" rx="1.3" ry="1.6"/>
					<ellipse class="st35" cx="623.6" cy="295.1" rx="1.3" ry="1.6"/>
				</g>
				<g>
					<path class="st35" d="M620.3,307.3c-1-0.2-1.9-1.3-2-1.9c-0.1,0.6-1,1.7-2,1.9c-2.5,0.5-5.1-1.7-6.9-4c0.3,0.8,0.7,1.6,1.2,2.1
						c2.1,2,4.6,3.7,6.2,4.3c0.3,0.1,0.9,0.2,1.6,0.2c0.6,0,1.3,0,1.6-0.2c1.6-0.6,4.1-2.3,6.2-4.3c0.5-0.5,0.9-1.3,1.2-2.1
						C625.4,305.5,622.9,307.7,620.3,307.3z"/>
				</g>
				<path class="st35" d="M615.6,302c0.5,0.7,1.5,1.1,2.7,1.1s2.3-0.5,2.7-1.1"/>
			</g>
			<g>
				<g>
					<g>
						<path class="st35" d="M609,291.1c0.4-2,1.2-3.9,2.2-5.6c-0.3-0.5-0.9-0.6-1.4-0.4c-1.6,2.4-2,5.5-2,7.7
							c0.1,1.3,0.3,2.5,0.7,3.6C608.7,294.6,608.6,292.8,609,291.1z"/>
					</g>
				</g>
				<g>
					<g>
						<path class="st35" d="M627.8,291.1c-0.4-2-1.2-3.9-2.2-5.6c0.3-0.5,0.9-0.6,1.4-0.4c1.6,2.4,2,5.5,2,7.7
							c-0.1,1.3-0.3,2.5-0.7,3.6C628.1,294.6,628.2,292.8,627.8,291.1z"/>
					</g>
				</g>
			</g>
			<path class="st35" d="M619.5,286.9c2,0.5,4.1,0.9,6,0.1c1.9-0.7,3.5-2.6,4-4.7c-1.8,0.9-3.7-0.5-5.5-1.4
				c-4.3-2.2-9.8-1.1-13.2,2.6c-1.8,1.9-2.6,3.7,0.3,3.2C614.3,286.1,616.4,286.1,619.5,286.9z"/>
		</g>
		<g>
			<g>
				<path class="st35" d="M904.5,235.9c-0.8-0.6-1.7-1-2.7-1.3l-1-0.3c0,0,0,0,0,0l-8.2-2.7c-0.7-0.2-1-0.7-1.1-1.3
					c-0.3-1.7-0.3-5.8-0.3-6.5c0-0.1-0.1-0.1-0.1-0.1h-0.4h-8.1h-0.4c-0.1,0-0.1,0-0.1,0.1c0,0.7,0,4.7-0.3,6.5
					c-0.1,0.6-0.5,1.1-1.1,1.3l-8.2,2.7c0,0,0,0,0,0l-1.1,0.3c-0.8,0.2-1.7,0.6-2.4,1c-3.7,2.4-3.8,6.4-4,7.2c0,0.1,0,0.1,0.1,0.1
					h21.5H908c0.1,0,0.1-0.1,0.1-0.1C908,242.2,907.9,238.4,904.5,235.9z"/>
				<g>
					<path class="st35" d="M904.5,235.9c-0.8-0.6-1.7-1-2.7-1.3l-1-0.3c0,0,0,0,0,0l-7-2.3c-2.2,0.8-4.6,1.3-7.1,1.3
						s-4.9-0.5-7.1-1.3l-7,2.3c0,0,0,0,0,0l-1.1,0.3c-0.8,0.2-1.7,0.6-2.4,1c-3.7,2.4-3.8,6.4-4,7.2c0,0.1,0,0.1,0.1,0.1h21.5H908
						c0.1,0,0.1-0.1,0.1-0.1C908,242.2,907.9,238.4,904.5,235.9z"/>
				</g>
				<g>
					<path class="st35" d="M891.2,228.9c0-1.9-0.1-3.7-0.1-4.2c0-0.1-0.1-0.1-0.1-0.1h-8.9c-0.1,0-0.1,0.1-0.1,0.1
						c0,0.5-0.1,2.3-0.1,4.2c0.6,0.7,3,1.6,4.6,1.6C888.1,230.5,890.6,229.4,891.2,228.9z"/>
				</g>
				<g>
					<path class="st35" d="M878.2,215.1c0.6,1.7,0.3,4.3-0.8,4.8c-1.1,0.5-2.4-1.3-3.1-3c-0.6-1.7-0.3-3.5,0.8-4
						C876.2,212.4,877.6,213.4,878.2,215.1z"/>
					<path class="st35" d="M895,215.1c-0.6,1.7-0.3,4.3,0.8,4.8c1.1,0.5,2.4-1.3,3.1-3c0.6-1.7,0.3-3.5-0.8-4
						C897,212.4,895.6,213.4,895,215.1z"/>
				</g>
				<path class="st35" d="M886.5,200.1c-10.6-0.4-10.7,9.8-10.6,13.1c0.1,2.4,0.7,6,1.2,7.7c0.3,1,0.8,2.7,1.6,3.4
					c2.1,2,4.6,3.7,6.2,4.3c0.3,0.1,0.9,0.2,1.6,0.2c0.6,0,1.3,0,1.6-0.2c1.6-0.6,4.1-2.3,6.2-4.3c0.8-0.7,1.3-2.4,1.6-3.4
					c0.5-1.8,1.1-5.3,1.2-7.7C897.2,209.9,897,199.8,886.5,200.1z"/>
				<g>
					<ellipse class="st35" cx="881" cy="214.1" rx="1.3" ry="1.6"/>
					<ellipse class="st35" cx="891.7" cy="214.1" rx="1.3" ry="1.6"/>
				</g>
				<g>
					<path class="st35" d="M888.5,226.3c-1-0.2-1.9-1.3-2-1.9c-0.1,0.6-1,1.7-2,1.9c-2.5,0.5-5.1-1.7-6.9-4c0.3,0.8,0.7,1.6,1.2,2.1
						c2.1,2,4.6,3.7,6.2,4.3c0.3,0.1,0.9,0.2,1.6,0.2c0.6,0,1.3,0,1.6-0.2c1.6-0.6,4.1-2.3,6.2-4.3c0.5-0.5,0.9-1.3,1.2-2.1
						C893.6,224.5,891,226.7,888.5,226.3z"/>
				</g>
				<path class="st35" d="M883.8,221c0.5,0.7,1.5,1.1,2.7,1.1c1.2,0,2.3-0.5,2.7-1.1"/>
			</g>
			<g>
				<g>
					<g>
						<path class="st35" d="M877.2,210.1c0.4-2,1.2-3.9,2.2-5.6c-0.3-0.5-0.9-0.6-1.4-0.4c-1.6,2.4-2,5.5-2,7.7
							c0.1,1.3,0.3,2.5,0.7,3.6C876.9,213.6,876.8,211.8,877.2,210.1z"/>
					</g>
				</g>
				<g>
					<g>
						<path class="st35" d="M896,210.1c-0.4-2-1.2-3.9-2.2-5.6c0.3-0.5,0.9-0.6,1.4-0.4c1.6,2.4,2,5.5,2,7.7
							c-0.1,1.3-0.3,2.5-0.7,3.6C896.3,213.6,896.4,211.8,896,210.1z"/>
					</g>
				</g>
			</g>
			<path class="st35" d="M887.6,205.9c2,0.5,4.1,0.9,6,0.1c1.9-0.7,3.5-2.6,4-4.7c-1.8,0.9-3.7-0.5-5.5-1.4
				c-4.3-2.2-9.8-1.1-13.2,2.6c-1.8,1.9-2.6,3.7,0.3,3.2C882.4,205.1,884.5,205.1,887.6,205.9z"/>
		</g>
		<text transform="matrix(1 0 0 1 735.1123 262.698)" class="st36 st37 st38">MATCH</text>
		<rect x="725.5" y="108" class="st39" width="153" height="36"/>
		<g>
			<path class="st6" d="M768.4,121.6h-0.2c-0.1,0-0.3-0.1-0.5-0.1s-0.5-0.1-0.7-0.1c-0.6,0-1,0.1-1.3,0.3c-0.2,0.2-0.3,0.7-0.3,1.3
				v0.1h2.4v2.1h-2.3v7.7h-3.1v-7.7H761v-2.1h1.2v-0.3c0-1.2,0.3-2.1,0.9-2.7s1.6-0.9,2.9-0.9c0.4,0,0.9,0,1.2,0s0.7,0.1,1,0.1
				V121.6z"/>
			<path class="st6" d="M774.4,131.9c-0.2,0.2-0.4,0.3-0.6,0.5c-0.2,0.1-0.4,0.3-0.7,0.4c-0.3,0.1-0.5,0.2-0.8,0.3s-0.6,0.1-1.1,0.1
				c-0.9,0-1.6-0.3-2.2-0.9s-0.9-1.3-0.9-2.2c0-0.7,0.1-1.3,0.4-1.8s0.7-0.8,1.3-1.1c0.6-0.3,1.2-0.5,2-0.6s1.6-0.2,2.5-0.2v-0.1
				c0-0.5-0.2-0.9-0.6-1.1s-1-0.3-1.8-0.3c-0.4,0-0.8,0.1-1.3,0.2s-1,0.3-1.4,0.5H769v-2.4c0.3-0.1,0.8-0.2,1.5-0.3s1.4-0.2,2.1-0.2
				c1.7,0,2.9,0.3,3.7,0.8s1.2,1.4,1.2,2.6v6.7h-3.1V131.9z M774.4,130.4v-2.1c-0.5,0.1-0.9,0.1-1.3,0.1s-0.6,0.1-0.9,0.2
				c-0.3,0.1-0.5,0.2-0.6,0.4c-0.2,0.2-0.2,0.4-0.2,0.8c0,0.5,0.1,0.8,0.4,1s0.6,0.3,1.1,0.3c0.3,0,0.5-0.1,0.8-0.2
				S774.1,130.6,774.4,130.4z"/>
			<path class="st6" d="M784.5,133.2c-0.8,0-1.6-0.1-2.2-0.3c-0.7-0.2-1.3-0.5-1.8-0.9c-0.5-0.4-0.9-1-1.2-1.6s-0.4-1.4-0.4-2.3
				c0-0.9,0.1-1.7,0.4-2.4s0.7-1.2,1.2-1.6c0.5-0.4,1.1-0.7,1.7-0.9s1.4-0.3,2.1-0.3c0.5,0,1.1,0.1,1.6,0.2s1.1,0.3,1.6,0.6v2.6
				h-0.4c-0.1-0.1-0.3-0.2-0.5-0.4c-0.2-0.1-0.4-0.3-0.6-0.4c-0.2-0.1-0.5-0.2-0.8-0.3s-0.6-0.1-0.9-0.1c-0.8,0-1.4,0.3-1.8,0.8
				c-0.4,0.5-0.6,1.3-0.6,2.2c0,1,0.2,1.7,0.7,2.2c0.5,0.5,1.1,0.7,1.8,0.7c0.4,0,0.7,0,1-0.1s0.5-0.2,0.8-0.3
				c0.2-0.1,0.4-0.3,0.5-0.4s0.3-0.3,0.4-0.4h0.4v2.6c-0.2,0.1-0.4,0.2-0.6,0.3s-0.5,0.2-0.7,0.2c-0.3,0.1-0.6,0.1-0.8,0.2
				S785,133.2,784.5,133.2z"/>
			<path class="st6" d="M794.2,133.2c-1.9,0-3.3-0.4-4.3-1.3c-1-0.9-1.5-2.2-1.5-3.8c0-1.6,0.5-2.9,1.4-3.9s2.2-1.4,3.9-1.4
				c1.5,0,2.6,0.4,3.4,1.2s1.1,2,1.1,3.5v1.1h-6.7c0,0.5,0.1,0.8,0.3,1.1s0.4,0.6,0.7,0.7c0.3,0.2,0.6,0.3,0.9,0.4s0.7,0.1,1.2,0.1
				c0.4,0,0.7,0,1.1-0.1s0.7-0.2,0.9-0.3c0.3-0.1,0.5-0.2,0.7-0.4c0.2-0.1,0.4-0.2,0.5-0.3h0.3v2.5c-0.3,0.1-0.5,0.2-0.7,0.3
				c-0.2,0.1-0.5,0.2-0.9,0.3c-0.3,0.1-0.7,0.2-1,0.2S794.8,133.2,794.2,133.2z M795.3,126.7c0-0.7-0.2-1.1-0.5-1.5
				c-0.3-0.3-0.7-0.5-1.3-0.5c-0.6,0-1.1,0.2-1.4,0.5c-0.3,0.4-0.5,0.8-0.6,1.5H795.3z"/>
			<path class="st6" d="M809.6,127.9c0,1.6-0.4,2.8-1.2,3.8s-1.8,1.5-3,1.5c-0.5,0-0.9-0.1-1.3-0.2s-0.8-0.3-1.2-0.5l-0.1,0.5h-2.9
				v-13.7h3.1v4.8c0.5-0.4,0.9-0.7,1.4-0.9s1-0.4,1.6-0.4c1.1,0,2,0.4,2.7,1.3C809.2,125,809.6,126.3,809.6,127.9z M806.4,127.9
				c0-1-0.1-1.7-0.4-2.1s-0.8-0.6-1.4-0.6c-0.3,0-0.5,0-0.8,0.1c-0.3,0.1-0.5,0.2-0.8,0.4v5c0.2,0.1,0.4,0.1,0.6,0.2s0.4,0,0.6,0
				c0.7,0,1.3-0.2,1.7-0.7S806.4,128.9,806.4,127.9z"/>
			<path class="st6" d="M820.7,128c0,1.6-0.4,2.9-1.3,3.8c-0.9,0.9-2.1,1.4-3.8,1.4c-1.6,0-2.9-0.5-3.8-1.4s-1.3-2.2-1.3-3.8
				c0-1.6,0.4-2.9,1.3-3.9s2.1-1.4,3.8-1.4c1.6,0,2.9,0.5,3.8,1.4S820.7,126.4,820.7,128z M817.6,128c0-0.6,0-1.1-0.1-1.5
				c-0.1-0.4-0.2-0.7-0.4-0.9c-0.2-0.2-0.4-0.4-0.6-0.5s-0.5-0.1-0.8-0.1c-0.3,0-0.5,0-0.7,0.1s-0.4,0.2-0.6,0.5
				c-0.2,0.2-0.3,0.5-0.4,0.9s-0.2,0.9-0.2,1.5s0,1.1,0.1,1.5s0.2,0.7,0.4,0.9c0.2,0.2,0.4,0.4,0.6,0.5s0.5,0.2,0.8,0.2
				c0.2,0,0.5-0.1,0.8-0.2c0.3-0.1,0.5-0.3,0.6-0.5c0.2-0.3,0.3-0.6,0.4-0.9S817.6,128.6,817.6,128z"/>
			<path class="st6" d="M831.8,128c0,1.6-0.4,2.9-1.3,3.8c-0.9,0.9-2.1,1.4-3.8,1.4c-1.6,0-2.9-0.5-3.8-1.4s-1.3-2.2-1.3-3.8
				c0-1.6,0.4-2.9,1.3-3.9s2.1-1.4,3.8-1.4c1.6,0,2.9,0.5,3.8,1.4S831.8,126.4,831.8,128z M828.7,128c0-0.6,0-1.1-0.1-1.5
				c-0.1-0.4-0.2-0.7-0.4-0.9c-0.2-0.2-0.4-0.4-0.6-0.5s-0.5-0.1-0.8-0.1c-0.3,0-0.5,0-0.7,0.1s-0.4,0.2-0.6,0.5
				c-0.2,0.2-0.3,0.5-0.4,0.9s-0.2,0.9-0.2,1.5s0,1.1,0.1,1.5s0.2,0.7,0.4,0.9c0.2,0.2,0.4,0.4,0.6,0.5s0.5,0.2,0.8,0.2
				c0.2,0,0.5-0.1,0.8-0.2c0.3-0.1,0.5-0.3,0.6-0.5c0.2-0.3,0.3-0.6,0.4-0.9S828.7,128.6,828.7,128z"/>
			<path class="st6" d="M843.3,132.9h-3.7l-2.7-4.3l-0.5,0.6v3.7h-3.1v-13.7h3.1v7.7l2.9-3.9h3.6l-3.5,4.3L843.3,132.9z"/>
		</g>
		<circle class="st6" cx="991" cy="261" r="72"/>
		<circle class="st15" cx="991" cy="261" r="63"/>
		<g>
			<path class="st16" d="M1027.7,254.2c-0.7-0.6-1.5-1-2.3-1.2l-7.9-2.5l0,0c-0.6-0.2-0.9-0.7-1-1.3c-0.3-1.6-0.3-6-0.2-6.7
				c0-0.1,0-0.1-0.1-0.1h-7c-0.1,0-0.1,0-0.1,0.1c0,0.7,0,5-0.2,6.7c-0.1,0.6-0.4,1.1-1,1.3l0,0l-7.9,2.5c-0.7,0.2-1.4,0.6-2,1
				c-3.2,2.4-3.3,6.2-3.4,6.9c0,0.1,0,0.1,0.1,0.1h18.1h18.1c0.1,0,0.1-0.1,0.1-0.1C1030.8,260.2,1030.7,256.5,1027.7,254.2z"/>
			<linearGradient id="SVGID_9_" gradientUnits="userSpaceOnUse" x1="1013.0695" y1="249.5901" x2="1013.0695" y2="235.9732">
				<stop  offset="0.1608" style="stop-color:#D86D25"/>
				<stop  offset="0.6432" style="stop-color:#E57F39"/>
			</linearGradient>
			<path class="st40" d="M1022.5,254.5c2.4,0.4,5-0.2,6.9-1.8c1.9-1.6,2.1-4.2,2.2-6.7c-1.6,1.3-4.2,0.4-5.3-1.5s-1.3-4.1-1-6.2
				c0.3-2.9,0.6-5.9,0.4-8.9c-0.2-3-0.9-5.9-2.5-8.4c-2.3-3.6-6.6-5.4-10.7-5.4s-8.4,1.8-10.7,5.4c-1.6,2.4-2.3,5.4-2.5,8.4
				c-0.2,3,0.1,5.9,0.4,8.9c0.2,2.1,0,4.3-1,6.2c-1.1,1.8-2.5,2.8-4.2,1.5c0.1,2.5,0.3,5.1,2.2,6.7c1.9,1.6,3.4,2.3,5.8,1.8H1022.5z
				"/>
			<path class="st16" d="M1027.7,254.2c-0.7-0.6-1.5-1-2.3-1.2l-7.9-2.5l0,0c-0.6-0.2-0.9-0.7-1-1.3c-0.3-1.6-0.3-6-0.2-6.7
				c0-0.1,0-0.1-0.1-0.1h-7c-0.1,0-0.1,0-0.1,0.1c0,0.7,0,5-0.2,6.7c-0.1,0.6-0.4,1.1-1,1.3l0,0l-7.9,2.5c-0.7,0.2-1.4,0.6-2,1
				c-3.2,2.4-3.3,6.2-3.4,6.9c0,0.1,0,0.1,0.1,0.1h18.1h18.1c0.1,0,0.1-0.1,0.1-0.1C1030.8,260.2,1030.7,256.5,1027.7,254.2z"/>
			<g>
				<path class="st18" d="M1000.9,252.7l-0.9,0.3c-0.7,0.2-1.4,0.6-2,1c-3.2,2.4-3.3,6.2-3.4,6.9c0,0.1,0,0.1,0.1,0.1h18.1h18.1
					c0.1,0,0.1-0.1,0.1-0.1c-0.1-0.7-0.2-4.4-3.2-6.7c-0.7-0.6-1.5-1-2.3-1.2l-0.9-0.3c-3.6,1.3-7.6,2-11.8,2
					S1004.5,253.9,1000.9,252.7z"/>
				<path class="st16" d="M1016.5,249.2c-0.3-1.6-0.3-6-0.2-6.7c0-0.1,0-0.1-0.1-0.1h-7c-0.1,0-0.1,0-0.1,0.1c0,0.7,0,5-0.2,6.7
					c-0.1,0.6-0.4,1.1-1,1.3l-7,2.2c3.6,1.3,7.6,2,11.8,2s8.2-0.7,11.8-2l-7-2.2C1016.9,250.3,1016.6,249.8,1016.5,249.2z"/>
			</g>
			<g>
				<path class="st19" d="M1016.3,246.2c0-1.5,0-2.9,0-3.3c0-0.1,0-0.1-0.1-0.1h-7c-0.1,0-0.1,0-0.1,0.1c0,0.4,0,1.8,0,3.3
					C1011.4,247,1014,247,1016.3,246.2z"/>
			</g>
			<g>
				<path class="st16" d="M1004.3,233.5c0.6,1.5,0.3,3.8-0.8,4.3c-1.1,0.4-2.4-1.1-3.1-2.6s-0.3-3.1,0.8-3.5
					C1002.3,231.2,1003.7,232,1004.3,233.5z"/>
				<path class="st16" d="M1021.1,233.5c-0.6,1.5-0.3,3.8,0.8,4.3c1.1,0.4,2.4-1.1,3.1-2.6c0.6-1.5,0.3-3.1-0.8-3.5
					C1023.1,231.2,1021.7,232,1021.1,233.5z"/>
			</g>
			<path class="st16" d="M1012.7,218.8c-10.7-0.4-10.8,9.8-10.7,13.1c0.1,2.4,1.1,6,1.6,7.7c0.3,1,0.8,1.9,1.6,2.7
				c2.8,2.7,7.5,3.6,7.5,3.6s4.7-0.9,7.5-3.6c0.8-0.7,1.3-1.7,1.6-2.7c0.5-1.8,1.5-5.3,1.6-7.7
				C1023.5,228.6,1023.4,218.4,1012.7,218.8z"/>
			<g>
				<ellipse class="st20" cx="1007.1" cy="232.8" rx="1.4" ry="1.6"/>
				<ellipse class="st20" cx="1017.9" cy="232.8" rx="1.4" ry="1.6"/>
			</g>
			<linearGradient id="SVGID_10_" gradientUnits="userSpaceOnUse" x1="1017.0536" y1="220.8907" x2="1024.2097" y2="232.2019">
				<stop  offset="0.3719" style="stop-color:#E57F39"/>
				<stop  offset="1" style="stop-color:#FFBA83"/>
			</linearGradient>
			<path class="st41" d="M1018.5,219.7c2.2,0.2,4.2,1.8,5.2,3.7c1,2,1.3,4.3,1.1,6.5c-0.2,2.7-1,5.3-2.2,7.7
				c1.5-5.3-1.1-11-5.4-14.5c-0.8-0.6-0.9-2-0.3-2.8S1017.5,219.6,1018.5,219.7z"/>
			<g>
				<g>
					<path class="st22" d="M1008.9,239.5c0.7,1.4,2.1,2.5,3.8,2.5s3.1-1,3.8-2.5H1008.9z"/>
				</g>
			</g>
			<circle class="st23" cx="1005.6" cy="236.7" r="1.5"/>
			<circle class="st23" cx="1019.2" cy="236.7" r="1.5"/>
		</g>
		<linearGradient id="SVGID_11_" gradientUnits="userSpaceOnUse" x1="1012.7826" y1="221.54" x2="1002.7667" y2="239.4716">
			<stop  offset="0.5025" style="stop-color:#E57F39"/>
			<stop  offset="1" style="stop-color:#FFBA83"/>
		</linearGradient>
		<path class="st42" d="M1020.9,221.5c-0.1,2-1.9,3.5-3.8,4.2c-1.8,0.6-3.8,0.7-5.7,1.2c-3,0.9-5.7,3.2-7.1,6.1
			c-1.4,3-1.5,6.5-0.3,9.6c-1.2-3.8-3.1-8.5-2.8-12.4c0.3-4,2.2-7.9,5-10.6c2.8-2.7,7.4-3,10.9-1.6
			C1018.8,218.8,1021,219.5,1020.9,221.5z"/>
		<g>
			<g>
				<path class="st25" d="M985.5,253.9c-0.8-0.6-1.7-1-2.7-1.3l-1-0.3c0,0,0,0,0,0l-8.2-2.7c-0.7-0.2-1-0.7-1.1-1.3
					c-0.3-1.7-0.3-5.8-0.3-6.5c0-0.1-0.1-0.1-0.1-0.1h-0.4h-8.1h-0.4c-0.1,0-0.1,0-0.1,0.1c0,0.7,0,4.7-0.3,6.5
					c-0.1,0.6-0.5,1.1-1.1,1.3l-8.2,2.7c0,0,0,0,0,0l-1.1,0.3c-0.8,0.2-1.7,0.6-2.4,1c-3.7,2.4-3.8,6.4-4,7.2c0,0.1,0,0.1,0.1,0.1
					h21.5H989c0.1,0,0.1-0.1,0.1-0.1C989,260.2,988.9,256.4,985.5,253.9z"/>
				<g>
					<path class="st26" d="M985.5,253.9c-0.8-0.6-1.7-1-2.7-1.3l-1-0.3c0,0,0,0,0,0l-7-2.3c-2.2,0.8-4.6,1.3-7.1,1.3
						s-4.9-0.5-7.1-1.3l-7,2.3c0,0,0,0,0,0l-1.1,0.3c-0.8,0.2-1.7,0.6-2.4,1c-3.7,2.4-3.8,6.4-4,7.2c0,0.1,0,0.1,0.1,0.1h21.5H989
						c0.1,0,0.1-0.1,0.1-0.1C989,260.2,988.9,256.4,985.5,253.9z"/>
				</g>
				<g>
					<path class="st27" d="M972.2,246.9c0-1.9-0.1-3.7-0.1-4.2c0-0.1-0.1-0.1-0.1-0.1h-8.9c-0.1,0-0.1,0.1-0.1,0.1
						c0,0.5-0.1,2.3-0.1,4.2c0.6,0.7,3,1.6,4.6,1.6C969.1,248.5,971.6,247.4,972.2,246.9z"/>
				</g>
				<g>
					<path class="st25" d="M959.2,233.1c0.6,1.7,0.3,4.3-0.8,4.8c-1.1,0.5-2.4-1.3-3.1-3c-0.6-1.7-0.3-3.5,0.8-4
						C957.2,230.4,958.6,231.4,959.2,233.1z"/>
					<path class="st25" d="M976,233.1c-0.6,1.7-0.3,4.3,0.8,4.8c1.1,0.5,2.4-1.3,3.1-3c0.6-1.7,0.3-3.5-0.8-4
						C978,230.4,976.6,231.4,976,233.1z"/>
				</g>
				<path class="st25" d="M967.5,218.1c-10.6-0.4-10.7,9.8-10.6,13.1c0.1,2.4,0.7,6,1.2,7.7c0.3,1,0.8,2.7,1.6,3.4
					c2.1,2,4.6,3.7,6.2,4.3c0.3,0.1,0.9,0.2,1.6,0.2c0.6,0,1.3,0,1.6-0.2c1.6-0.6,4.1-2.3,6.2-4.3c0.8-0.7,1.3-2.4,1.6-3.4
					c0.5-1.8,1.1-5.3,1.2-7.7C978.2,227.9,978,217.8,967.5,218.1z"/>
				<g>
					<ellipse class="st20" cx="962" cy="232.1" rx="1.3" ry="1.6"/>
					<ellipse class="st20" cx="972.7" cy="232.1" rx="1.3" ry="1.6"/>
				</g>
				<g>
					<path class="st28" d="M969.5,244.3c-1-0.2-1.9-1.3-2-1.9c-0.1,0.6-1,1.7-2,1.9c-2.5,0.5-5.1-1.7-6.9-4c0.3,0.8,0.7,1.6,1.2,2.1
						c2.1,2,4.6,3.7,6.2,4.3c0.3,0.1,0.9,0.2,1.6,0.2c0.6,0,1.3,0,1.6-0.2c1.6-0.6,4.1-2.3,6.2-4.3c0.5-0.5,0.9-1.3,1.2-2.1
						C974.6,242.5,972,244.7,969.5,244.3z"/>
				</g>
				<path class="st29" d="M964.8,239c0.5,0.7,1.5,1.1,2.7,1.1c1.2,0,2.3-0.5,2.7-1.1"/>
			</g>
			<g>
				<g>
					<g>
						<path class="st28" d="M958.2,228.1c0.4-2,1.2-3.9,2.2-5.6c-0.3-0.5-0.9-0.6-1.4-0.4c-1.6,2.4-2,5.5-2,7.7
							c0.1,1.3,0.3,2.5,0.7,3.6C957.9,231.6,957.8,229.8,958.2,228.1z"/>
					</g>
				</g>
				<g>
					<g>
						<path class="st28" d="M977,228.1c-0.4-2-1.2-3.9-2.2-5.6c0.3-0.5,0.9-0.6,1.4-0.4c1.6,2.4,2,5.5,2,7.7
							c-0.1,1.3-0.3,2.5-0.7,3.6C977.3,231.6,977.4,229.8,977,228.1z"/>
					</g>
				</g>
			</g>
			<linearGradient id="SVGID_12_" gradientUnits="userSpaceOnUse" x1="958.3975" y1="220.5821" x2="978.7106" y2="220.5821">
				<stop  offset="0" style="stop-color:#B17338"/>
				<stop  offset="0.8643" style="stop-color:#E8AE5C"/>
			</linearGradient>
			<path class="st43" d="M968.6,223.9c2,0.5,4.1,0.9,6,0.1c1.9-0.7,3.5-2.6,4-4.7c-1.8,0.9-3.7-0.5-5.5-1.4
				c-4.3-2.2-9.8-1.1-13.2,2.6c-1.8,1.9-2.6,3.7,0.3,3.2C963.4,223.1,965.5,223.1,968.6,223.9z"/>
		</g>
		<g>
			<path class="st6" d="M961.9,277.2v1.7h-5.5v-8.4h1.9v6.7H961.9z"/>
			<path class="st6" d="M971.5,274.7c0,2.4-1.9,4.3-4.5,4.3c-2.6,0-4.5-1.8-4.5-4.3c0-2.4,1.9-4.3,4.5-4.3
				C969.6,270.4,971.5,272.3,971.5,274.7z M964.4,274.7c0,1.5,1.2,2.6,2.6,2.6s2.5-1.2,2.5-2.6c0-1.5-1.1-2.6-2.5-2.6
				C965.6,272.1,964.4,273.2,964.4,274.7z"/>
			<path class="st6" d="M981,274.7c0,2.4-1.9,4.3-4.5,4.3c-2.6,0-4.5-1.8-4.5-4.3c0-2.4,1.9-4.3,4.5-4.3
				C979,270.4,981,272.3,981,274.7z M973.9,274.7c0,1.5,1.2,2.6,2.6,2.6s2.5-1.2,2.5-2.6c0-1.5-1.1-2.6-2.5-2.6
				C975.1,272.1,973.9,273.2,973.9,274.7z"/>
			<path class="st6" d="M985.3,275.5l-1.2,1.3v2.1h-1.9v-8.4h1.9v3.8l3.5-3.8h2.2l-3.2,3.5l3.4,4.9h-2.3L985.3,275.5z"/>
			<path class="st6" d="M992.7,277.3l-0.7,1.6h-2l3.6-8.4h2l3.6,8.4h-2l-0.7-1.6H992.7z M994.7,272.5l-1.3,3.3h2.7L994.7,272.5z"/>
			<path class="st6" d="M1005.6,277.2v1.7h-5.5v-8.4h1.9v6.7H1005.6z"/>
			<path class="st6" d="M1006.8,278.9v-8.4h1.9v8.4H1006.8z"/>
			<path class="st6" d="M1013.6,275.5l-1.2,1.3v2.1h-1.9v-8.4h1.9v3.8l3.5-3.8h2.2l-3.2,3.5l3.4,4.9h-2.3L1013.6,275.5z"/>
			<path class="st6" d="M1021.3,272.1v1.8h4.1v1.6h-4.1v1.9h4.6v1.6h-6.5v-8.4h6.4v1.6H1021.3z"/>
			<path class="st6" d="M961.2,291.7l-0.7,1.6h-2l3.6-8.4h2l3.6,8.4h-2l-0.7-1.6H961.2z M963.1,286.9l-1.3,3.3h2.7L963.1,286.9z"/>
			<path class="st6" d="M975.8,289.8c0,2.2-1.5,3.6-3.8,3.6c-2.3,0-3.8-1.4-3.8-3.6v-4.9h1.9v4.9c0,1.2,0.8,1.9,1.9,1.9
				c1.1,0,1.9-0.7,1.9-1.9v-4.9h1.9V289.8z"/>
			<path class="st6" d="M981.1,284.9c2.6,0,4.4,1.7,4.4,4.2c0,2.5-1.8,4.2-4.5,4.2h-3.5v-8.4H981.1z M979.4,291.7h1.7
				c1.4,0,2.4-1.1,2.4-2.6c0-1.5-1.1-2.6-2.5-2.6h-1.6V291.7z"/>
			<path class="st6" d="M986.7,293.3v-8.4h1.9v8.4H986.7z"/>
			<path class="st6" d="M992.4,286.5v1.8h4.1v1.6h-4.1v1.9h4.6v1.6h-6.5v-8.4h6.4v1.6H992.4z"/>
			<path class="st6" d="M1004.4,293.3l-4.1-5.4v5.4h-1.8v-8.4h1.7l4.1,5.4v-5.4h1.8v8.4H1004.4z"/>
			<path class="st6" d="M1015.2,286.2l-1.1,1.3c-0.6-0.7-1.4-1.1-2.2-1.1c-1.4,0-2.6,1.1-2.6,2.6c0,1.5,1.1,2.6,2.6,2.6
				c0.8,0,1.6-0.4,2.2-1l1.1,1.2c-0.9,0.9-2.2,1.5-3.4,1.5c-2.5,0-4.4-1.9-4.4-4.3c0-2.4,1.9-4.2,4.5-4.2
				C1013.1,284.8,1014.3,285.4,1015.2,286.2z"/>
			<path class="st6" d="M1018.2,286.5v1.8h4.1v1.6h-4.1v1.9h4.6v1.6h-6.5v-8.4h6.4v1.6H1018.2z"/>
		</g>
	</g>
	<g id="match">
		<path class="st6" d="M744.8,262.2v-5.7l-2.2,4.8h-1.2l-2.2-4.8v5.7h-1.7v-8.4h2.1l2.4,5.1l2.4-5.1h2.1v8.4H744.8z"/>
		<path class="st6" d="M750,260.6l-0.7,1.6h-2l3.6-8.4h2l3.6,8.4h-2l-0.7-1.6H750z M751.9,255.8l-1.3,3.3h2.7L751.9,255.8z"/>
		<path class="st6" d="M760.2,255.4v6.8h-1.9v-6.8h-2.6v-1.6h7v1.6H760.2z"/>
		<path class="st6" d="M770.5,255.1l-1.1,1.3c-0.6-0.7-1.4-1.1-2.2-1.1c-1.4,0-2.6,1.1-2.6,2.6c0,1.5,1.1,2.6,2.6,2.6
			c0.8,0,1.6-0.4,2.2-1l1.1,1.2c-0.9,0.9-2.2,1.5-3.4,1.5c-2.5,0-4.4-1.9-4.4-4.3c0-2.4,1.9-4.2,4.5-4.2
			C768.4,253.7,769.7,254.3,770.5,255.1z"/>
		<path class="st6" d="M777.3,262.2v-3.3h-3.8v3.3h-1.9v-8.4h1.9v3.5h3.8v-3.5h1.9v8.4H777.3z"/>
	</g>
</g>
</svg>
