<?xml version="1.0" encoding="utf-8"?>
<!-- Generator: Adobe Illustrator 19.2.1, SVG Export Plug-In . SVG Version: 6.00 Build 0)  -->
<svg version="1.1" xmlns="http://www.w3.org/2000/svg" xmlns:xlink="http://www.w3.org/1999/xlink" x="0px" y="0px"
	 viewBox="0 0 945.3 253.5" style="enable-background:new 0 0 945.3 253.5;" xml:space="preserve">
<style type="text/css">
	.st0{display:none;}
	.st1{fill:#565F96;}
	.st2{fill:#FFFFFF;}
	.st3{fill:#67809F;}
	.st4{fill:#FFFFFF;stroke:#666666;stroke-width:4;stroke-miterlimit:10;}
	.st5{fill:#13B28B;}
	.st6{fill:none;stroke:#13B28B;stroke-miterlimit:10;}
	.st7{opacity:0.4;fill:#13B38B;enable-background:new    ;}
	.st8{fill:#13B38B;}
	.st9{fill:none;stroke:#13B28B;stroke-miterlimit:10;stroke-dasharray:2.0042,2.0042;}
	.st10{fill:#22313F;stroke:#13B28B;stroke-width:3;stroke-miterlimit:10;}
	.st11{fill:#13B28B;stroke:#13B28B;stroke-width:3;stroke-miterlimit:10;}
	.st12{fill:#F9DAC5;}
	.st13{fill:url(#SVGID_1_);}
	.st14{fill:#1DACBC;}
	.st15{fill:#F2BC9E;}
	.st16{fill:#332113;}
	.st17{fill:url(#SVGID_2_);}
	.st18{fill:#FFFFFF;stroke:#D6925F;stroke-width:1.9275;stroke-miterlimit:10;}
	.st19{fill:#EFAB84;}
	.st20{fill:url(#SVGID_3_);}
	.st21{fill:#F9D5B4;}
	.st22{fill:#7796F7;}
	.st23{fill:#F2B78B;}
	.st24{fill:#D19452;}
	.st25{fill:none;stroke:#D6925F;stroke-width:1.7777;stroke-linecap:round;stroke-linejoin:round;stroke-miterlimit:10;}
	.st26{fill:url(#SVGID_4_);}
	.st27{fill:url(#SVGID_5_);}
	.st28{fill:url(#SVGID_6_);}
	.st29{fill:url(#SVGID_7_);}
	.st30{fill:url(#SVGID_8_);}
	.st31{fill:#2E475B;}
	.st32{display:none;fill:#FFFFFF;}
	.st33{font-family:'Montserrat-SemiBold';}
	.st34{font-size:12px;}
	.st35{fill:#3B5997;}
	.st36{fill:url(#SVGID_9_);}
	.st37{fill:url(#SVGID_10_);}
	.st38{fill:url(#SVGID_11_);}
	.st39{fill:url(#SVGID_12_);}
</style>
<g id="background">
</g>
<g id="Layer_6" class="st0">
</g>
<g id="Layer_2" class="st0">
</g>
<g id="Layer_3" class="st0">
</g>
<g id="Layer_4_1_" class="st0">
</g>
<g id="Layer_5">
	<g>
		<path id="stripe_1_" class="st1" d="M99.4,176H28.3v33.2c0,0,3.2,26.9,71,26.9s71-26.9,71-26.9V176H99.4z"/>
		<path class="st2" d="M99.4,146H28.3v33.5c0,0,3.2,26.9,71,26.9s71-26.9,71-26.9V146H99.4z"/>
		<path id="stripe_2_" class="st1" d="M99.4,137H28.3v32.6c0,0,3.2,26.9,71,26.9s71-26.9,71-26.9V137H99.4z"/>
		<path class="st2" d="M99.4,107H28.3v32.9c0,0,3.2,26.9,71,26.9s71-26.9,71-26.9V107H99.4z"/>
		<path id="stripe" class="st1" d="M99.4,97H28.3v32.9c0,0,3.2,26.9,71,26.9s71-26.9,71-26.9V97H99.4z"/>
		<ellipse class="st2" cx="99.3" cy="97.3" rx="71" ry="29"/>
		<g>
			<circle class="st2" cx="38.4" cy="126.2" r="3.4"/>
			<circle class="st2" cx="48.8" cy="131.7" r="3.4"/>
			<circle class="st2" cx="59.7" cy="135.8" r="3.4"/>
		</g>
		<g>
			<circle class="st2" cx="38.4" cy="165.8" r="3.4"/>
			<circle class="st2" cx="48.8" cy="171.3" r="3.4"/>
			<circle class="st2" cx="59.7" cy="175.4" r="3.4"/>
		</g>
		<g>
			<circle class="st2" cx="41.7" cy="208.8" r="3.4"/>
			<circle class="st2" cx="52.1" cy="214.3" r="3.4"/>
			<circle class="st2" cx="63" cy="218.4" r="3.4"/>
		</g>
		<g>
			<path class="st2" d="M13.7,29.8H7.2v-6L0,10.1h6.5l3.9,7.6l3.8-7.6h6.5l-7,13.5V29.8z"/>
			<path class="st2" d="M36.2,22.1c0,4.8-3.4,7.9-8.7,7.9c-5.3,0-8.7-3.1-8.7-7.9s3.4-7.9,8.7-7.9C32.8,14.2,36.2,17.3,36.2,22.1z
				 M25.2,22.2c0,1.8,0.9,3,2.3,3c1.4,0,2.3-1.2,2.3-3s-0.9-3-2.3-3C26.1,19.2,25.2,20.4,25.2,22.2z"/>
			<path class="st2" d="M53.9,29.8h-6.3v-2.1c-1,1.5-2.5,2.4-4.5,2.4c-3.1,0-5.3-2.3-5.3-5.8v-9.8H44v8c0,1.3,0.7,2.1,1.7,2.1
				c1.1,0,1.9-1,1.9-2.5v-7.6h6.3V29.8z"/>
			<path class="st2" d="M63.3,16.7c1.1-1.6,2.7-2.5,4.7-2.5v5.7c-2.8-0.4-4.7,0.6-4.7,2.6v7.3H57V14.5h6.3V16.7z"/>
			<path class="st2" d="M84.2,10.1c6.5,0,10.7,3.8,10.7,9.8c0,6-4.3,9.8-10.9,9.8h-8.5V10.1H84.2z M82,24.7h2.4
				c2.4,0,3.9-1.8,3.9-4.7c0-2.9-1.7-4.8-4.2-4.8H82V24.7z"/>
			<path class="st2" d="M111.4,19.9v9.9h-6.2v-1.7c-0.9,1.2-2.4,1.9-4.3,1.9c-3.2,0-5.1-1.9-5.1-4.8c0-3,2-4.6,5.9-4.7h3.5
				c0-1.1-0.8-1.7-2.4-1.7c-1.1,0-2.9,0.3-4.6,1l-1.4-4.2c2.6-1,5.3-1.5,7.6-1.5C108.7,14.2,111.4,16.3,111.4,19.9z M105.2,24.9
				v-1.4H103c-0.9,0-1.3,0.4-1.3,1.2c0,0.8,0.5,1.3,1.4,1.3C103.9,26.1,104.7,25.6,105.2,24.9z"/>
			<path class="st2" d="M124.9,29.1c-1,0.6-2.7,1-4.4,1c-3.5,0-5.8-2-5.8-5.2v-5.6h-2.1v-4h2.1V11h6.3v4.3h3.6v4h-3.6v4.6
				c0,0.8,0.5,1.3,1.2,1.3c0.4,0,1-0.2,1.6-0.4L124.9,29.1z"/>
			<path class="st2" d="M141.4,19.9v9.9h-6.2v-1.7c-0.9,1.2-2.4,1.9-4.3,1.9c-3.2,0-5.1-1.9-5.1-4.8c0-3,2-4.6,5.9-4.7h3.5
				c0-1.1-0.8-1.7-2.4-1.7c-1.1,0-2.9,0.3-4.6,1l-1.4-4.2c2.6-1,5.3-1.5,7.6-1.5C138.8,14.2,141.4,16.3,141.4,19.9z M135.2,24.9
				v-1.4H133c-0.9,0-1.3,0.4-1.3,1.2c0,0.8,0.5,1.3,1.4,1.3C133.9,26.1,134.7,25.6,135.2,24.9z"/>
			<path class="st2" d="M161.4,22.2c0,4.7-2.7,7.8-6.9,7.8c-1.7,0-3.1-0.6-4.1-1.8v1.6h-6.3V9h6.3v7c1-1.1,2.3-1.8,3.9-1.8
				C158.6,14.2,161.4,17.4,161.4,22.2z M155.1,22c0-1.8-0.9-3-2.3-3c-1.4,0-2.3,1.2-2.3,3s0.9,3,2.3,3C154.2,25,155.1,23.8,155.1,22
				z"/>
			<path class="st2" d="M177.9,19.9v9.9h-6.2v-1.7c-0.9,1.2-2.4,1.9-4.3,1.9c-3.2,0-5.1-1.9-5.1-4.8c0-3,2-4.6,5.9-4.7h3.5
				c0-1.1-0.8-1.7-2.4-1.7c-1.1,0-2.9,0.3-4.6,1l-1.4-4.2c2.6-1,5.3-1.5,7.6-1.5C175.2,14.2,177.9,16.3,177.9,19.9z M171.7,24.9
				v-1.4h-2.2c-0.9,0-1.3,0.4-1.3,1.2c0,0.8,0.5,1.3,1.4,1.3C170.4,26.1,171.2,25.6,171.7,24.9z"/>
			<path class="st2" d="M193.9,16.1l-2.1,3.9c-2.3-1.1-4-1.7-5.2-1.7c-0.5,0-0.9,0.2-0.9,0.5c0,1.4,8,0.9,8,6c0,3.2-2.7,5.2-6.9,5.2
				c-2.8,0-5.3-0.7-7.5-2.2l1.9-3.9c2,1.3,3.9,1.9,5.7,1.9c0.6,0,1-0.2,1-0.4c0-1.3-7.8-0.8-7.8-5.9c0-3.2,2.7-5.3,6.7-5.3
				C189.2,14.2,191.6,14.8,193.9,16.1z"/>
			<path class="st2" d="M211.2,23.5h-10c0.4,1.2,1.3,1.8,2.5,1.8c1.1,0,2.2-0.5,3.1-1.4l3.3,3.2c-1.6,1.8-4,2.8-6.9,2.8
				c-5.2,0-8.3-3.1-8.3-7.8c0-4.8,3.2-8,8.2-8C208.4,14.2,211.5,17.9,211.2,23.5z M204.9,20.6c0.1-1.3-0.7-2.2-1.8-2.2
				c-1.1,0-1.8,0.9-2,2.2H204.9z"/>
		</g>
		<path class="st3" d="M418.6,146.1h-9.7c-1-4.2-2.7-8.1-4.8-11.7l6.9-6.9c1.3-1.3,1.3-3.4,0-4.8l-10.5-10.5c-1.3-1.3-3.4-1.3-4.8,0
			l-6.8,6.8c-3.7-2.3-7.8-4-12.2-5.1v-9.9c0-1.8-1.5-3.4-3.4-3.4h-14.8c-1.8,0-3.4,1.5-3.4,3.4v9.9c-4.3,1.1-8.3,2.8-11.9,5
			l-6.7-6.7l0,0l-0.2-0.2c-1.3-1.3-3.4-1.3-4.8,0l-10.5,10.5c-1.3,1.3-1.3,3.4,0,4.8l0.2,0.2l0,0l6.7,6.7c-2.2,3.7-3.9,7.7-5,11.9
			h-9.7c-1.8,0-3.4,1.5-3.4,3.4v14.8c0,1.8,1.5,3.4,3.4,3.4h9.7c1.1,4.3,2.8,8.4,5.1,12.2l-6.8,6.8c-1.3,1.3-1.3,3.4,0,4.8
			l10.5,10.5c1.3,1.3,3.4,1.3,4.8,0l6.9-6.9c3.6,2.1,7.6,3.8,11.7,4.8v9.5c0,1.8,1.5,3.4,3.4,3.4h14.8c1.8,0,3.4-1.5,3.4-3.4v-9.5
			c4.3-1.1,8.3-2.7,11.9-5l7,7c1.3,1.3,3.4,1.3,4.8,0l10.5-10.5c1.3-1.3,1.3-3.4,0-4.8l-0.2-0.2l-6.9-6.9c2.2-3.7,3.9-7.7,5-11.9
			h9.7c1.8,0,3.4-1.5,3.4-3.4v-14.8C422,147.6,420.5,146.1,418.6,146.1z"/>
		<circle class="st4" cx="366.2" cy="156.8" r="22.7"/>
		<g id="Layer_3_2_">
			<g>
				<path class="st2" d="M293.4,31.9l8-21.3h4.7l7.9,21.3h-6.2l-1.3-4.2h-5.7l-1.3,4.2L293.4,31.9z M303.7,16.7l-2,7.1h3.9
					L303.7,16.7z"/>
				<path class="st2" d="M315.6,31.9V10.6h5.9v16.2h9.7v5.1H315.6z"/>
				<path class="st2" d="M333.3,31.9V10.6h9.2c1,0,2,0.2,2.9,0.6c0.9,0.4,1.6,1,2.3,1.7c0.6,0.7,1.1,1.5,1.5,2.4s0.5,1.8,0.5,2.7
					s-0.2,1.9-0.5,2.7c-0.3,0.9-0.8,1.7-1.4,2.4c-0.6,0.7-1.4,1.2-2.2,1.7c-0.9,0.4-1.8,0.6-2.9,0.6h-3.5v6.5H333.3z M339.1,20.2
					h3.1c0.4,0,0.7-0.2,1-0.5c0.3-0.3,0.5-0.9,0.5-1.8s-0.2-1.5-0.5-1.8c-0.4-0.3-0.7-0.5-1.1-0.5h-2.9L339.1,20.2L339.1,20.2z"/>
				<path class="st2" d="M370.7,10.6v21.3h-5.9v-8.3h-7.1v8.3h-5.9V10.6h5.9v7.9h7.1v-7.9H370.7z"/>
				<path class="st2" d="M372.3,31.9l8-21.3h4.7l7.9,21.3h-6.2l-1.3-4.2h-5.7l-1.3,4.2L372.3,31.9z M382.6,16.7l-2,7.1h3.9
					L382.6,16.7z"/>
				<path class="st5" d="M394.5,31.9V10.6h9.8c1,0,2,0.2,2.9,0.6c0.9,0.4,1.6,1,2.3,1.7c0.7,0.7,1.1,1.5,1.5,2.4s0.5,1.8,0.5,2.7
					c0,1.2-0.3,2.4-0.8,3.5s-1.3,1.9-2.3,2.6l4.8,7.8h-6.6l-4-6.5h-2.2v6.5L394.5,31.9z M400.3,20.2h3.7c0.4,0,0.7-0.2,1-0.6
					c0.3-0.4,0.5-1,0.5-1.7c0-0.7-0.2-1.3-0.5-1.7c-0.4-0.4-0.7-0.6-1.1-0.6h-3.5L400.3,20.2L400.3,20.2z"/>
				<path class="st5" d="M413,31.9l8-21.3h4.7l7.9,21.3h-6.2l-1.3-4.2h-5.7l-1.3,4.2L413,31.9z M423.3,16.7l-2,7.1h3.9L423.3,16.7z"
					/>
				<path class="st5" d="M441.1,21.4v10.5h-5.8V10.6h4.6l8.6,10.8V10.6h5.8v21.3h-4.7L441.1,21.4z"/>
				<path class="st5" d="M457.8,31.9V10.6h5.8v8.7l7.1-8.7h6l-7.7,9.5l8.3,11.8h-6.1l-5.6-8.5l-1.9,2.2v6.3L457.8,31.9z"/>
			</g>
		</g>
		<g id="Layer_4_2_">
			<circle class="st6" cx="265.1" cy="25.6" r="3.8"/>
			<line class="st6" x1="268.9" y1="24.6" x2="274.6" y2="23.1"/>
			<circle class="st7" cx="279.1" cy="22.5" r="4.6"/>
			<circle class="st8" cx="279.1" cy="22.5" r="2.3"/>
			<line class="st6" x1="278" y1="18.1" x2="276.4" y2="13.8"/>
			<circle class="st8" cx="275.5" cy="11.6" r="2.6"/>
			<line class="st6" x1="282.5" y1="25.6" x2="284.7" y2="27.8"/>
			<circle class="st8" cx="287.1" cy="30.1" r="3.6"/>
		</g>
		<g>
			<path class="st8" d="M181.7,100.5l1.2-6.7l-1.6-0.3l0.3-1.6l3.4,0.6l-1.5,8.3L181.7,100.5z"/>
			<path class="st8" d="M193.3,98.5c-0.6,2.7-2.1,3.9-4.4,3.4c-2.3-0.5-3.3-2.2-2.7-4.9c0.6-2.7,2.1-3.9,4.5-3.4
				C192.9,94.1,193.9,95.8,193.3,98.5z M188,97.4c-0.4,1.9,0,2.9,1.1,3.1c1.2,0.2,1.9-0.5,2.3-2.4c0.4-1.9,0-2.8-1.1-3.1
				C189.1,94.8,188.4,95.5,188,97.4z"/>
			<path class="st8" d="M194.6,103.1l1.6-6.6l-1.5-0.4l0.4-1.6l3.4,0.8l-1.9,8.2L194.6,103.1z"/>
			<path class="st8" d="M199.2,104.3l1.7-6.6l-1.5-0.4l0.4-1.5l3.4,0.9l-2.1,8.1L199.2,104.3z"/>
			<path class="st8" d="M211,103.3c-0.8,2.6-2.5,3.7-4.7,3c-2.3-0.7-3.1-2.5-2.3-5.2c0.8-2.6,2.5-3.7,4.7-3
				C210.9,98.8,211.7,100.7,211,103.3z M205.8,101.7c-0.6,1.9-0.3,2.9,0.8,3.2c1.1,0.3,1.9-0.3,2.5-2.2c0.6-1.9,0.3-2.8-0.8-3.2
				C207.1,99.2,206.4,99.8,205.8,101.7z"/>
			<path class="st8" d="M211.8,108l2.2-6.4l-1.5-0.5l0.5-1.5l3.3,1.1l-2.8,7.9L211.8,108z"/>
			<path class="st8" d="M223.5,108c-1,2.6-2.8,3.5-5,2.6c-2.2-0.9-2.8-2.8-1.8-5.3c1-2.5,2.8-3.5,5-2.6
				C223.9,103.6,224.6,105.5,223.5,108z M218.5,106c-0.7,1.8-0.6,2.8,0.5,3.3c1.1,0.4,1.9-0.1,2.6-2c0.7-1.8,0.5-2.8-0.5-3.2
				C220.1,103.6,219.3,104.2,218.5,106z"/>
			<path class="st8" d="M231.2,111.8c-1.2,2.5-3.1,3.2-5.2,2.2c-2.1-1.1-2.6-3-1.4-5.5c1.2-2.5,3-3.2,5.2-2.2
				C232,107.4,232.5,109.3,231.2,111.8z M226.4,109.4c-0.9,1.8-0.8,2.8,0.3,3.3c1.1,0.5,1.9,0,2.8-1.8c0.9-1.8,0.8-2.7-0.3-3.3
				C228.1,107.1,227.3,107.6,226.4,109.4z"/>
			<path class="st8" d="M231.1,116.6l3.5-5.8l-1.4-0.8l0.8-1.4l3,1.8l-4.3,7.2L231.1,116.6z"/>
			<path class="st8" d="M235.1,119.1l3.9-5.6l-1.3-0.9l0.9-1.3l2.9,2l-4.8,6.9L235.1,119.1z"/>
			<path class="st8" d="M238.9,121.9l4.4-5.2l-1.2-1l1-1.2l2.7,2.2l-5.4,6.4L238.9,121.9z"/>
			<path class="st8" d="M249.6,126.5c-2,1.9-4,2-5.6,0.3c-1.7-1.7-1.5-3.7,0.5-5.6c2-1.9,4-2,5.6-0.3
				C251.8,122.6,251.6,124.6,249.6,126.5z M245.9,122.6c-1.4,1.4-1.7,2.3-0.8,3.2c0.8,0.8,1.8,0.6,3.2-0.7c1.4-1.4,1.6-2.3,0.8-3.2
				C248.3,121.1,247.3,121.3,245.9,122.6z"/>
			<path class="st8" d="M248.9,131.3l4.2-5.4l-1.3-1l1-1.3l2.8,2.1l-5.1,6.7L248.9,131.3z"/>
			<path class="st8" d="M261,133.8c-1.3,2.4-3.2,3.1-5.3,2c-2.1-1.1-2.5-3.1-1.2-5.5c1.3-2.4,3.2-3.1,5.3-2
				C261.9,129.4,262.3,131.4,261,133.8z M256.2,131.2c-0.9,1.7-0.9,2.7,0.2,3.3c1,0.6,1.9,0.1,2.9-1.7c0.9-1.7,0.9-2.7-0.2-3.3
				C258,129,257.2,129.5,256.2,131.2z"/>
			<path class="st8" d="M261.9,138.5l2.2-6.4l-1.5-0.5l0.5-1.5l3.3,1.1l-2.8,7.9L261.9,138.5z"/>
			<path class="st8" d="M274,137.2c-0.5,2.7-2.1,3.9-4.4,3.5c-2.3-0.5-3.3-2.2-2.8-4.9c0.5-2.7,2.1-3.9,4.4-3.5
				C273.6,132.8,274.6,134.6,274,137.2z M268.7,136.2c-0.4,1.9,0,2.9,1.1,3.1c1.2,0.2,1.8-0.5,2.2-2.4c0.4-1.9,0-2.8-1.1-3.1
				C269.8,133.6,269.1,134.3,268.7,136.2z"/>
			<path class="st8" d="M275.9,141.6l0.6-6.8l-1.6-0.2l0.2-1.6l3.5,0.3l-0.8,8.4L275.9,141.6z"/>
			<path class="st8" d="M281,142l0.4-6.8l-1.6-0.1l0.1-1.6l3.5,0.2l-0.4,8.4L281,142z"/>
			<path class="st8" d="M292.2,138.4c-0.2,2.7-1.6,4.2-3.9,4c-2.4-0.1-3.6-1.7-3.4-4.5c0.2-2.7,1.6-4.2,3.9-4
				C291.1,134.1,292.3,135.6,292.2,138.4z M286.8,138c-0.1,2,0.4,2.8,1.6,2.9c1.2,0.1,1.8-0.7,1.9-2.7c0.1-2-0.4-2.8-1.5-2.9
				C287.5,135.3,286.9,136.1,286.8,138z"/>
			<path class="st8" d="M293.8,143l1.5-6.6l-1.5-0.3l0.3-1.6l3.4,0.8l-1.8,8.2L293.8,143z"/>
		</g>
		<g>
			<path class="st8" d="M178.9,205.9l-1.1-6.7l-1.6,0.3l-0.3-1.6l3.4-0.6l1.4,8.3L178.9,205.9z"/>
			<path class="st8" d="M188.9,199.8c0.5,2.7-0.5,4.4-2.8,4.9c-2.3,0.5-3.9-0.8-4.4-3.5c-0.5-2.7,0.5-4.4,2.8-4.9
				C186.8,195.9,188.4,197.2,188.9,199.8z M183.6,200.9c0.4,1.9,1.1,2.7,2.2,2.4c1.2-0.2,1.5-1.1,1.1-3.1c-0.4-1.9-1.1-2.6-2.2-2.4
				C183.6,198,183.2,198.9,183.6,200.9z"/>
			<path class="st8" d="M191.8,203.5l-1.5-6.6l-1.5,0.3l-0.3-1.6l3.4-0.8l1.8,8.2L191.8,203.5z"/>
			<path class="st8" d="M201.4,196.8c0.7,2.7-0.2,4.5-2.5,5.1c-2.3,0.6-3.9-0.6-4.6-3.2c-0.7-2.7,0.2-4.4,2.5-5
				C199.1,193,200.7,194.1,201.4,196.8z M196.2,198.1c0.5,1.9,1.2,2.6,2.4,2.3c1.1-0.3,1.5-1.2,1-3.2c-0.5-1.9-1.2-2.6-2.4-2.3
				C196,195.3,195.7,196.2,196.2,198.1z"/>
			<path class="st8" d="M209.5,194.4c0.8,2.6,0,4.5-2.2,5.2c-2.3,0.7-4-0.4-4.8-3c-0.8-2.6,0-4.4,2.3-5.1
				C207,190.7,208.7,191.7,209.5,194.4z M204.3,195.9c0.6,1.9,1.3,2.5,2.5,2.2c1.1-0.3,1.4-1.3,0.8-3.2c-0.6-1.9-1.3-2.5-2.5-2.2
				C204,193.1,203.7,194.1,204.3,195.9z"/>
			<path class="st8" d="M213,197.6l-2.3-6.4l-1.5,0.5l-0.5-1.5l3.3-1.2l2.8,7.9L213,197.6z"/>
			<path class="st8" d="M221.9,189.5c1.1,2.5,0.4,4.4-1.7,5.4c-2.2,0.9-4,0-5-2.5c-1.1-2.5-0.4-4.4,1.7-5.3
				C219,186.1,220.8,187,221.9,189.5z M216.9,191.6c0.8,1.8,1.6,2.4,2.7,1.9c1.1-0.5,1.3-1.4,0.5-3.3c-0.8-1.8-1.6-2.4-2.7-1.9
				C216.3,188.8,216.1,189.8,216.9,191.6z"/>
			<path class="st8" d="M229.4,185.6c1.3,2.4,0.8,4.4-1.2,5.5c-2.1,1.1-4,0.4-5.2-2.1c-1.3-2.4-0.8-4.4,1.3-5.5
				C226.2,182.5,228.1,183.2,229.4,185.6z M224.6,188.1c0.9,1.8,1.8,2.2,2.8,1.7c1-0.5,1.1-1.5,0.2-3.3c-0.9-1.7-1.8-2.2-2.8-1.7
				C223.8,185.4,223.7,186.4,224.6,188.1z"/>
			<path class="st8" d="M233.6,187.9l-3.7-5.7l-1.3,0.9l-0.9-1.3l2.9-1.9l4.6,7L233.6,187.9z"/>
			<path class="st8" d="M240.1,177.5c1.8,2.1,1.8,4.1,0,5.6c-1.8,1.6-3.8,1.3-5.6-0.8c-1.8-2.1-1.8-4.1,0-5.6
				C236.3,175.2,238.3,175.5,240.1,177.5z M236,181.1c1.3,1.5,2.3,1.8,3.2,1c0.9-0.8,0.7-1.8-0.6-3.3c-1.3-1.5-2.2-1.8-3.1-1
				C234.6,178.6,234.7,179.6,236,181.1z"/>
			<path class="st8" d="M244.5,178.7l-4.8-4.9l-1.1,1.1l-1.1-1.1l2.5-2.4l5.9,6L244.5,178.7z"/>
			<path class="st8" d="M247.9,175.5l-4.3-5.3l-1.2,1l-1-1.2l2.7-2.2l5.3,6.5L247.9,175.5z"/>
			<path class="st8" d="M254.6,165.9c1.4,2.3,1.1,4.3-0.9,5.6c-2,1.2-3.9,0.6-5.4-1.7c-1.4-2.3-1.1-4.3,0.9-5.5
				C251.3,163,253.2,163.6,254.6,165.9z M250,168.7c1,1.7,1.9,2.1,2.9,1.5c1-0.6,1-1.6,0-3.3c-1-1.7-1.9-2.1-2.9-1.5
				C249,166,249,167,250,168.7z"/>
			<path class="st8" d="M262.8,162.6c1,2.6,0.3,4.5-1.9,5.3c-2.2,0.9-4-0.1-5-2.6c-1-2.5-0.3-4.4,1.9-5.3
				C260,159.1,261.8,160,262.8,162.6z M257.8,164.6c0.7,1.8,1.5,2.4,2.6,2c1.1-0.4,1.3-1.4,0.6-3.3c-0.7-1.8-1.5-2.4-2.6-2
				C257.2,161.8,257,162.7,257.8,164.6z"/>
			<path class="st8" d="M266.3,166.1l-1.6-6.6l-1.5,0.4l-0.4-1.5l3.4-0.8l2,8.1L266.3,166.1z"/>
			<path class="st8" d="M270.8,165.1l-1.1-6.7l-1.6,0.3l-0.3-1.6l3.4-0.6l1.4,8.3L270.8,165.1z"/>
			<path class="st8" d="M281.3,159.7c0.2,2.7-1,4.4-3.3,4.6c-2.4,0.2-3.8-1.2-4-4c-0.2-2.7,0.9-4.3,3.3-4.5
				C279.6,155.6,281,157,281.3,159.7z M275.9,160.2c0.2,2,0.8,2.8,2,2.7c1.2-0.1,1.6-1,1.5-3c-0.2-2-0.8-2.7-1.9-2.6
				C276.2,157.3,275.7,158.2,275.9,160.2z"/>
			<path class="st8" d="M283.8,163.9l-0.3-6.8l-1.6,0.1l-0.1-1.6l3.5-0.2l0.4,8.4L283.8,163.9z"/>
		</g>
		<g>
			<line class="st5" x1="432.3" y1="153" x2="909.3" y2="153"/>
			<g>
				<line class="st6" x1="432.3" y1="153" x2="433.3" y2="153"/>
				<line class="st9" x1="435.3" y1="153" x2="907.3" y2="153"/>
				<line class="st6" x1="908.3" y1="153" x2="909.3" y2="153"/>
			</g>
		</g>
		<polygon class="st10" points="667,252 523,252 612.3,54 756.3,54 		"/>
		<polygon class="st11" points="692.4,168 572.5,168 588.8,132 708.7,132 		"/>
		<g>
			<path class="st12" d="M694,119.4c-0.7-0.6-1.5-1-2.3-1.2l-7.9-2.5l0,0c-0.6-0.2-0.9-0.7-1-1.3c-0.3-1.6-0.3-6-0.2-6.7
				c0-0.1,0-0.1-0.1-0.1h-7c-0.1,0-0.1,0-0.1,0.1c0,0.7,0,5-0.2,6.7c-0.1,0.6-0.4,1.1-1,1.3l0,0l-7.9,2.5c-0.7,0.2-1.4,0.6-2,1
				c-3.2,2.4-3.3,6.2-3.4,6.9c0,0.1,0,0.1,0.1,0.1H679h18.1c0.1,0,0.1-0.1,0.1-0.1C697,125.5,697,121.8,694,119.4z"/>
			<linearGradient id="SVGID_1_" gradientUnits="userSpaceOnUse" x1="679.3493" y1="114.8797" x2="679.3493" y2="101.2628">
				<stop  offset="0.1608" style="stop-color:#D86D25"/>
				<stop  offset="0.6432" style="stop-color:#E57F39"/>
			</linearGradient>
			<path class="st13" d="M688.7,119.8c2.4,0.4,5-0.2,6.9-1.8c1.9-1.6,2.1-4.2,2.2-6.7c-1.6,1.3-4.2,0.4-5.3-1.5
				c-1.1-1.8-1.3-4.1-1-6.2c0.3-2.9,0.6-5.9,0.4-8.9c-0.2-3-0.9-5.9-2.5-8.4c-2.3-3.6-6.6-5.4-10.7-5.4s-8.4,1.8-10.7,5.4
				c-1.6,2.4-2.3,5.4-2.5,8.4c-0.2,3,0.1,5.9,0.4,8.9c0.2,2.1,0,4.3-1,6.2c-1.1,1.8-2.5,2.8-4.2,1.5c0.1,2.5,0.3,5.1,2.2,6.7
				c1.9,1.6,3.4,2.3,5.8,1.8H688.7z"/>
			<path class="st12" d="M694,119.4c-0.7-0.6-1.5-1-2.3-1.2l-7.9-2.5l0,0c-0.6-0.2-0.9-0.7-1-1.3c-0.3-1.6-0.3-6-0.2-6.7
				c0-0.1,0-0.1-0.1-0.1h-7c-0.1,0-0.1,0-0.1,0.1c0,0.7,0,5-0.2,6.7c-0.1,0.6-0.4,1.1-1,1.3l0,0l-7.9,2.5c-0.7,0.2-1.4,0.6-2,1
				c-3.2,2.4-3.3,6.2-3.4,6.9c0,0.1,0,0.1,0.1,0.1H679h18.1c0.1,0,0.1-0.1,0.1-0.1C697,125.5,697,121.8,694,119.4z"/>
			<g>
				<path class="st14" d="M667.2,117.9l-0.9,0.3c-0.7,0.2-1.4,0.6-2,1c-3.2,2.4-3.3,6.2-3.4,6.9c0,0.1,0,0.1,0.1,0.1H679h18.1
					c0.1,0,0.1-0.1,0.1-0.1c-0.1-0.7-0.2-4.4-3.2-6.7c-0.7-0.6-1.5-1-2.3-1.2l-0.9-0.3c-3.6,1.3-7.6,2-11.8,2
					S670.8,119.2,667.2,117.9z"/>
				<path class="st12" d="M682.8,114.5c-0.3-1.6-0.3-6-0.2-6.7c0-0.1,0-0.1-0.1-0.1h-7c-0.1,0-0.1,0-0.1,0.1c0,0.7,0,5-0.2,6.7
					c-0.1,0.6-0.4,1.1-1,1.3l-7,2.2c3.6,1.3,7.6,2,11.8,2s8.2-0.7,11.8-2l-7-2.2C683.2,115.6,682.9,115.1,682.8,114.5z"/>
			</g>
			<g>
				<path class="st15" d="M682.6,111.4c0-1.5,0-2.9,0-3.3c0-0.1,0-0.1-0.1-0.1h-7c-0.1,0-0.1,0-0.1,0.1c0,0.4,0,1.8,0,3.3
					C677.7,112.2,680.3,112.2,682.6,111.4z"/>
			</g>
			<g>
				<path class="st12" d="M670.6,98.8c0.6,1.5,0.3,3.8-0.8,4.3c-1.1,0.4-2.4-1.1-3.1-2.6s-0.3-3.1,0.8-3.5
					C668.6,96.5,670,97.3,670.6,98.8z"/>
				<path class="st12" d="M687.4,98.8c-0.6,1.5-0.3,3.8,0.8,4.3c1.1,0.4,2.4-1.1,3.1-2.6s0.3-3.1-0.8-3.5
					C689.4,96.5,688,97.3,687.4,98.8z"/>
			</g>
			<path class="st12" d="M679,84.1c-10.7-0.4-10.8,9.8-10.7,13.1c0.1,2.4,1.1,6,1.6,7.7c0.3,1,0.8,1.9,1.6,2.7
				c2.8,2.7,7.5,3.6,7.5,3.6s4.7-0.9,7.5-3.6c0.8-0.7,1.3-1.7,1.6-2.7c0.5-1.8,1.5-5.3,1.6-7.7C689.8,93.9,689.7,83.7,679,84.1z"/>
			<g>
				<ellipse class="st16" cx="673.4" cy="98.1" rx="1.4" ry="1.6"/>
				<ellipse class="st16" cx="684.1" cy="98.1" rx="1.4" ry="1.6"/>
			</g>
			<linearGradient id="SVGID_2_" gradientUnits="userSpaceOnUse" x1="683.3334" y1="86.1804" x2="690.4895" y2="97.4916">
				<stop  offset="0.3719" style="stop-color:#E57F39"/>
				<stop  offset="1" style="stop-color:#FFBA83"/>
			</linearGradient>
			<path class="st17" d="M684.7,85c2.2,0.2,4.2,1.8,5.2,3.7c1,2,1.3,4.3,1.1,6.5c-0.2,2.7-1,5.3-2.2,7.7c1.5-5.3-1.1-11-5.4-14.5
				c-0.8-0.6-0.9-2-0.3-2.8S683.8,84.9,684.7,85z"/>
			<g>
				<g>
					<path class="st18" d="M675.2,104.8c0.7,1.4,2.1,2.5,3.8,2.5s3.1-1,3.8-2.5H675.2z"/>
				</g>
			</g>
			<circle class="st19" cx="671.9" cy="102" r="1.5"/>
			<circle class="st19" cx="685.5" cy="102" r="1.5"/>
		</g>
		<linearGradient id="SVGID_3_" gradientUnits="userSpaceOnUse" x1="679.0624" y1="86.8296" x2="669.0465" y2="104.7612">
			<stop  offset="0.5025" style="stop-color:#E57F39"/>
			<stop  offset="1" style="stop-color:#FFBA83"/>
		</linearGradient>
		<path class="st20" d="M687.1,86.8c-0.1,2-1.9,3.5-3.8,4.2c-1.8,0.6-3.8,0.7-5.7,1.2c-3,0.9-5.7,3.2-7.1,6.1s-1.5,6.5-0.3,9.6
			c-1.2-3.8-3.1-8.5-2.8-12.4c0.3-4,2.2-7.9,5-10.6c2.8-2.7,7.4-3,10.9-1.6C685.1,84.1,687.3,84.8,687.1,86.8z"/>
		<g>
			<g>
				<path class="st21" d="M651.7,119.2c-0.8-0.6-1.7-1-2.7-1.3l-1-0.3c0,0,0,0,0,0l-8.2-2.7c-0.7-0.2-1-0.7-1.1-1.3
					c-0.3-1.7-0.3-5.8-0.3-6.5c0-0.1-0.1-0.1-0.1-0.1h-0.4h-8.1h-0.4c-0.1,0-0.1,0-0.1,0.1c0,0.7,0,4.7-0.3,6.5
					c-0.1,0.6-0.5,1.1-1.1,1.3l-8.2,2.7c0,0,0,0,0,0l-1.1,0.3c-0.8,0.2-1.7,0.6-2.4,1c-3.7,2.4-3.8,6.4-4,7.2c0,0.1,0,0.1,0.1,0.1
					h21.5h21.5c0.1,0,0.1-0.1,0.1-0.1C655.3,125.4,655.2,121.7,651.7,119.2z"/>
				<g>
					<path class="st22" d="M651.7,119.2c-0.8-0.6-1.7-1-2.7-1.3l-1-0.3c0,0,0,0,0,0l-7-2.3c-2.2,0.8-4.6,1.3-7.1,1.3
						s-4.9-0.5-7.1-1.3l-7,2.3c0,0,0,0,0,0l-1.1,0.3c-0.8,0.2-1.7,0.6-2.4,1c-3.7,2.4-3.8,6.4-4,7.2c0,0.1,0,0.1,0.1,0.1h21.5h21.5
						c0.1,0,0.1-0.1,0.1-0.1C655.3,125.4,655.2,121.7,651.7,119.2z"/>
				</g>
				<g>
					<path class="st23" d="M638.5,112.1c0-1.9-0.1-3.7-0.1-4.2c0-0.1-0.1-0.1-0.1-0.1h-8.9c-0.1,0-0.1,0.1-0.1,0.1
						c0,0.5-0.1,2.3-0.1,4.2c0.6,0.7,3,1.6,4.6,1.6C635.4,113.8,637.8,112.7,638.5,112.1z"/>
				</g>
				<g>
					<path class="st21" d="M625.5,98.4c0.6,1.7,0.3,4.3-0.8,4.8s-2.4-1.3-3.1-3c-0.6-1.7-0.3-3.5,0.8-4
						C623.5,95.7,624.8,96.7,625.5,98.4z"/>
					<path class="st21" d="M642.2,98.4c-0.6,1.7-0.3,4.3,0.8,4.8s2.4-1.3,3.1-3c0.6-1.7,0.3-3.5-0.8-4
						C644.2,95.7,642.9,96.7,642.2,98.4z"/>
				</g>
				<path class="st21" d="M633.8,83.4c-10.6-0.4-10.7,9.8-10.6,13.1c0.1,2.4,0.7,6,1.2,7.7c0.3,1,0.8,2.7,1.6,3.4
					c2.1,2,4.6,3.7,6.2,4.3c0.3,0.1,0.9,0.2,1.6,0.2c0.6,0,1.3,0,1.6-0.2c1.6-0.6,4.1-2.3,6.2-4.3c0.8-0.7,1.3-2.4,1.6-3.4
					c0.5-1.8,1.1-5.3,1.2-7.7C644.5,93.2,644.3,83.1,633.8,83.4z"/>
				<g>
					<ellipse class="st16" cx="628.3" cy="97.4" rx="1.3" ry="1.6"/>
					<ellipse class="st16" cx="639" cy="97.4" rx="1.3" ry="1.6"/>
				</g>
				<g>
					<path class="st24" d="M635.8,109.6c-1-0.2-1.9-1.3-2-1.9c-0.1,0.6-1,1.7-2,1.9c-2.5,0.5-5.1-1.7-6.9-4c0.3,0.8,0.7,1.6,1.2,2.1
						c2.1,2,4.6,3.7,6.2,4.3c0.3,0.1,0.9,0.2,1.6,0.2c0.6,0,1.3,0,1.6-0.2c1.6-0.6,4.1-2.3,6.2-4.3c0.5-0.5,0.9-1.3,1.2-2.1
						C640.8,107.8,638.3,110,635.8,109.6z"/>
				</g>
				<path class="st25" d="M631,104.2c0.5,0.7,1.5,1.1,2.7,1.1c1.2,0,2.3-0.5,2.7-1.1"/>
			</g>
			<g>
				<g>
					<g>
						<path class="st24" d="M624.4,93.4c0.4-2,1.2-3.9,2.2-5.6c-0.3-0.5-0.9-0.6-1.4-0.4c-1.6,2.4-2,5.5-2,7.7
							c0.1,1.3,0.3,2.5,0.7,3.6C624.2,96.9,624,95.1,624.4,93.4z"/>
					</g>
				</g>
				<g>
					<g>
						<path class="st24" d="M643.3,93.4c-0.4-2-1.2-3.9-2.2-5.6c0.3-0.5,0.9-0.6,1.4-0.4c1.6,2.4,2,5.5,2,7.7
							c-0.1,1.3-0.3,2.5-0.7,3.6C643.6,96.9,643.7,95.1,643.3,93.4z"/>
					</g>
				</g>
			</g>
			<linearGradient id="SVGID_4_" gradientUnits="userSpaceOnUse" x1="624.6772" y1="85.8717" x2="644.9904" y2="85.8717">
				<stop  offset="0" style="stop-color:#B17338"/>
				<stop  offset="0.8643" style="stop-color:#E8AE5C"/>
			</linearGradient>
			<path class="st26" d="M634.9,89.2c2,0.5,4.1,0.9,6,0.1c1.9-0.7,3.5-2.6,4-4.7c-1.8,0.9-3.7-0.5-5.5-1.4
				c-4.3-2.2-9.8-1.1-13.2,2.6c-1.8,1.9-2.6,3.7,0.3,3.2C629.7,88.4,631.8,88.4,634.9,89.2z"/>
		</g>
		<g>
			<path class="st12" d="M618.5,218.2c-0.7-0.6-1.5-1-2.3-1.2l-7.9-2.5l0,0c-0.6-0.2-0.9-0.7-1-1.3c-0.3-1.6-0.3-6-0.2-6.7
				c0-0.1,0-0.1-0.1-0.1h-7c-0.1,0-0.1,0-0.1,0.1c0,0.7,0,5-0.2,6.7c-0.1,0.6-0.4,1.1-1,1.3l0,0l-7.9,2.5c-0.7,0.2-1.4,0.6-2,1
				c-3.2,2.4-3.3,6.2-3.4,6.9c0,0.1,0,0.1,0.1,0.1h18.1h18.1c0.1,0,0.1-0.1,0.1-0.1C621.5,224.2,621.5,220.5,618.5,218.2z"/>
			<linearGradient id="SVGID_5_" gradientUnits="userSpaceOnUse" x1="603.8326" y1="213.5901" x2="603.8326" y2="199.9732">
				<stop  offset="0.1608" style="stop-color:#D86D25"/>
				<stop  offset="0.6432" style="stop-color:#E57F39"/>
			</linearGradient>
			<path class="st27" d="M613.2,218.5c2.4,0.4,5-0.2,6.9-1.8c1.9-1.6,2.1-4.2,2.2-6.7c-1.6,1.3-4.2,0.4-5.3-1.5
				c-1.1-1.8-1.3-4.1-1-6.2c0.3-2.9,0.6-5.9,0.4-8.9c-0.2-3-0.9-5.9-2.5-8.4c-2.3-3.6-6.6-5.4-10.7-5.4c-4.1,0-8.4,1.8-10.7,5.4
				c-1.6,2.4-2.3,5.4-2.5,8.4c-0.2,3,0.1,5.9,0.4,8.9c0.2,2.1,0,4.3-1,6.2s-2.5,2.8-4.2,1.5c0.1,2.5,0.3,5.1,2.2,6.7
				c1.9,1.6,3.4,2.3,5.8,1.8H613.2z"/>
			<path class="st12" d="M618.5,218.2c-0.7-0.6-1.5-1-2.3-1.2l-7.9-2.5l0,0c-0.6-0.2-0.9-0.7-1-1.3c-0.3-1.6-0.3-6-0.2-6.7
				c0-0.1,0-0.1-0.1-0.1h-7c-0.1,0-0.1,0-0.1,0.1c0,0.7,0,5-0.2,6.7c-0.1,0.6-0.4,1.1-1,1.3l0,0l-7.9,2.5c-0.7,0.2-1.4,0.6-2,1
				c-3.2,2.4-3.3,6.2-3.4,6.9c0,0.1,0,0.1,0.1,0.1h18.1h18.1c0.1,0,0.1-0.1,0.1-0.1C621.5,224.2,621.5,220.5,618.5,218.2z"/>
			<g>
				<path class="st14" d="M591.6,216.7l-0.9,0.3c-0.7,0.2-1.4,0.6-2,1c-3.2,2.4-3.3,6.2-3.4,6.9c0,0.1,0,0.1,0.1,0.1h18.1h18.1
					c0.1,0,0.1-0.1,0.1-0.1c-0.1-0.7-0.2-4.4-3.2-6.7c-0.7-0.6-1.5-1-2.3-1.2l-0.9-0.3c-3.6,1.3-7.6,2-11.8,2
					C599.3,218.6,595.3,217.9,591.6,216.7z"/>
				<path class="st12" d="M607.3,213.2c-0.3-1.6-0.3-6-0.2-6.7c0-0.1,0-0.1-0.1-0.1h-7c-0.1,0-0.1,0-0.1,0.1c0,0.7,0,5-0.2,6.7
					c-0.1,0.6-0.4,1.1-1,1.3l-7,2.2c3.6,1.3,7.6,2,11.8,2c4.2,0,8.2-0.7,11.8-2l-7-2.2C607.7,214.3,607.4,213.8,607.3,213.2z"/>
			</g>
			<g>
				<path class="st15" d="M607.1,210.2c0-1.5,0-2.9,0-3.3c0-0.1,0-0.1-0.1-0.1h-7c-0.1,0-0.1,0-0.1,0.1c0,0.4,0,1.8,0,3.3
					C602.2,211,604.7,211,607.1,210.2z"/>
			</g>
			<g>
				<path class="st12" d="M595.1,197.5c0.6,1.5,0.3,3.8-0.8,4.3c-1.1,0.4-2.4-1.1-3.1-2.6c-0.6-1.5-0.3-3.1,0.8-3.5
					C593.1,195.2,594.5,196,595.1,197.5z"/>
				<path class="st12" d="M611.9,197.5c-0.6,1.5-0.3,3.8,0.8,4.3c1.1,0.4,2.4-1.1,3.1-2.6s0.3-3.1-0.8-3.5
					C613.9,195.2,612.5,196,611.9,197.5z"/>
			</g>
			<path class="st12" d="M603.5,182.8c-10.7-0.4-10.8,9.8-10.7,13.1c0.1,2.4,1.1,6,1.6,7.7c0.3,1,0.8,1.9,1.6,2.7
				c2.8,2.7,7.5,3.6,7.5,3.6s4.7-0.9,7.5-3.6c0.8-0.7,1.3-1.7,1.6-2.7c0.5-1.8,1.5-5.3,1.6-7.7C614.3,192.6,614.1,182.4,603.5,182.8
				z"/>
			<g>
				<ellipse class="st16" cx="597.9" cy="196.8" rx="1.4" ry="1.6"/>
				<ellipse class="st16" cx="608.6" cy="196.8" rx="1.4" ry="1.6"/>
			</g>
			<linearGradient id="SVGID_6_" gradientUnits="userSpaceOnUse" x1="607.8168" y1="184.8907" x2="614.9728" y2="196.2019">
				<stop  offset="0.3719" style="stop-color:#E57F39"/>
				<stop  offset="1" style="stop-color:#FFBA83"/>
			</linearGradient>
			<path class="st28" d="M609.2,183.7c2.2,0.2,4.2,1.8,5.2,3.7c1,2,1.3,4.3,1.1,6.5c-0.2,2.7-1,5.3-2.2,7.7c1.5-5.3-1.1-11-5.4-14.5
				c-0.8-0.6-0.9-2-0.3-2.8S608.2,183.6,609.2,183.7z"/>
			<g>
				<g>
					<path class="st18" d="M599.7,203.5c0.7,1.4,2.1,2.5,3.8,2.5c1.7,0,3.1-1,3.8-2.5H599.7z"/>
				</g>
			</g>
			<circle class="st19" cx="596.3" cy="200.7" r="1.5"/>
			<circle class="st19" cx="610" cy="200.7" r="1.5"/>
		</g>
		<linearGradient id="SVGID_7_" gradientUnits="userSpaceOnUse" x1="603.5457" y1="185.54" x2="593.5298" y2="203.4716">
			<stop  offset="0.5025" style="stop-color:#E57F39"/>
			<stop  offset="1" style="stop-color:#FFBA83"/>
		</linearGradient>
		<path class="st29" d="M611.6,185.5c-0.1,2-1.9,3.5-3.8,4.2c-1.8,0.6-3.8,0.7-5.7,1.2c-3,0.9-5.7,3.2-7.1,6.1
			c-1.4,3-1.5,6.5-0.3,9.6c-1.2-3.8-3.1-8.5-2.8-12.4s2.2-7.9,5-10.6c2.8-2.7,7.4-3,10.9-1.6C609.6,182.8,611.8,183.5,611.6,185.5z"
			/>
		<g>
			<g>
				<path class="st21" d="M662.6,217.9c-0.8-0.6-1.7-1-2.7-1.3l-1-0.3c0,0,0,0,0,0l-8.2-2.7c-0.7-0.2-1-0.7-1.1-1.3
					c-0.3-1.7-0.3-5.8-0.3-6.5c0-0.1-0.1-0.1-0.1-0.1h-0.4h-8.1h-0.4c-0.1,0-0.1,0-0.1,0.1c0,0.7,0,4.7-0.3,6.5
					c-0.1,0.6-0.5,1.1-1.1,1.3l-8.2,2.7c0,0,0,0,0,0l-1.1,0.3c-0.8,0.2-1.7,0.6-2.4,1c-3.7,2.4-3.8,6.4-4,7.2c0,0.1,0,0.1,0.1,0.1
					h21.5h21.5c0.1,0,0.1-0.1,0.1-0.1C666.1,224.2,666.1,220.4,662.6,217.9z"/>
				<g>
					<path class="st22" d="M662.6,217.9c-0.8-0.6-1.7-1-2.7-1.3l-1-0.3c0,0,0,0,0,0l-7-2.3c-2.2,0.8-4.6,1.3-7.1,1.3
						s-4.9-0.5-7.1-1.3l-7,2.3c0,0,0,0,0,0l-1.1,0.3c-0.8,0.2-1.7,0.6-2.4,1c-3.7,2.4-3.8,6.4-4,7.2c0,0.1,0,0.1,0.1,0.1h21.5h21.5
						c0.1,0,0.1-0.1,0.1-0.1C666.1,224.2,666.1,220.4,662.6,217.9z"/>
				</g>
				<g>
					<path class="st23" d="M649.4,210.9c0-1.9-0.1-3.7-0.1-4.2c0-0.1-0.1-0.1-0.1-0.1h-8.9c-0.1,0-0.1,0.1-0.1,0.1
						c0,0.5-0.1,2.3-0.1,4.2c0.6,0.7,3,1.6,4.6,1.6C646.3,212.5,648.7,211.4,649.4,210.9z"/>
				</g>
				<g>
					<path class="st21" d="M636.3,197.1c0.6,1.7,0.3,4.3-0.8,4.8c-1.1,0.5-2.4-1.3-3.1-3c-0.6-1.7-0.3-3.5,0.8-4
						C634.3,194.4,635.7,195.4,636.3,197.1z"/>
					<path class="st21" d="M653.1,197.1c-0.6,1.7-0.3,4.3,0.8,4.8c1.1,0.5,2.4-1.3,3.1-3s0.3-3.5-0.8-4
						C655.1,194.4,653.7,195.4,653.1,197.1z"/>
				</g>
				<path class="st21" d="M644.6,182.1c-10.6-0.4-10.7,9.8-10.6,13.1c0.1,2.4,0.7,6,1.2,7.7c0.3,1,0.8,2.7,1.6,3.4
					c2.1,2,4.6,3.7,6.2,4.3c0.3,0.1,0.9,0.2,1.6,0.2c0.6,0,1.3,0,1.6-0.2c1.6-0.6,4.1-2.3,6.2-4.3c0.8-0.7,1.3-2.4,1.6-3.4
					c0.5-1.8,1.1-5.3,1.2-7.7C655.3,191.9,655.2,181.8,644.6,182.1z"/>
				<g>
					<ellipse class="st16" cx="639.1" cy="196.1" rx="1.3" ry="1.6"/>
					<ellipse class="st16" cx="649.9" cy="196.1" rx="1.3" ry="1.6"/>
				</g>
				<g>
					<path class="st24" d="M646.6,208.3c-1-0.2-1.9-1.3-2-1.9c-0.1,0.6-1,1.7-2,1.9c-2.5,0.5-5.1-1.7-6.9-4c0.3,0.8,0.7,1.6,1.2,2.1
						c2.1,2,4.6,3.7,6.2,4.3c0.3,0.1,0.9,0.2,1.6,0.2c0.6,0,1.3,0,1.6-0.2c1.6-0.6,4.1-2.3,6.2-4.3c0.5-0.5,0.9-1.3,1.2-2.1
						C651.7,206.5,649.2,208.7,646.6,208.3z"/>
				</g>
				<path class="st25" d="M641.9,203c0.5,0.7,1.5,1.1,2.7,1.1s2.3-0.5,2.7-1.1"/>
			</g>
			<g>
				<g>
					<g>
						<path class="st24" d="M635.3,192.1c0.4-2,1.2-3.9,2.2-5.6c-0.3-0.5-0.9-0.6-1.4-0.4c-1.6,2.4-2,5.5-2,7.7
							c0.1,1.3,0.3,2.5,0.7,3.6C635,195.6,634.9,193.8,635.3,192.1z"/>
					</g>
				</g>
				<g>
					<g>
						<path class="st24" d="M654.1,192.1c-0.4-2-1.2-3.9-2.2-5.6c0.3-0.5,0.9-0.6,1.4-0.4c1.6,2.4,2,5.5,2,7.7
							c-0.1,1.3-0.3,2.5-0.7,3.6C654.4,195.6,654.5,193.8,654.1,192.1z"/>
					</g>
				</g>
			</g>
			<linearGradient id="SVGID_8_" gradientUnits="userSpaceOnUse" x1="635.5319" y1="184.5821" x2="655.8451" y2="184.5821">
				<stop  offset="0" style="stop-color:#B17338"/>
				<stop  offset="0.8643" style="stop-color:#E8AE5C"/>
			</linearGradient>
			<path class="st30" d="M645.8,187.9c2,0.5,4.1,0.9,6,0.1c1.9-0.7,3.5-2.6,4-4.7c-1.8,0.9-3.7-0.5-5.5-1.4
				c-4.3-2.2-9.8-1.1-13.2,2.6c-1.8,1.9-2.6,3.7,0.3,3.2C640.6,187.1,642.6,187.1,645.8,187.9z"/>
		</g>
		<g>
			<path class="st31" d="M545.4,128.4c-0.7-0.6-1.5-1-2.3-1.2l-7.9-2.5l0,0c-0.6-0.2-0.9-0.7-1-1.3c-0.3-1.6-0.3-6-0.2-6.7
				c0-0.1,0-0.1-0.1-0.1h-7c-0.1,0-0.1,0-0.1,0.1c0,0.7,0,5-0.2,6.7c-0.1,0.6-0.4,1.1-1,1.3l0,0l-7.9,2.5c-0.7,0.2-1.4,0.6-2,1
				c-3.2,2.4-3.3,6.2-3.4,6.9c0,0.1,0,0.1,0.1,0.1h18.1h18.1c0.1,0,0.1-0.1,0.1-0.1C548.4,134.5,548.4,130.8,545.4,128.4z"/>
			<path class="st31" d="M540.2,128.8c2.4,0.4,5-0.2,6.9-1.8c1.9-1.6,2.1-4.2,2.2-6.7c-1.6,1.3-4.2,0.4-5.3-1.5
				c-1.1-1.8-1.3-4.1-1-6.2c0.3-2.9,0.6-5.9,0.4-8.9c-0.2-3-0.9-5.9-2.5-8.4c-2.3-3.6-6.6-5.4-10.7-5.4s-8.4,1.8-10.7,5.4
				c-1.6,2.4-2.3,5.4-2.5,8.4c-0.2,3,0.1,5.9,0.4,8.9c0.2,2.1,0,4.3-1,6.2c-1.1,1.8-2.5,2.8-4.2,1.5c0.1,2.5,0.3,5.1,2.2,6.7
				s3.4,2.3,5.8,1.8H540.2z"/>
			<path class="st31" d="M545.4,128.4c-0.7-0.6-1.5-1-2.3-1.2l-7.9-2.5l0,0c-0.6-0.2-0.9-0.7-1-1.3c-0.3-1.6-0.3-6-0.2-6.7
				c0-0.1,0-0.1-0.1-0.1h-7c-0.1,0-0.1,0-0.1,0.1c0,0.7,0,5-0.2,6.7c-0.1,0.6-0.4,1.1-1,1.3l0,0l-7.9,2.5c-0.7,0.2-1.4,0.6-2,1
				c-3.2,2.4-3.3,6.2-3.4,6.9c0,0.1,0,0.1,0.1,0.1h18.1h18.1c0.1,0,0.1-0.1,0.1-0.1C548.4,134.5,548.4,130.8,545.4,128.4z"/>
			<g>
				<path class="st31" d="M518.6,126.9l-0.9,0.3c-0.7,0.2-1.4,0.6-2,1c-3.2,2.4-3.3,6.2-3.4,6.9c0,0.1,0,0.1,0.1,0.1h18.1h18.1
					c0.1,0,0.1-0.1,0.1-0.1c-0.1-0.7-0.2-4.4-3.2-6.7c-0.7-0.6-1.5-1-2.3-1.2l-0.9-0.3c-3.6,1.3-7.6,2-11.8,2
					C526.2,128.9,522.2,128.2,518.6,126.9z"/>
				<path class="st31" d="M534.2,123.5c-0.3-1.6-0.3-6-0.2-6.7c0-0.1,0-0.1-0.1-0.1h-7c-0.1,0-0.1,0-0.1,0.1c0,0.7,0,5-0.2,6.7
					c-0.1,0.6-0.4,1.1-1,1.3l-7,2.2c3.6,1.3,7.6,2,11.8,2c4.2,0,8.2-0.7,11.8-2l-7-2.2C534.6,124.6,534.3,124.1,534.2,123.5z"/>
			</g>
			<g>
				<path class="st31" d="M534,120.4c0-1.5,0-2.9,0-3.3c0-0.1,0-0.1-0.1-0.1h-7c-0.1,0-0.1,0-0.1,0.1c0,0.4,0,1.8,0,3.3
					C529.1,121.2,531.7,121.2,534,120.4z"/>
			</g>
			<g>
				<path class="st31" d="M522,107.8c0.6,1.5,0.3,3.8-0.8,4.3c-1.1,0.4-2.4-1.1-3.1-2.6c-0.6-1.5-0.3-3.1,0.8-3.5
					C520,105.5,521.4,106.3,522,107.8z"/>
				<path class="st31" d="M538.8,107.8c-0.6,1.5-0.3,3.8,0.8,4.3c1.1,0.4,2.4-1.1,3.1-2.6s0.3-3.1-0.8-3.5
					C540.8,105.5,539.4,106.3,538.8,107.8z"/>
			</g>
			<path class="st31" d="M530.4,93.1c-10.7-0.4-10.8,9.8-10.7,13.1c0.1,2.4,1.1,6,1.6,7.7c0.3,1,0.8,1.9,1.6,2.7
				c2.8,2.7,7.5,3.6,7.5,3.6s4.7-0.9,7.5-3.6c0.8-0.7,1.3-1.7,1.6-2.7c0.5-1.8,1.5-5.3,1.6-7.7C541.2,102.9,541.1,92.7,530.4,93.1z"
				/>
			<g>
				<ellipse class="st31" cx="524.8" cy="107.1" rx="1.4" ry="1.6"/>
				<ellipse class="st31" cx="535.5" cy="107.1" rx="1.4" ry="1.6"/>
			</g>
			<path class="st31" d="M536.1,94c2.2,0.2,4.2,1.8,5.2,3.7c1,2,1.3,4.3,1.1,6.5c-0.2,2.7-1,5.3-2.2,7.7c1.5-5.3-1.1-11-5.4-14.5
				c-0.8-0.6-0.9-2-0.3-2.8S535.2,93.9,536.1,94z"/>
			<g>
				<g>
					<path class="st31" d="M526.6,113.8c0.7,1.4,2.1,2.5,3.8,2.5s3.1-1,3.8-2.5H526.6z"/>
				</g>
			</g>
			<circle class="st31" cx="523.3" cy="111" r="1.5"/>
			<circle class="st31" cx="536.9" cy="111" r="1.5"/>
		</g>
		<path class="st31" d="M538.5,95.8c-0.1,2-1.9,3.5-3.8,4.2c-1.8,0.6-3.8,0.7-5.7,1.2c-3,0.9-5.7,3.2-7.1,6.1
			c-1.4,3-1.5,6.5-0.3,9.6c-1.2-3.8-3.1-8.5-2.8-12.4c0.3-4,2.2-7.9,5-10.6c2.8-2.7,7.4-3,10.9-1.6
			C536.5,93.1,538.7,93.8,538.5,95.8z"/>
		<g>
			<g>
				<path class="st31" d="M503.2,128.2c-0.8-0.6-1.7-1-2.7-1.3l-1-0.3c0,0,0,0,0,0l-8.2-2.7c-0.7-0.2-1-0.7-1.1-1.3
					c-0.3-1.7-0.3-5.8-0.3-6.5c0-0.1-0.1-0.1-0.1-0.1h-0.4h-8.1h-0.4c-0.1,0-0.1,0-0.1,0.1c0,0.7,0,4.7-0.3,6.5
					c-0.1,0.6-0.5,1.1-1.1,1.3l-8.2,2.7c0,0,0,0,0,0l-1.1,0.3c-0.8,0.2-1.7,0.6-2.4,1c-3.7,2.4-3.8,6.4-4,7.2c0,0.1,0,0.1,0.1,0.1
					h21.5h21.5c0.1,0,0.1-0.1,0.1-0.1C506.7,134.4,506.6,130.7,503.2,128.2z"/>
				<g>
					<path class="st31" d="M503.2,128.2c-0.8-0.6-1.7-1-2.7-1.3l-1-0.3c0,0,0,0,0,0l-7-2.3c-2.2,0.8-4.6,1.3-7.1,1.3
						s-4.9-0.5-7.1-1.3l-7,2.3c0,0,0,0,0,0l-1.1,0.3c-0.8,0.2-1.7,0.6-2.4,1c-3.7,2.4-3.8,6.4-4,7.2c0,0.1,0,0.1,0.1,0.1h21.5h21.5
						c0.1,0,0.1-0.1,0.1-0.1C506.7,134.4,506.6,130.7,503.2,128.2z"/>
				</g>
				<g>
					<path class="st31" d="M489.9,121.1c0-1.9-0.1-3.7-0.1-4.2c0-0.1-0.1-0.1-0.1-0.1h-8.9c-0.1,0-0.1,0.1-0.1,0.1
						c0,0.5-0.1,2.3-0.1,4.2c0.6,0.7,3,1.6,4.6,1.6C486.8,122.8,489.2,121.7,489.9,121.1z"/>
				</g>
				<g>
					<path class="st31" d="M476.9,107.4c0.6,1.7,0.3,4.3-0.8,4.8c-1.1,0.5-2.4-1.3-3.1-3c-0.6-1.7-0.3-3.5,0.8-4
						C474.9,104.7,476.2,105.7,476.9,107.4z"/>
					<path class="st31" d="M493.6,107.4c-0.6,1.7-0.3,4.3,0.8,4.8c1.1,0.5,2.4-1.3,3.1-3c0.6-1.7,0.3-3.5-0.8-4
						C495.6,104.7,494.3,105.7,493.6,107.4z"/>
				</g>
				<path class="st31" d="M485.2,92.4c-10.6-0.4-10.7,9.8-10.6,13.1c0.1,2.4,0.7,6,1.2,7.7c0.3,1,0.8,2.7,1.6,3.4
					c2.1,2,4.6,3.7,6.2,4.3c0.3,0.1,0.9,0.2,1.6,0.2c0.6,0,1.3,0,1.6-0.2c1.6-0.6,4.1-2.3,6.2-4.3c0.8-0.7,1.3-2.4,1.6-3.4
					c0.5-1.8,1.1-5.3,1.2-7.7C495.9,102.2,495.7,92.1,485.2,92.4z"/>
				<g>
					<ellipse class="st31" cx="479.7" cy="106.4" rx="1.3" ry="1.6"/>
					<ellipse class="st31" cx="490.4" cy="106.4" rx="1.3" ry="1.6"/>
				</g>
				<g>
					<path class="st31" d="M487.2,118.6c-1-0.2-1.9-1.3-2-1.9c-0.1,0.6-1,1.7-2,1.9c-2.5,0.5-5.1-1.7-6.9-4c0.3,0.8,0.7,1.6,1.2,2.1
						c2.1,2,4.6,3.7,6.2,4.3c0.3,0.1,0.9,0.2,1.6,0.2c0.6,0,1.3,0,1.6-0.2c1.6-0.6,4.1-2.3,6.2-4.3c0.5-0.5,0.9-1.3,1.2-2.1
						C492.2,116.8,489.7,119,487.2,118.6z"/>
				</g>
				<path class="st31" d="M482.4,113.2c0.5,0.7,1.5,1.1,2.7,1.1c1.2,0,2.3-0.5,2.7-1.1"/>
			</g>
			<g>
				<g>
					<g>
						<path class="st31" d="M475.8,102.4c0.4-2,1.2-3.9,2.2-5.6c-0.3-0.5-0.9-0.6-1.4-0.4c-1.6,2.4-2,5.5-2,7.7
							c0.1,1.3,0.3,2.5,0.7,3.6C475.6,105.9,475.4,104.1,475.8,102.4z"/>
					</g>
				</g>
				<g>
					<g>
						<path class="st31" d="M494.7,102.4c-0.4-2-1.2-3.9-2.2-5.6c0.3-0.5,0.9-0.6,1.4-0.4c1.6,2.4,2,5.5,2,7.7
							c-0.1,1.3-0.3,2.5-0.7,3.6C495,105.9,495.1,104.1,494.7,102.4z"/>
					</g>
				</g>
			</g>
			<path class="st31" d="M486.3,98.2c2,0.5,4.1,0.9,6,0.1c1.9-0.7,3.5-2.6,4-4.7c-1.8,0.9-3.7-0.5-5.5-1.4
				c-4.3-2.2-9.8-1.1-13.2,2.6c-1.8,1.9-2.6,3.7,0.3,3.2C481.1,97.4,483.2,97.4,486.3,98.2z"/>
		</g>
		<g>
			<path class="st31" d="M797.4,209.2c-0.7-0.6-1.5-1-2.3-1.2l-7.9-2.5l0,0c-0.6-0.2-0.9-0.7-1-1.3c-0.3-1.6-0.3-6-0.2-6.7
				c0-0.1,0-0.1-0.1-0.1h-7c-0.1,0-0.1,0-0.1,0.1c0,0.7,0,5-0.2,6.7c-0.1,0.6-0.4,1.1-1,1.3l0,0l-7.9,2.5c-0.7,0.2-1.4,0.6-2,1
				c-3.2,2.4-3.3,6.2-3.4,6.9c0,0.1,0,0.1,0.1,0.1h18.1h18.1c0.1,0,0.1-0.1,0.1-0.1C800.4,215.2,800.4,211.5,797.4,209.2z"/>
			<path class="st31" d="M792.2,209.5c2.4,0.4,5-0.2,6.9-1.8c1.9-1.6,2.1-4.2,2.2-6.7c-1.6,1.3-4.2,0.4-5.3-1.5
				c-1.1-1.8-1.3-4.1-1-6.2c0.3-2.9,0.6-5.9,0.4-8.9c-0.2-3-0.9-5.9-2.5-8.4c-2.3-3.6-6.6-5.4-10.7-5.4s-8.4,1.8-10.7,5.4
				c-1.6,2.4-2.3,5.4-2.5,8.4c-0.2,3,0.1,5.9,0.4,8.9c0.2,2.1,0,4.3-1,6.2c-1.1,1.8-2.5,2.8-4.2,1.5c0.1,2.5,0.3,5.1,2.2,6.7
				c1.9,1.6,3.4,2.3,5.8,1.8H792.2z"/>
			<path class="st31" d="M797.4,209.2c-0.7-0.6-1.5-1-2.3-1.2l-7.9-2.5l0,0c-0.6-0.2-0.9-0.7-1-1.3c-0.3-1.6-0.3-6-0.2-6.7
				c0-0.1,0-0.1-0.1-0.1h-7c-0.1,0-0.1,0-0.1,0.1c0,0.7,0,5-0.2,6.7c-0.1,0.6-0.4,1.1-1,1.3l0,0l-7.9,2.5c-0.7,0.2-1.4,0.6-2,1
				c-3.2,2.4-3.3,6.2-3.4,6.9c0,0.1,0,0.1,0.1,0.1h18.1h18.1c0.1,0,0.1-0.1,0.1-0.1C800.4,215.2,800.4,211.5,797.4,209.2z"/>
			<g>
				<path class="st31" d="M770.6,207.7l-0.9,0.3c-0.7,0.2-1.4,0.6-2,1c-3.2,2.4-3.3,6.2-3.4,6.9c0,0.1,0,0.1,0.1,0.1h18.1h18.1
					c0.1,0,0.1-0.1,0.1-0.1c-0.1-0.7-0.2-4.4-3.2-6.7c-0.7-0.6-1.5-1-2.3-1.2l-0.9-0.3c-3.6,1.3-7.6,2-11.8,2
					C778.2,209.6,774.2,208.9,770.6,207.7z"/>
				<path class="st31" d="M786.2,204.2c-0.3-1.6-0.3-6-0.2-6.7c0-0.1,0-0.1-0.1-0.1h-7c-0.1,0-0.1,0-0.1,0.1c0,0.7,0,5-0.2,6.7
					c-0.1,0.6-0.4,1.1-1,1.3l-7,2.2c3.6,1.3,7.6,2,11.8,2c4.2,0,8.2-0.7,11.8-2l-7-2.2C786.6,205.3,786.3,204.8,786.2,204.2z"/>
			</g>
			<g>
				<path class="st31" d="M786,201.2c0-1.5,0-2.9,0-3.3c0-0.1,0-0.1-0.1-0.1h-7c-0.1,0-0.1,0-0.1,0.1c0,0.4,0,1.8,0,3.3
					C781.1,202,783.7,202,786,201.2z"/>
			</g>
			<g>
				<path class="st31" d="M774,188.5c0.6,1.5,0.3,3.8-0.8,4.3c-1.1,0.4-2.4-1.1-3.1-2.6c-0.6-1.5-0.3-3.1,0.8-3.5
					C772,186.2,773.4,187,774,188.5z"/>
				<path class="st31" d="M790.8,188.5c-0.6,1.5-0.3,3.8,0.8,4.3c1.1,0.4,2.4-1.1,3.1-2.6s0.3-3.1-0.8-3.5
					C792.8,186.2,791.4,187,790.8,188.5z"/>
			</g>
			<path class="st31" d="M782.4,173.8c-10.7-0.4-10.8,9.8-10.7,13.1c0.1,2.4,1.1,6,1.6,7.7c0.3,1,0.8,1.9,1.6,2.7
				c2.8,2.7,7.5,3.6,7.5,3.6s4.7-0.9,7.5-3.6c0.8-0.7,1.3-1.7,1.6-2.7c0.5-1.8,1.5-5.3,1.6-7.7C793.2,183.6,793.1,173.4,782.4,173.8
				z"/>
			<g>
				<ellipse class="st31" cx="776.8" cy="187.8" rx="1.4" ry="1.6"/>
				<ellipse class="st31" cx="787.5" cy="187.8" rx="1.4" ry="1.6"/>
			</g>
			<path class="st31" d="M788.1,174.7c2.2,0.2,4.2,1.8,5.2,3.7c1,2,1.3,4.3,1.1,6.5c-0.2,2.7-1,5.3-2.2,7.7c1.5-5.3-1.1-11-5.4-14.5
				c-0.8-0.6-0.9-2-0.3-2.8S787.2,174.6,788.1,174.7z"/>
			<g>
				<g>
					<path class="st31" d="M778.6,194.5c0.7,1.4,2.1,2.5,3.8,2.5s3.1-1,3.8-2.5H778.6z"/>
				</g>
			</g>
			<circle class="st31" cx="775.3" cy="191.7" r="1.5"/>
			<circle class="st31" cx="788.9" cy="191.7" r="1.5"/>
		</g>
		<path class="st31" d="M790.5,176.5c-0.1,2-1.9,3.5-3.8,4.2c-1.8,0.6-3.8,0.7-5.7,1.2c-3,0.9-5.7,3.2-7.1,6.1
			c-1.4,3-1.5,6.5-0.3,9.6c-1.2-3.8-3.1-8.5-2.8-12.4c0.3-4,2.2-7.9,5-10.6c2.8-2.7,7.4-3,10.9-1.6
			C788.5,173.8,790.7,174.5,790.5,176.5z"/>
		<g>
			<g>
				<path class="st31" d="M755.2,208.9c-0.8-0.6-1.7-1-2.7-1.3l-1-0.3c0,0,0,0,0,0l-8.2-2.7c-0.7-0.2-1-0.7-1.1-1.3
					c-0.3-1.7-0.3-5.8-0.3-6.5c0-0.1-0.1-0.1-0.1-0.1h-0.4h-8.1h-0.4c-0.1,0-0.1,0-0.1,0.1c0,0.7,0,4.7-0.3,6.5
					c-0.1,0.6-0.5,1.1-1.1,1.3l-8.2,2.7c0,0,0,0,0,0l-1.1,0.3c-0.8,0.2-1.7,0.6-2.4,1c-3.7,2.4-3.8,6.4-4,7.2c0,0.1,0,0.1,0.1,0.1
					h21.5h21.5c0.1,0,0.1-0.1,0.1-0.1C758.7,215.2,758.6,211.4,755.2,208.9z"/>
				<g>
					<path class="st31" d="M755.2,208.9c-0.8-0.6-1.7-1-2.7-1.3l-1-0.3c0,0,0,0,0,0l-7-2.3c-2.2,0.8-4.6,1.3-7.1,1.3
						s-4.9-0.5-7.1-1.3l-7,2.3c0,0,0,0,0,0l-1.1,0.3c-0.8,0.2-1.7,0.6-2.4,1c-3.7,2.4-3.8,6.4-4,7.2c0,0.1,0,0.1,0.1,0.1h21.5h21.5
						c0.1,0,0.1-0.1,0.1-0.1C758.7,215.2,758.6,211.4,755.2,208.9z"/>
				</g>
				<g>
					<path class="st31" d="M741.9,201.9c0-1.9-0.1-3.7-0.1-4.2c0-0.1-0.1-0.1-0.1-0.1h-8.9c-0.1,0-0.1,0.1-0.1,0.1
						c0,0.5-0.1,2.3-0.1,4.2c0.6,0.7,3,1.6,4.6,1.6C738.8,203.5,741.2,202.4,741.9,201.9z"/>
				</g>
				<g>
					<path class="st31" d="M728.9,188.1c0.6,1.7,0.3,4.3-0.8,4.8c-1.1,0.5-2.4-1.3-3.1-3c-0.6-1.7-0.3-3.5,0.8-4
						C726.9,185.4,728.2,186.4,728.9,188.1z"/>
					<path class="st31" d="M745.6,188.1c-0.6,1.7-0.3,4.3,0.8,4.8c1.1,0.5,2.4-1.3,3.1-3s0.3-3.5-0.8-4
						C747.6,185.4,746.3,186.4,745.6,188.1z"/>
				</g>
				<path class="st31" d="M737.2,173.1c-10.6-0.4-10.7,9.8-10.6,13.1c0.1,2.4,0.7,6,1.2,7.7c0.3,1,0.8,2.7,1.6,3.4
					c2.1,2,4.6,3.7,6.2,4.3c0.3,0.1,0.9,0.2,1.6,0.2c0.6,0,1.3,0,1.6-0.2c1.6-0.6,4.1-2.3,6.2-4.3c0.8-0.7,1.3-2.4,1.6-3.4
					c0.5-1.8,1.1-5.3,1.2-7.7C747.9,182.9,747.7,172.8,737.2,173.1z"/>
				<g>
					<ellipse class="st31" cx="731.7" cy="187.1" rx="1.3" ry="1.6"/>
					<ellipse class="st31" cx="742.4" cy="187.1" rx="1.3" ry="1.6"/>
				</g>
				<g>
					<path class="st31" d="M739.2,199.3c-1-0.2-1.9-1.3-2-1.9c-0.1,0.6-1,1.7-2,1.9c-2.5,0.5-5.1-1.7-6.9-4c0.3,0.8,0.7,1.6,1.2,2.1
						c2.1,2,4.6,3.7,6.2,4.3c0.3,0.1,0.9,0.2,1.6,0.2c0.6,0,1.3,0,1.6-0.2c1.6-0.6,4.1-2.3,6.2-4.3c0.5-0.5,0.9-1.3,1.2-2.1
						C744.2,197.5,741.7,199.7,739.2,199.3z"/>
				</g>
				<path class="st31" d="M734.4,194c0.5,0.7,1.5,1.1,2.7,1.1s2.3-0.5,2.7-1.1"/>
			</g>
			<g>
				<g>
					<g>
						<path class="st31" d="M727.8,183.1c0.4-2,1.2-3.9,2.2-5.6c-0.3-0.5-0.9-0.6-1.4-0.4c-1.6,2.4-2,5.5-2,7.7
							c0.1,1.3,0.3,2.5,0.7,3.6C727.6,186.6,727.4,184.8,727.8,183.1z"/>
					</g>
				</g>
				<g>
					<g>
						<path class="st31" d="M746.7,183.1c-0.4-2-1.2-3.9-2.2-5.6c0.3-0.5,0.9-0.6,1.4-0.4c1.6,2.4,2,5.5,2,7.7
							c-0.1,1.3-0.3,2.5-0.7,3.6C747,186.6,747.1,184.8,746.7,183.1z"/>
					</g>
				</g>
			</g>
			<path class="st31" d="M738.3,178.9c2,0.5,4.1,0.9,6,0.1c1.9-0.7,3.5-2.6,4-4.7c-1.8,0.9-3.7-0.5-5.5-1.4
				c-4.3-2.2-9.8-1.1-13.2,2.6c-1.8,1.9-2.6,3.7,0.3,3.2C733.1,178.1,735.2,178.1,738.3,178.9z"/>
		</g>
		<g>
			<g>
				<path class="st31" d="M518.6,208.9c-0.8-0.6-1.7-1-2.7-1.3l-1-0.3c0,0,0,0,0,0l-8.2-2.7c-0.7-0.2-1-0.7-1.1-1.3
					c-0.3-1.7-0.3-5.8-0.3-6.5c0-0.1-0.1-0.1-0.1-0.1h-0.4h-8.1h-0.4c-0.1,0-0.1,0-0.1,0.1c0,0.7,0,4.7-0.3,6.5
					c-0.1,0.6-0.5,1.1-1.1,1.3l-8.2,2.7c0,0,0,0,0,0l-1.1,0.3c-0.8,0.2-1.7,0.6-2.4,1c-3.7,2.4-3.8,6.4-4,7.2c0,0.1,0,0.1,0.1,0.1
					h21.5h21.5c0.1,0,0.1-0.1,0.1-0.1C522.1,215.2,522.1,211.4,518.6,208.9z"/>
				<g>
					<path class="st31" d="M518.6,208.9c-0.8-0.6-1.7-1-2.7-1.3l-1-0.3c0,0,0,0,0,0l-7-2.3c-2.2,0.8-4.6,1.3-7.1,1.3
						s-4.9-0.5-7.1-1.3l-7,2.3c0,0,0,0,0,0l-1.1,0.3c-0.8,0.2-1.7,0.6-2.4,1c-3.7,2.4-3.8,6.4-4,7.2c0,0.1,0,0.1,0.1,0.1h21.5h21.5
						c0.1,0,0.1-0.1,0.1-0.1C522.1,215.2,522.1,211.4,518.6,208.9z"/>
				</g>
				<g>
					<path class="st31" d="M505.4,201.9c0-1.9-0.1-3.7-0.1-4.2c0-0.1-0.1-0.1-0.1-0.1h-8.9c-0.1,0-0.1,0.1-0.1,0.1
						c0,0.5-0.1,2.3-0.1,4.2c0.6,0.7,3,1.6,4.6,1.6C502.3,203.5,504.7,202.4,505.4,201.9z"/>
				</g>
				<g>
					<path class="st31" d="M492.3,188.1c0.6,1.7,0.3,4.3-0.8,4.8c-1.1,0.5-2.4-1.3-3.1-3c-0.6-1.7-0.3-3.5,0.8-4
						C490.3,185.4,491.7,186.4,492.3,188.1z"/>
					<path class="st31" d="M509.1,188.1c-0.6,1.7-0.3,4.3,0.8,4.8c1.1,0.5,2.4-1.3,3.1-3s0.3-3.5-0.8-4
						C511.1,185.4,509.7,186.4,509.1,188.1z"/>
				</g>
				<path class="st31" d="M500.6,173.1c-10.6-0.4-10.7,9.8-10.6,13.1c0.1,2.4,0.7,6,1.2,7.7c0.3,1,0.8,2.7,1.6,3.4
					c2.1,2,4.6,3.7,6.2,4.3c0.3,0.1,0.9,0.2,1.6,0.2c0.6,0,1.3,0,1.6-0.2c1.6-0.6,4.1-2.3,6.2-4.3c0.8-0.7,1.3-2.4,1.6-3.4
					c0.5-1.8,1.1-5.3,1.2-7.7C511.3,182.9,511.2,172.8,500.6,173.1z"/>
				<g>
					<ellipse class="st31" cx="495.1" cy="187.1" rx="1.3" ry="1.6"/>
					<ellipse class="st31" cx="505.9" cy="187.1" rx="1.3" ry="1.6"/>
				</g>
				<g>
					<path class="st31" d="M502.6,199.3c-1-0.2-1.9-1.3-2-1.9c-0.1,0.6-1,1.7-2,1.9c-2.5,0.5-5.1-1.7-6.9-4c0.3,0.8,0.7,1.6,1.2,2.1
						c2.1,2,4.6,3.7,6.2,4.3c0.3,0.1,0.9,0.2,1.6,0.2c0.6,0,1.3,0,1.6-0.2c1.6-0.6,4.1-2.3,6.2-4.3c0.5-0.5,0.9-1.3,1.2-2.1
						C507.7,197.5,505.2,199.7,502.6,199.3z"/>
				</g>
				<path class="st31" d="M497.9,194c0.5,0.7,1.5,1.1,2.7,1.1c1.2,0,2.3-0.5,2.7-1.1"/>
			</g>
			<g>
				<g>
					<g>
						<path class="st31" d="M491.3,183.1c0.4-2,1.2-3.9,2.2-5.6c-0.3-0.5-0.9-0.6-1.4-0.4c-1.6,2.4-2,5.5-2,7.7
							c0.1,1.3,0.3,2.5,0.7,3.6C491,186.6,490.9,184.8,491.3,183.1z"/>
					</g>
				</g>
				<g>
					<g>
						<path class="st31" d="M510.1,183.1c-0.4-2-1.2-3.9-2.2-5.6c0.3-0.5,0.9-0.6,1.4-0.4c1.6,2.4,2,5.5,2,7.7
							c-0.1,1.3-0.3,2.5-0.7,3.6C510.4,186.6,510.5,184.8,510.1,183.1z"/>
					</g>
				</g>
			</g>
			<path class="st31" d="M501.8,178.9c2,0.5,4.1,0.9,6,0.1c1.9-0.7,3.5-2.6,4-4.7c-1.8,0.9-3.7-0.5-5.5-1.4
				c-4.3-2.2-9.8-1.1-13.2,2.6c-1.8,1.9-2.6,3.7,0.3,3.2C496.6,178.1,498.6,178.1,501.8,178.9z"/>
		</g>
		<g>
			<g>
				<path class="st31" d="M786.7,127.9c-0.8-0.6-1.7-1-2.7-1.3l-1-0.3c0,0,0,0,0,0l-8.2-2.7c-0.7-0.2-1-0.7-1.1-1.3
					c-0.3-1.7-0.3-5.8-0.3-6.5c0-0.1-0.1-0.1-0.1-0.1h-0.4h-8.1h-0.4c-0.1,0-0.1,0-0.1,0.1c0,0.7,0,4.7-0.3,6.5
					c-0.1,0.6-0.5,1.1-1.1,1.3l-8.2,2.7c0,0,0,0,0,0l-1.1,0.3c-0.8,0.2-1.7,0.6-2.4,1c-3.7,2.4-3.8,6.4-4,7.2c0,0.1,0,0.1,0.1,0.1
					h21.5h21.5c0.1,0,0.1-0.1,0.1-0.1C790.3,134.2,790.2,130.4,786.7,127.9z"/>
				<g>
					<path class="st31" d="M786.7,127.9c-0.8-0.6-1.7-1-2.7-1.3l-1-0.3c0,0,0,0,0,0l-7-2.3c-2.2,0.8-4.6,1.3-7.1,1.3
						s-4.9-0.5-7.1-1.3l-7,2.3c0,0,0,0,0,0l-1.1,0.3c-0.8,0.2-1.7,0.6-2.4,1c-3.7,2.4-3.8,6.4-4,7.2c0,0.1,0,0.1,0.1,0.1h21.5h21.5
						c0.1,0,0.1-0.1,0.1-0.1C790.3,134.2,790.2,130.4,786.7,127.9z"/>
				</g>
				<g>
					<path class="st31" d="M773.5,120.9c0-1.9-0.1-3.7-0.1-4.2c0-0.1-0.1-0.1-0.1-0.1h-8.9c-0.1,0-0.1,0.1-0.1,0.1
						c0,0.5-0.1,2.3-0.1,4.2c0.6,0.7,3,1.6,4.6,1.6C770.4,122.5,772.8,121.4,773.5,120.9z"/>
				</g>
				<g>
					<path class="st31" d="M760.5,107.1c0.6,1.7,0.3,4.3-0.8,4.8s-2.4-1.3-3.1-3c-0.6-1.7-0.3-3.5,0.8-4
						C758.5,104.4,759.8,105.4,760.5,107.1z"/>
					<path class="st31" d="M777.2,107.1c-0.6,1.7-0.3,4.3,0.8,4.8s2.4-1.3,3.1-3c0.6-1.7,0.3-3.5-0.8-4
						C779.2,104.4,777.9,105.4,777.2,107.1z"/>
				</g>
				<path class="st31" d="M768.8,92.1c-10.6-0.4-10.7,9.8-10.6,13.1c0.1,2.4,0.7,6,1.2,7.7c0.3,1,0.8,2.7,1.6,3.4
					c2.1,2,4.6,3.7,6.2,4.3c0.3,0.1,0.9,0.2,1.6,0.2c0.6,0,1.3,0,1.6-0.2c1.6-0.6,4.1-2.3,6.2-4.3c0.8-0.7,1.3-2.4,1.6-3.4
					c0.5-1.8,1.1-5.3,1.2-7.7C779.5,101.9,779.3,91.8,768.8,92.1z"/>
				<g>
					<ellipse class="st31" cx="763.3" cy="106.1" rx="1.3" ry="1.6"/>
					<ellipse class="st31" cx="774" cy="106.1" rx="1.3" ry="1.6"/>
				</g>
				<g>
					<path class="st31" d="M770.8,118.3c-1-0.2-1.9-1.3-2-1.9c-0.1,0.6-1,1.7-2,1.9c-2.5,0.5-5.1-1.7-6.9-4c0.3,0.8,0.7,1.6,1.2,2.1
						c2.1,2,4.6,3.7,6.2,4.3c0.3,0.1,0.9,0.2,1.6,0.2c0.6,0,1.3,0,1.6-0.2c1.6-0.6,4.1-2.3,6.2-4.3c0.5-0.5,0.9-1.3,1.2-2.1
						C775.8,116.5,773.3,118.7,770.8,118.3z"/>
				</g>
				<path class="st31" d="M766,113c0.5,0.7,1.5,1.1,2.7,1.1c1.2,0,2.3-0.5,2.7-1.1"/>
			</g>
			<g>
				<g>
					<g>
						<path class="st31" d="M759.4,102.1c0.4-2,1.2-3.9,2.2-5.6c-0.3-0.5-0.9-0.6-1.4-0.4c-1.6,2.4-2,5.5-2,7.7
							c0.1,1.3,0.3,2.5,0.7,3.6C759.2,105.6,759,103.8,759.4,102.1z"/>
					</g>
				</g>
				<g>
					<g>
						<path class="st31" d="M778.3,102.1c-0.4-2-1.2-3.9-2.2-5.6c0.3-0.5,0.9-0.6,1.4-0.4c1.6,2.4,2,5.5,2,7.7
							c-0.1,1.3-0.3,2.5-0.7,3.6C778.6,105.6,778.7,103.8,778.3,102.1z"/>
					</g>
				</g>
			</g>
			<path class="st31" d="M769.9,97.9c2,0.5,4.1,0.9,6,0.1c1.9-0.7,3.5-2.6,4-4.7c-1.8,0.9-3.7-0.5-5.5-1.4
				c-4.3-2.2-9.8-1.1-13.2,2.6c-1.8,1.9-2.6,3.7,0.3,3.2C764.7,97.1,766.8,97.1,769.9,97.9z"/>
		</g>
		<text transform="matrix(1 0 0 1 617.3921 154.698)" class="st32 st33 st34">MATCH</text>
		<rect x="607.8" class="st35" width="153" height="36"/>
		<g>
			<path class="st2" d="M650.6,13.6h-0.2c-0.1,0-0.3-0.1-0.5-0.1s-0.5-0.1-0.7-0.1c-0.6,0-1,0.1-1.3,0.3c-0.2,0.2-0.3,0.7-0.3,1.3
				v0.1h2.4v2.1h-2.3v7.7h-3.1v-7.7h-1.2v-2.1h1.2v-0.3c0-1.2,0.3-2.1,0.9-2.7s1.6-0.9,2.9-0.9c0.4,0,0.9,0,1.2,0s0.7,0.1,1,0.1
				V13.6z"/>
			<path class="st2" d="M656.6,23.9c-0.2,0.2-0.4,0.3-0.6,0.5c-0.2,0.1-0.4,0.3-0.7,0.4c-0.3,0.1-0.5,0.2-0.8,0.3s-0.6,0.1-1.1,0.1
				c-0.9,0-1.6-0.3-2.2-0.9s-0.9-1.3-0.9-2.2c0-0.7,0.1-1.3,0.4-1.8s0.7-0.8,1.3-1.1c0.6-0.3,1.2-0.5,2-0.6s1.6-0.2,2.5-0.2v-0.1
				c0-0.5-0.2-0.9-0.6-1.1s-1-0.3-1.8-0.3c-0.4,0-0.8,0.1-1.3,0.2s-1,0.3-1.4,0.5h-0.3v-2.4c0.3-0.1,0.8-0.2,1.5-0.3
				s1.4-0.2,2.1-0.2c1.7,0,2.9,0.3,3.7,0.8s1.2,1.4,1.2,2.6v6.7h-3.1V23.9z M656.6,22.4v-2.1c-0.5,0.1-0.9,0.1-1.3,0.1
				s-0.6,0.1-0.9,0.2c-0.3,0.1-0.5,0.2-0.6,0.4c-0.2,0.2-0.2,0.4-0.2,0.8c0,0.5,0.1,0.8,0.4,1s0.6,0.3,1.1,0.3
				c0.3,0,0.5-0.1,0.8-0.2S656.4,22.6,656.6,22.4z"/>
			<path class="st2" d="M666.8,25.2c-0.8,0-1.6-0.1-2.2-0.3c-0.7-0.2-1.3-0.5-1.8-0.9c-0.5-0.4-0.9-1-1.2-1.6s-0.4-1.4-0.4-2.3
				c0-0.9,0.1-1.7,0.4-2.4s0.7-1.2,1.2-1.6c0.5-0.4,1.1-0.7,1.7-0.9s1.4-0.3,2.1-0.3c0.5,0,1.1,0.1,1.6,0.2s1.1,0.3,1.6,0.6v2.6
				h-0.4c-0.1-0.1-0.3-0.2-0.5-0.4c-0.2-0.1-0.4-0.3-0.6-0.4c-0.2-0.1-0.5-0.2-0.8-0.3s-0.6-0.1-0.9-0.1c-0.8,0-1.4,0.3-1.8,0.8
				c-0.4,0.5-0.6,1.3-0.6,2.2c0,1,0.2,1.7,0.7,2.2c0.5,0.5,1.1,0.7,1.8,0.7c0.4,0,0.7,0,1-0.1s0.5-0.2,0.8-0.3
				c0.2-0.1,0.4-0.3,0.5-0.4s0.3-0.3,0.4-0.4h0.4v2.6c-0.2,0.1-0.4,0.2-0.6,0.3s-0.5,0.2-0.7,0.2c-0.3,0.1-0.6,0.1-0.8,0.2
				S667.2,25.2,666.8,25.2z"/>
			<path class="st2" d="M676.5,25.2c-1.9,0-3.3-0.4-4.3-1.3c-1-0.9-1.5-2.2-1.5-3.8c0-1.6,0.5-2.9,1.4-3.9s2.2-1.4,3.9-1.4
				c1.5,0,2.6,0.4,3.4,1.2s1.1,2,1.1,3.5v1.1h-6.7c0,0.5,0.1,0.8,0.3,1.1s0.4,0.6,0.7,0.7c0.3,0.2,0.6,0.3,0.9,0.4s0.7,0.1,1.2,0.1
				c0.4,0,0.7,0,1.1-0.1s0.7-0.2,0.9-0.3c0.3-0.1,0.5-0.2,0.7-0.4c0.2-0.1,0.4-0.2,0.5-0.3h0.3v2.5c-0.3,0.1-0.5,0.2-0.7,0.3
				c-0.2,0.1-0.5,0.2-0.9,0.3c-0.3,0.1-0.7,0.2-1,0.2S677,25.2,676.5,25.2z M677.5,18.7c0-0.7-0.2-1.1-0.5-1.5
				c-0.3-0.3-0.7-0.5-1.3-0.5c-0.6,0-1.1,0.2-1.4,0.5c-0.3,0.4-0.5,0.8-0.6,1.5H677.5z"/>
			<path class="st2" d="M691.8,19.9c0,1.6-0.4,2.8-1.2,3.8s-1.8,1.5-3,1.5c-0.5,0-0.9-0.1-1.3-0.2s-0.8-0.3-1.2-0.5l-0.1,0.5h-2.9
				V11.3h3.1v4.8c0.5-0.4,0.9-0.7,1.4-0.9s1-0.4,1.6-0.4c1.1,0,2,0.4,2.7,1.3C691.5,17,691.8,18.3,691.8,19.9z M688.7,19.9
				c0-1-0.1-1.7-0.4-2.1s-0.8-0.6-1.4-0.6c-0.3,0-0.5,0-0.8,0.1c-0.3,0.1-0.5,0.2-0.8,0.4v5c0.2,0.1,0.4,0.1,0.6,0.2s0.4,0,0.6,0
				c0.7,0,1.3-0.2,1.7-0.7S688.7,20.9,688.7,19.9z"/>
			<path class="st2" d="M703,20c0,1.6-0.4,2.9-1.3,3.8c-0.9,0.9-2.1,1.4-3.8,1.4c-1.6,0-2.9-0.5-3.8-1.4s-1.3-2.2-1.3-3.8
				c0-1.6,0.4-2.9,1.3-3.9s2.1-1.4,3.8-1.4c1.6,0,2.9,0.5,3.8,1.4S703,18.4,703,20z M699.9,20c0-0.6,0-1.1-0.1-1.5
				c-0.1-0.4-0.2-0.7-0.4-0.9c-0.2-0.2-0.4-0.4-0.6-0.5s-0.5-0.1-0.8-0.1c-0.3,0-0.5,0-0.7,0.1s-0.4,0.2-0.6,0.5
				c-0.2,0.2-0.3,0.5-0.4,0.9S696,19.4,696,20s0,1.1,0.1,1.5s0.2,0.7,0.4,0.9c0.2,0.2,0.4,0.4,0.6,0.5s0.5,0.2,0.8,0.2
				c0.2,0,0.5-0.1,0.8-0.2c0.3-0.1,0.5-0.3,0.6-0.5c0.2-0.3,0.3-0.6,0.4-0.9S699.9,20.6,699.9,20z"/>
			<path class="st2" d="M714.1,20c0,1.6-0.4,2.9-1.3,3.8c-0.9,0.9-2.1,1.4-3.8,1.4c-1.6,0-2.9-0.5-3.8-1.4s-1.3-2.2-1.3-3.8
				c0-1.6,0.4-2.9,1.3-3.9s2.1-1.4,3.8-1.4c1.6,0,2.9,0.5,3.8,1.4S714.1,18.4,714.1,20z M711,20c0-0.6,0-1.1-0.1-1.5
				c-0.1-0.4-0.2-0.7-0.4-0.9c-0.2-0.2-0.4-0.4-0.6-0.5S709.3,17,709,17c-0.3,0-0.5,0-0.7,0.1s-0.4,0.2-0.6,0.5
				c-0.2,0.2-0.3,0.5-0.4,0.9s-0.2,0.9-0.2,1.5s0,1.1,0.1,1.5s0.2,0.7,0.4,0.9c0.2,0.2,0.4,0.4,0.6,0.5s0.5,0.2,0.8,0.2
				c0.2,0,0.5-0.1,0.8-0.2c0.3-0.1,0.5-0.3,0.6-0.5c0.2-0.3,0.3-0.6,0.4-0.9S711,20.6,711,20z"/>
			<path class="st2" d="M725.6,24.9H722l-2.7-4.3l-0.5,0.6v3.7h-3.1V11.3h3.1v7.7l2.9-3.9h3.6l-3.5,4.3L725.6,24.9z"/>
		</g>
		<circle class="st2" cx="873.3" cy="153" r="72"/>
		<circle class="st11" cx="873.3" cy="153" r="63"/>
		<g>
			<path class="st12" d="M910,146.2c-0.7-0.6-1.5-1-2.3-1.2l-7.9-2.5l0,0c-0.6-0.2-0.9-0.7-1-1.3c-0.3-1.6-0.3-6-0.2-6.7
				c0-0.1,0-0.1-0.1-0.1h-7c-0.1,0-0.1,0-0.1,0.1c0,0.7,0,5-0.2,6.7c-0.1,0.6-0.4,1.1-1,1.3l0,0l-7.9,2.5c-0.7,0.2-1.4,0.6-2,1
				c-3.2,2.4-3.3,6.2-3.4,6.9c0,0.1,0,0.1,0.1,0.1H895h18.1c0.1,0,0.1-0.1,0.1-0.1C913,152.2,913,148.5,910,146.2z"/>
			<linearGradient id="SVGID_9_" gradientUnits="userSpaceOnUse" x1="895.3493" y1="141.5901" x2="895.3493" y2="127.9732">
				<stop  offset="0.1608" style="stop-color:#D86D25"/>
				<stop  offset="0.6432" style="stop-color:#E57F39"/>
			</linearGradient>
			<path class="st36" d="M904.7,146.5c2.4,0.4,5-0.2,6.9-1.8c1.9-1.6,2.1-4.2,2.2-6.7c-1.6,1.3-4.2,0.4-5.3-1.5
				c-1.1-1.8-1.3-4.1-1-6.2c0.3-2.9,0.6-5.9,0.4-8.9c-0.2-3-0.9-5.9-2.5-8.4c-2.3-3.6-6.6-5.4-10.7-5.4s-8.4,1.8-10.7,5.4
				c-1.6,2.4-2.3,5.4-2.5,8.4c-0.2,3,0.1,5.9,0.4,8.9c0.2,2.1,0,4.3-1,6.2c-1.1,1.8-2.5,2.8-4.2,1.5c0.1,2.5,0.3,5.1,2.2,6.7
				c1.9,1.6,3.4,2.3,5.8,1.8H904.7z"/>
			<path class="st12" d="M910,146.2c-0.7-0.6-1.5-1-2.3-1.2l-7.9-2.5l0,0c-0.6-0.2-0.9-0.7-1-1.3c-0.3-1.6-0.3-6-0.2-6.7
				c0-0.1,0-0.1-0.1-0.1h-7c-0.1,0-0.1,0-0.1,0.1c0,0.7,0,5-0.2,6.7c-0.1,0.6-0.4,1.1-1,1.3l0,0l-7.9,2.5c-0.7,0.2-1.4,0.6-2,1
				c-3.2,2.4-3.3,6.2-3.4,6.9c0,0.1,0,0.1,0.1,0.1H895h18.1c0.1,0,0.1-0.1,0.1-0.1C913,152.2,913,148.5,910,146.2z"/>
			<g>
				<path class="st14" d="M883.2,144.7l-0.9,0.3c-0.7,0.2-1.4,0.6-2,1c-3.2,2.4-3.3,6.2-3.4,6.9c0,0.1,0,0.1,0.1,0.1H895h18.1
					c0.1,0,0.1-0.1,0.1-0.1c-0.1-0.7-0.2-4.4-3.2-6.7c-0.7-0.6-1.5-1-2.3-1.2l-0.9-0.3c-3.6,1.3-7.6,2-11.8,2
					S886.8,145.9,883.2,144.7z"/>
				<path class="st12" d="M898.8,141.2c-0.3-1.6-0.3-6-0.2-6.7c0-0.1,0-0.1-0.1-0.1h-7c-0.1,0-0.1,0-0.1,0.1c0,0.7,0,5-0.2,6.7
					c-0.1,0.6-0.4,1.1-1,1.3l-7,2.2c3.6,1.3,7.6,2,11.8,2s8.2-0.7,11.8-2l-7-2.2C899.2,142.3,898.9,141.8,898.8,141.2z"/>
			</g>
			<g>
				<path class="st15" d="M898.6,138.2c0-1.5,0-2.9,0-3.3c0-0.1,0-0.1-0.1-0.1h-7c-0.1,0-0.1,0-0.1,0.1c0,0.4,0,1.8,0,3.3
					C893.7,139,896.3,139,898.6,138.2z"/>
			</g>
			<g>
				<path class="st12" d="M886.6,125.5c0.6,1.5,0.3,3.8-0.8,4.3c-1.1,0.4-2.4-1.1-3.1-2.6s-0.3-3.1,0.8-3.5
					C884.6,123.2,886,124,886.6,125.5z"/>
				<path class="st12" d="M903.4,125.5c-0.6,1.5-0.3,3.8,0.8,4.3c1.1,0.4,2.4-1.1,3.1-2.6s0.3-3.1-0.8-3.5
					C905.4,123.2,904,124,903.4,125.5z"/>
			</g>
			<path class="st12" d="M895,110.8c-10.7-0.4-10.8,9.8-10.7,13.1c0.1,2.4,1.1,6,1.6,7.7c0.3,1,0.8,1.9,1.6,2.7
				c2.8,2.7,7.5,3.6,7.5,3.6s4.7-0.9,7.5-3.6c0.8-0.7,1.3-1.7,1.6-2.7c0.5-1.8,1.5-5.3,1.6-7.7C905.8,120.6,905.7,110.4,895,110.8z"
				/>
			<g>
				<ellipse class="st16" cx="889.4" cy="124.8" rx="1.4" ry="1.6"/>
				<ellipse class="st16" cx="900.1" cy="124.8" rx="1.4" ry="1.6"/>
			</g>
			<linearGradient id="SVGID_10_" gradientUnits="userSpaceOnUse" x1="899.3334" y1="112.8907" x2="906.4895" y2="124.2019">
				<stop  offset="0.3719" style="stop-color:#E57F39"/>
				<stop  offset="1" style="stop-color:#FFBA83"/>
			</linearGradient>
			<path class="st37" d="M900.7,111.7c2.2,0.2,4.2,1.8,5.2,3.7c1,2,1.3,4.3,1.1,6.5c-0.2,2.7-1,5.3-2.2,7.7c1.5-5.3-1.1-11-5.4-14.5
				c-0.8-0.6-0.9-2-0.3-2.8S899.8,111.6,900.7,111.7z"/>
			<g>
				<g>
					<path class="st18" d="M891.2,131.5c0.7,1.4,2.1,2.5,3.8,2.5s3.1-1,3.8-2.5H891.2z"/>
				</g>
			</g>
			<circle class="st19" cx="887.9" cy="128.7" r="1.5"/>
			<circle class="st19" cx="901.5" cy="128.7" r="1.5"/>
		</g>
		<linearGradient id="SVGID_11_" gradientUnits="userSpaceOnUse" x1="895.0624" y1="113.54" x2="885.0465" y2="131.4716">
			<stop  offset="0.5025" style="stop-color:#E57F39"/>
			<stop  offset="1" style="stop-color:#FFBA83"/>
		</linearGradient>
		<path class="st38" d="M903.1,113.5c-0.1,2-1.9,3.5-3.8,4.2c-1.8,0.6-3.8,0.7-5.7,1.2c-3,0.9-5.7,3.2-7.1,6.1s-1.5,6.5-0.3,9.6
			c-1.2-3.8-3.1-8.5-2.8-12.4c0.3-4,2.2-7.9,5-10.6c2.8-2.7,7.4-3,10.9-1.6C901.1,110.8,903.3,111.5,903.1,113.5z"/>
		<g>
			<g>
				<path class="st21" d="M867.7,145.9c-0.8-0.6-1.7-1-2.7-1.3l-1-0.3c0,0,0,0,0,0l-8.2-2.7c-0.7-0.2-1-0.7-1.1-1.3
					c-0.3-1.7-0.3-5.8-0.3-6.5c0-0.1-0.1-0.1-0.1-0.1h-0.4h-8.1h-0.4c-0.1,0-0.1,0-0.1,0.1c0,0.7,0,4.7-0.3,6.5
					c-0.1,0.6-0.5,1.1-1.1,1.3l-8.2,2.7c0,0,0,0,0,0l-1.1,0.3c-0.8,0.2-1.7,0.6-2.4,1c-3.7,2.4-3.8,6.4-4,7.2c0,0.1,0,0.1,0.1,0.1
					h21.5h21.5c0.1,0,0.1-0.1,0.1-0.1C871.3,152.2,871.2,148.4,867.7,145.9z"/>
				<g>
					<path class="st22" d="M867.7,145.9c-0.8-0.6-1.7-1-2.7-1.3l-1-0.3c0,0,0,0,0,0l-7-2.3c-2.2,0.8-4.6,1.3-7.1,1.3
						s-4.9-0.5-7.1-1.3l-7,2.3c0,0,0,0,0,0l-1.1,0.3c-0.8,0.2-1.7,0.6-2.4,1c-3.7,2.4-3.8,6.4-4,7.2c0,0.1,0,0.1,0.1,0.1h21.5h21.5
						c0.1,0,0.1-0.1,0.1-0.1C871.3,152.2,871.2,148.4,867.7,145.9z"/>
				</g>
				<g>
					<path class="st23" d="M854.5,138.9c0-1.9-0.1-3.7-0.1-4.2c0-0.1-0.1-0.1-0.1-0.1h-8.9c-0.1,0-0.1,0.1-0.1,0.1
						c0,0.5-0.1,2.3-0.1,4.2c0.6,0.7,3,1.6,4.6,1.6C851.4,140.5,853.8,139.4,854.5,138.9z"/>
				</g>
				<g>
					<path class="st21" d="M841.5,125.1c0.6,1.7,0.3,4.3-0.8,4.8c-1.1,0.5-2.4-1.3-3.1-3c-0.6-1.7-0.3-3.5,0.8-4
						C839.5,122.4,840.8,123.4,841.5,125.1z"/>
					<path class="st21" d="M858.2,125.1c-0.6,1.7-0.3,4.3,0.8,4.8c1.1,0.5,2.4-1.3,3.1-3c0.6-1.7,0.3-3.5-0.8-4
						C860.2,122.4,858.9,123.4,858.2,125.1z"/>
				</g>
				<path class="st21" d="M849.8,110.1c-10.6-0.4-10.7,9.8-10.6,13.1c0.1,2.4,0.7,6,1.2,7.7c0.3,1,0.8,2.7,1.6,3.4
					c2.1,2,4.6,3.7,6.2,4.3c0.3,0.1,0.9,0.2,1.6,0.2c0.6,0,1.3,0,1.6-0.2c1.6-0.6,4.1-2.3,6.2-4.3c0.8-0.7,1.3-2.4,1.6-3.4
					c0.5-1.8,1.1-5.3,1.2-7.7C860.5,119.9,860.3,109.8,849.8,110.1z"/>
				<g>
					<ellipse class="st16" cx="844.3" cy="124.1" rx="1.3" ry="1.6"/>
					<ellipse class="st16" cx="855" cy="124.1" rx="1.3" ry="1.6"/>
				</g>
				<g>
					<path class="st24" d="M851.8,136.3c-1-0.2-1.9-1.3-2-1.9c-0.1,0.6-1,1.7-2,1.9c-2.5,0.5-5.1-1.7-6.9-4c0.3,0.8,0.7,1.6,1.2,2.1
						c2.1,2,4.6,3.7,6.2,4.3c0.3,0.1,0.9,0.2,1.6,0.2c0.6,0,1.3,0,1.6-0.2c1.6-0.6,4.1-2.3,6.2-4.3c0.5-0.5,0.9-1.3,1.2-2.1
						C856.8,134.5,854.3,136.7,851.8,136.3z"/>
				</g>
				<path class="st25" d="M847,131c0.5,0.7,1.5,1.1,2.7,1.1c1.2,0,2.3-0.5,2.7-1.1"/>
			</g>
			<g>
				<g>
					<g>
						<path class="st24" d="M840.4,120.1c0.4-2,1.2-3.9,2.2-5.6c-0.3-0.5-0.9-0.6-1.4-0.4c-1.6,2.4-2,5.5-2,7.7
							c0.1,1.3,0.3,2.5,0.7,3.6C840.2,123.6,840,121.8,840.4,120.1z"/>
					</g>
				</g>
				<g>
					<g>
						<path class="st24" d="M859.3,120.1c-0.4-2-1.2-3.9-2.2-5.6c0.3-0.5,0.9-0.6,1.4-0.4c1.6,2.4,2,5.5,2,7.7
							c-0.1,1.3-0.3,2.5-0.7,3.6C859.6,123.6,859.7,121.8,859.3,120.1z"/>
					</g>
				</g>
			</g>
			<linearGradient id="SVGID_12_" gradientUnits="userSpaceOnUse" x1="840.6772" y1="112.5821" x2="860.9904" y2="112.5821">
				<stop  offset="0" style="stop-color:#B17338"/>
				<stop  offset="0.8643" style="stop-color:#E8AE5C"/>
			</linearGradient>
			<path class="st39" d="M850.9,115.9c2,0.5,4.1,0.9,6,0.1c1.9-0.7,3.5-2.6,4-4.7c-1.8,0.9-3.7-0.5-5.5-1.4
				c-4.3-2.2-9.8-1.1-13.2,2.6c-1.8,1.9-2.6,3.7,0.3,3.2C845.7,115.1,847.8,115.1,850.9,115.9z"/>
		</g>
		<g>
			<path class="st2" d="M844.2,169.2v1.7h-5.5v-8.4h1.9v6.7H844.2z"/>
			<path class="st2" d="M853.8,166.7c0,2.4-1.9,4.3-4.5,4.3c-2.6,0-4.5-1.8-4.5-4.3c0-2.4,1.9-4.3,4.5-4.3
				C851.8,162.4,853.8,164.3,853.8,166.7z M846.7,166.7c0,1.5,1.2,2.6,2.6,2.6s2.5-1.2,2.5-2.6c0-1.5-1.1-2.6-2.5-2.6
				C847.9,164.1,846.7,165.2,846.7,166.7z"/>
			<path class="st2" d="M863.2,166.7c0,2.4-1.9,4.3-4.5,4.3c-2.6,0-4.5-1.8-4.5-4.3c0-2.4,1.9-4.3,4.5-4.3
				C861.3,162.4,863.2,164.3,863.2,166.7z M856.2,166.7c0,1.5,1.2,2.6,2.6,2.6s2.5-1.2,2.5-2.6c0-1.5-1.1-2.6-2.5-2.6
				C857.3,164.1,856.2,165.2,856.2,166.7z"/>
			<path class="st2" d="M867.6,167.5l-1.2,1.3v2.1h-1.9v-8.4h1.9v3.8l3.5-3.8h2.2l-3.2,3.5l3.4,4.9H870L867.6,167.5z"/>
			<path class="st2" d="M875,169.3l-0.7,1.6h-2l3.6-8.4h2l3.6,8.4h-2l-0.7-1.6H875z M876.9,164.5l-1.3,3.3h2.7L876.9,164.5z"/>
			<path class="st2" d="M887.9,169.2v1.7h-5.5v-8.4h1.9v6.7H887.9z"/>
			<path class="st2" d="M889.1,170.9v-8.4h1.9v8.4H889.1z"/>
			<path class="st2" d="M895.9,167.5l-1.2,1.3v2.1h-1.9v-8.4h1.9v3.8l3.5-3.8h2.2l-3.2,3.5l3.4,4.9h-2.3L895.9,167.5z"/>
			<path class="st2" d="M903.6,164.1v1.8h4.1v1.6h-4.1v1.9h4.6v1.6h-6.5v-8.4h6.4v1.6H903.6z"/>
			<path class="st2" d="M843.5,183.7l-0.7,1.6h-2l3.6-8.4h2l3.6,8.4h-2l-0.7-1.6H843.5z M845.4,178.9l-1.3,3.3h2.7L845.4,178.9z"/>
			<path class="st2" d="M858.1,181.8c0,2.2-1.5,3.6-3.8,3.6c-2.3,0-3.8-1.4-3.8-3.6v-4.9h1.9v4.9c0,1.2,0.8,1.9,1.9,1.9
				c1.1,0,1.9-0.7,1.9-1.9v-4.9h1.9V181.8z"/>
			<path class="st2" d="M863.4,176.9c2.6,0,4.4,1.7,4.4,4.2c0,2.5-1.8,4.2-4.5,4.2h-3.5v-8.4H863.4z M861.7,183.7h1.7
				c1.4,0,2.4-1.1,2.4-2.6c0-1.5-1.1-2.6-2.5-2.6h-1.6V183.7z"/>
			<path class="st2" d="M869,185.3v-8.4h1.9v8.4H869z"/>
			<path class="st2" d="M874.7,178.5v1.8h4.1v1.6h-4.1v1.9h4.6v1.6h-6.5v-8.4h6.4v1.6H874.7z"/>
			<path class="st2" d="M886.7,185.3l-4.1-5.4v5.4h-1.8v-8.4h1.7l4.1,5.4v-5.4h1.8v8.4H886.7z"/>
			<path class="st2" d="M897.4,178.2l-1.1,1.3c-0.6-0.7-1.4-1.1-2.2-1.1c-1.4,0-2.6,1.1-2.6,2.6c0,1.5,1.1,2.6,2.6,2.6
				c0.8,0,1.6-0.4,2.2-1l1.1,1.2c-0.9,0.9-2.2,1.5-3.4,1.5c-2.5,0-4.4-1.9-4.4-4.3c0-2.4,1.9-4.2,4.5-4.2
				C895.3,176.8,896.6,177.4,897.4,178.2z"/>
			<path class="st2" d="M900.5,178.5v1.8h4.1v1.6h-4.1v1.9h4.6v1.6h-6.5v-8.4h6.4v1.6H900.5z"/>
		</g>
	</g>
	<g id="match">
		<path class="st2" d="M627,154.2v-5.7l-2.2,4.8h-1.2l-2.2-4.8v5.7h-1.7v-8.4h2.1l2.4,5.1l2.4-5.1h2.1v8.4H627z"/>
		<path class="st2" d="M632.3,152.6l-0.7,1.6h-2l3.6-8.4h2l3.6,8.4h-2l-0.7-1.6H632.3z M634.2,147.8l-1.3,3.3h2.7L634.2,147.8z"/>
		<path class="st2" d="M642.5,147.4v6.8h-1.9v-6.8H638v-1.6h7v1.6H642.5z"/>
		<path class="st2" d="M652.8,147.1l-1.1,1.3c-0.6-0.7-1.4-1.1-2.2-1.1c-1.4,0-2.6,1.1-2.6,2.6c0,1.5,1.1,2.6,2.6,2.6
			c0.8,0,1.6-0.4,2.2-1l1.1,1.2c-0.9,0.9-2.2,1.5-3.4,1.5c-2.5,0-4.4-1.9-4.4-4.3c0-2.4,1.9-4.2,4.5-4.2
			C650.7,145.7,652,146.3,652.8,147.1z"/>
		<path class="st2" d="M659.6,154.2v-3.3h-3.8v3.3h-1.9v-8.4h1.9v3.5h3.8v-3.5h1.9v8.4H659.6z"/>
	</g>
</g>
</svg>
